<svg xmlns="http://www.w3.org/2000/svg" width="16" height="16" viewBox="0 0 16 16"><path d="M15.7 2H4.3a.3.3 0 0 0-.3.3v1.4a.3.3 0 0 0 .3.3h11.4a.3.3 0 0 0 .3-.3V2.3a.3.3 0 0 0-.3-.3zM1.7 12H.3a.3.3 0 0 0-.3.3v1.4a.3.3 0 0 0 .3.3h1.4a.3.3 0 0 0 .3-.3v-1.4a.3.3 0 0 0-.3-.3zM4.3 9h9.4a.3.3 0 0 0 .3-.3V7.3a.3.3 0 0 0-.3-.3H4.3a.3.3 0 0 0-.3.3v1.4a.3.3 0 0 0 .3.3zM15.7 12H4.3a.3.3 0 0 0-.3.299v1.4c0 .166.135.301.3.301h11.4a.3.3 0 0 0 .3-.3v-1.4a.3.3 0 0 0-.3-.3zM1.7 7H.3a.3.3 0 0 0-.3.3v1.4a.3.3 0 0 0 .3.3h1.4a.3.3 0 0 0 .3-.3V7.3a.3.3 0 0 0-.3-.3zM1.7 2H.3a.3.3 0 0 0-.3.3v1.4a.3.3 0 0 0 .3.3h1.4a.3.3 0 0 0 .3-.3V2.3a.3.3 0 0 0-.3-.3z"/></svg>