<svg xmlns="http://www.w3.org/2000/svg" width="16" height="16" viewBox="0 0 16 16"><circle cx="8" cy="4.744" r="2.743"/><path d="M6.997 11.841v-1.7c0-.083.067-.149.15-.149h2.85V8.71a6.706 6.706 0 0 0-6.934 1.854l-.047.055v.001a.917.917 0 0 0 0 1.166v.003l.021.021.026.026A6.679 6.679 0 0 0 7 13.926v-2.078c0-.002-.003-.004-.003-.007z"/><path d="M15.85 11.001H13V8.15a.149.149 0 0 0-.148-.15H11.15a.15.15 0 0 0-.15.149v2.852H8.15a.149.149 0 0 0-.15.149v1.701c0 .083.067.149.15.149H11v2.85c0 .084.066.15.15.15h1.699c.084 0 .15-.066.15-.148v-2.851h2.85c.083 0 .15-.066.15-.149V11.15a.147.147 0 0 0-.149-.149z"/><path opacity=".8" d="M14 10h1.911a.74.74 0 0 0-.091-.822A5.544 5.544 0 0 0 14 7.85V10zM11.268 6.531c.131.023.266.041.4.041a2.285 2.285 0 0 0 2.287-2.283v-.002a2.283 2.283 0 0 0-3.222-2.083 3.71 3.71 0 0 1 1.011 2.541 3.712 3.712 0 0 1-.476 1.786zM.213 9.135l-.039.047a.767.767 0 0 0 0 .973v.005l.017.017.022.023c.104.111.212.221.325.322.396.364.839.64 1.297.865-.054-.514.1-1.027.427-1.428l.064-.074a7.755 7.755 0 0 1 3.445-2.15 4.684 4.684 0 0 1-.327-.27c-1.856-.378-3.855.177-5.231 1.67zM4.326 6.572c.138 0 .271-.017.403-.041a3.712 3.712 0 0 1-.473-1.789c0-.981.388-1.868 1.009-2.536A2.263 2.263 0 0 0 4.328 2a2.287 2.287 0 0 0-.002 4.572z"/></svg>