<svg xmlns="http://www.w3.org/2000/svg" width="32" height="32" viewBox="0 0 32 32"><path d="M28.744 15.051a8.148 8.148 0 0 0-.85-.442h-.041l.205-.186c.371-.303.75-.631 1.063-1.006 1.482-1.71 1.913-3.622 1.285-5.695-.506-1.709-1.663-2.979-3.471-3.895-1.385-.692-2.942-1.006-4.814-1.006H6.837l.053 15.021H0v5.907h10.055l-3.143 1.906v3.522h15.535c1.006 0 2.076-.127 3.146-.291C29.188 28.261 32 24.841 32 21.098c0-2.731-1.093-4.779-3.268-6.061l.012.014zm-5.378-2.363c-.313.212-.716.325-1.134.427-.303.087-.629.087-.92.087h-8.417V8.048h9.151c1.093.025 2.013.756 2.337 1.837.303 1.029-.128 2.186-1.006 2.813l-.011-.01zm-8.168 11.311h-2.302v-6.03h9.366c1.344 0 2.297.438 2.977 1.379.554.756.693 1.762.379 2.682-.325.877-1.006 1.535-1.885 1.756-.541.127-1.058.215-1.512.232h-7.038l.015-.019z"/></svg>