<svg xmlns="http://www.w3.org/2000/svg" width="32" height="32" viewBox="0 0 32 32"><path d="M16 0C7.164 0 0 7.164 0 16c0 8.837 7.164 16 16 16 8.837 0 16-7.163 16-16 0-8.836-7.163-16-16-16zm0 29.123C8.752 29.123 2.877 23.248 2.877 16S8.752 2.877 16 2.877 29.123 8.752 29.123 16 23.248 29.123 16 29.123z"/><path d="M20.288 20.938c.447-.179 1.398-.557 2.156-1.435.775-.897.725-1.985.48-3.029-.244-1.044-.822-1.653-1.459-1.919-.639-.266-1.439-.232-1.439-.232s.549-.538.717-.979c.168-.44.152-1.052.098-1.357-.056-.305-.324-1.577-1.492-2.05-.901-.367-1.828-.367-3.016-.142l-.648-2.539-1.568.4.643 2.509-1.193.305-.643-2.509-1.566.4.643 2.509-3.083.787.416 1.626.906-.231c.248-.063.694-.148.935.013.239.161.301.262.404.667l1.657 6.478c.04.153.059.353-.041.51-.101.158-.224.222-.539.302l-.938.238.159 1.963 3.083-.787.641 2.502 1.567-.398-.64-2.503 1.192-.304.642 2.502 1.565-.4-.648-2.543c.398-.127.77-.254.98-.34l.029-.014zm-5.499-5.676l-.772-3.021s.488-.171.979-.289c.431-.104.818-.189 1.374-.187.083 0 .167.002.25.006.695.033 1.199.419 1.36.986.16.567.009 1.011-.369 1.365-.377.354-.951.64-1.518.808-.566.167-1.304.332-1.304.332zm4.649 3.567c-.309.289-.98.647-1.663.876s-1.73.473-1.73.473l-.859-3.357s.982-.305 1.774-.452a6.152 6.152 0 0 1 1.084-.104c.314-.002.572.024.737.06.33.071.926.263 1.122 1.031.198.766-.156 1.184-.465 1.473z"/></svg>