<svg xmlns="http://www.w3.org/2000/svg" width="32" height="32" viewBox="0 0 32 32"><path d="M8.363 12.294l2.531 1.492v8.541l2.485-1.627v-8.406l-2.508-1.808-2.508 1.808zm5.016 0l2.532 1.492v8.541l2.485-1.627v-8.406l-2.508-1.808-2.509 1.808zm7.525-1.808l-2.508 1.808 2.531 1.492v8.541l2.485-1.627v-8.406l-2.508-1.808z"/><circle cx="27.346" cy="7.91" r=".678"/><circle cx="21.605" cy="3.255" r="1.175"/><circle cx="30.104" cy="14.645" r="1.898"/><circle cx="29.152" cy="21.831" r="1.763"/><circle cx="24.725" cy="27.571" r="1.311"/><circle cx="17.854" cy="30.011" r=".949"/><circle cx="10.871" cy="29.062" r=".655"/><circle cx="5.063" cy="24.724" r="2.26"/><circle cx="2.17" cy="18.034" r="2.169"/><circle cx="3.391" cy="10.893" r="1.989"/><circle cx="7.594" cy="4.972" r="1.718"/><circle cx="14.374" cy="2.351" r="1.311"/></svg>