<svg xmlns="http://www.w3.org/2000/svg" width="32" height="32" viewBox="0 0 32 32"><path d="M21.1 12.867l-.463.462c.367.578.482 1.304.23 1.997a2.284 2.284 0 0 1-2.912 1.377 2.225 2.225 0 0 1-.463-.231l-1.482 1.483-1.293-1.305a2.33 2.33 0 0 1-3.238-3.237l-.557-.557-.105.179a6.076 6.076 0 0 0-.894 3.165c-.011 3.354 2.723 6.098 6.076 6.098h.011c3.354 0 6.077-2.723 6.088-6.077a6.14 6.14 0 0 0-.884-3.165l-.114-.189z"/><path d="M12.163 14.097a1.26 1.26 0 0 0-.252.757c0 .683.557 1.24 1.241 1.24.275.001.542-.091.757-.263l-1.746-1.734zm6.087 1.629a1.244 1.244 0 0 0 1.725-1.724l-1.725 1.724zm-2.218 1.303l-5.025-5.046.2-.21a6.486 6.486 0 0 1 4.751-2.05h.01c1.841 0 3.606.789 4.837 2.155l.188.21-4.961 4.941zm-4.205-5.046l4.205 4.215 4.151-4.131a5.958 5.958 0 0 0-4.205-1.755h-.011a5.89 5.89 0 0 0-4.14 1.671zm-1.336 8.294l-.588-.041c-2.502-.158-5.95-.778-8.179-2.786C.347 16.22.084 15.053.074 15L0 14.643h9.104l-.053.336a6.941 6.941 0 0 0 1.104 4.803l.336.495zm11.017 0l.326-.494a6.89 6.89 0 0 0 1.168-3.857c0-.315-.021-.642-.063-.946l-.043-.336H32l-.074.356c-.01.053-.273 1.219-1.639 2.449-2.229 2.009-5.688 2.629-8.189 2.787l-.59.041z"/></svg>