<svg xmlns="http://www.w3.org/2000/svg" width="32" height="32" viewBox="0 0 32 32"><path d="M15.955 0L2.115 8v16l13.84 8 13.93-8V8l-13.93-8zm12.656 23.266l-12.656 7.301-12.684-7.301V8.663l12.684-7.292 12.656 7.292v14.603z"/><path d="M12.467 16.09l-3.24-2.061-3.662 2.724 5 8.672h1.992l2.361-2.204v-1.093l-2.451-2.348v-3.69zm7.109 0v3.69l-2.441 2.338.01 1.111 2.359 2.168h1.967l4.965-8.645-3.654-2.751-3.206 2.089zM9.273 12.129l13.508.01-1.32-5.563H10.529l-1.256 5.553z"/><path d="M18.379 15.822l1.166-3.109h-7.09l1.193 3.108-.367 3.466 5.438-.008-.34-3.457z"/></svg>