<svg xmlns="http://www.w3.org/2000/svg" width="32" height="32" viewBox="0 0 32 32"><path d="M30.055 8.381c-.416-.81-1.098-1.772-2.131-2.212L18.036.478S17.146-.001 16 0c-1.146-.001-2.036.478-2.036.478L4.078 6.169c-1.034.44-1.716 1.402-2.131 2.212-.146.315-.528 1.27-.528 2.654v9.93c0 1.385.382 2.34.528 2.654.415.809 1.097 1.771 2.131 2.212l9.887 5.69s.89.479 2.036.479c1.146.001 2.036-.479 2.036-.479l9.888-5.69c1.033-.44 1.716-1.403 2.132-2.212.146-.314.526-1.271.526-2.654v-9.93c-.001-1.384-.383-2.339-.528-2.654zM23.823 16v4.422L16 25.012l-7.823-4.59v-8.844L16 6.988l7.823 4.589V16z"/><path d="M16.5 15.75v8.031l6.613-4.016V12.12L16.5 15.75z"/></svg>