<svg xmlns="http://www.w3.org/2000/svg" width="32" height="32" viewBox="0 0 32 32"><path d="M16.01 31.971c.068-.047.157-.088.218-.129a31.138 31.138 0 0 0 5.84-4.424c.107-.112.2-.236.279-.369.108-.217.244-.463.354-.68.844-1.764 1.021-3.566.456-5.445a7.45 7.45 0 0 0-8.107-5.269 7.49 7.49 0 0 0-2.804.936c-1.682.937-3.465 1.332-5.364 1.154a9.042 9.042 0 0 1-2.695-.693 9.428 9.428 0 0 1-1.899-1.134c-.041-.044-.088-.064-.17-.109.02.086.041.13.061.174a30.926 30.926 0 0 0 2.791 5.466 32.644 32.644 0 0 0 4.118 5.188 32.066 32.066 0 0 0 5.092 4.228c.809.514 1.591.996 1.83 1.106"/><path d="M24.813 24.455a.471.471 0 0 0 .176-.176 36.936 36.936 0 0 0 1.894-2.613 31.773 31.773 0 0 0 4.397-10.585 29.53 29.53 0 0 0 .592-3.901c.087-.892.128-1.784.128-2.679 0-.065 0-.13-.021-.174a1.741 1.741 0 0 1-.237-.153 27.986 27.986 0 0 0-2.117-1.089c-1.042-.48-2.09-.936-3.179-1.263-1.328-.456-2.655-.5-4.03-.173-3.853.936-6.317 4.704-5.597 8.604.41 2.154 1.566 3.832 3.418 5.01.13.085.259.153.367.238a8.718 8.718 0 0 1 3.187 3.356c.804 1.459 1.149 3.047 1.063 4.727.025.238-.022.545-.041.871"/><path d="M0 4.284v.218c0 1.242.088 2.46.218 3.683.129 1.109.327 2.198.565 3.287.048.197.109.371.197.545a7.48 7.48 0 0 0 8.475 4.139c2.634-.589 4.792-2.635 5.534-5.248.197-.719.259-1.46.306-2.202.021-.5.062-.98.15-1.457A8.86 8.86 0 0 1 20.762.69a3.31 3.31 0 0 1 .477-.173c.021 0 .068-.021.048-.044-.437-.153-3.05-.412-4.622-.436a31.752 31.752 0 0 0-9.891 1.351C4.404 2.061 2.157 3.041 0 4.284"/></svg>