<svg xmlns="http://www.w3.org/2000/svg" width="32" height="32" viewBox="0 0 32 32"><path d="M7.743 16.516c-4.272 0-7.735 3.467-7.735 7.742C.008 28.534 3.471 32 7.743 32s7.735-3.466 7.735-7.742a7.737 7.737 0 0 0-7.735-7.742zm0 13.142a5.397 5.397 0 0 1 .001-10.794 5.396 5.396 0 0 1 5.394 5.396 5.41 5.41 0 0 1-5.395 5.398zM24.264 0a7.74 7.74 0 0 0-7.736 7.742 7.74 7.74 0 0 0 7.736 7.742c4.271 0 7.734-3.466 7.734-7.742S28.535 0 24.264 0zm0 13.143a5.395 5.395 0 0 1-5.394-5.397 5.396 5.396 0 0 1 5.394-5.398 5.395 5.395 0 0 1 5.393 5.398 5.408 5.408 0 0 1-5.393 5.397zM7.743 0a7.746 7.746 0 0 0-3.014 14.88 7.734 7.734 0 0 0 9.401-2.767 7.75 7.75 0 0 0-.846-9.772h2.192V0H7.743zm5.394 7.742a5.397 5.397 0 0 1-5.394 5.397 5.397 5.397 0 0 1 0-10.794 5.405 5.405 0 0 1 5.396 5.397h-.002z"/></svg>