<svg xmlns="http://www.w3.org/2000/svg" width="32" height="32" viewBox="0 0 32 32"><path d="M30.203 9.285c-.025 1.002-.46 1.75-1.301 2.253-.154.093-.209.187-.209.363.007 2.735.006 5.47.002 8.205 0 .164.041.264.191.351.973.562 1.463 1.597 1.288 2.687-.167 1.043-1.001 1.899-2.081 2.105a2.446 2.446 0 0 1-1.781-.313c-.168-.104-.285-.086-.441.006-2.352 1.36-4.705 2.72-7.063 4.072-.16.094-.222.194-.221.383.002 1.315-1.014 2.461-2.282 2.588-1.351.137-2.546-.713-2.838-2.023a3.2 3.2 0 0 1-.064-.618c-.003-.14-.042-.226-.167-.298-2.389-1.373-4.775-2.752-7.162-4.131-.129-.075-.23-.076-.361.003-1.559.938-3.546.039-3.877-1.714-.208-1.107.242-2.143 1.233-2.727.157-.093.228-.187.227-.377-.007-2.735-.006-5.471-.001-8.206 0-.165-.042-.262-.193-.349-.994-.578-1.462-1.582-1.271-2.709.19-1.12 1.056-1.942 2.184-2.103a2.468 2.468 0 0 1 1.71.359c.122.078.212.075.335.004 2.379-1.376 4.76-2.749 7.142-4.119.144-.083.201-.178.201-.348C13.407 1.123 14.598-.03 16.105 0c1.176.023 2.275.994 2.442 2.154.016.106.039.172.039.319 0 .322.118.458.369.601 2.313 1.323 4.617 2.656 6.921 3.992.158.092.272.096.438.002 1.563-.893 3.461-.037 3.843 1.729.036.164.034.338.046.488zM9.802 18.667c-.024.021-.04.038-.06.048-1.297.75-2.593 1.501-3.895 2.242-.072.04-.212.031-.285-.012-.344-.209-.71-.346-1.111-.357-1.334-.033-2.145 1.057-2.19 2.002-.053 1.109.786 2.244 2.143 2.234 1.189-.01 2.095-.963 2.083-2.153-.002-.212.061-.333.247-.438 1.381-.787 2.76-1.582 4.134-2.383.133-.076.24-.09.385-.021a3.706 3.706 0 0 0 2.659.213.499.499 0 0 1 .302.039c.269.114.526.26.796.369.154.063.206.146.206.311-.005 2.155-.004 4.312 0 6.466 0 .152-.048.239-.187.307-.726.35-1.274 1.254-1.125 2.22.174 1.122 1.327 1.97 2.44 1.753.98-.191 1.624-.861 1.763-1.891.093-.699-.244-1.621-1.142-2.082-.122-.063-.188-.131-.188-.281.005-2.094.005-4.188 0-6.279 0-.188.086-.226.248-.254.431-.076.861-.158 1.281-.277.19-.053.342-.061.525.021.922.396 1.818.328 2.678-.19.122-.072.211-.076.333-.004 1.136.659 2.271 1.317 3.412 1.965.185.104.257.221.25.438a2.111 2.111 0 0 0 2.333 2.14c1.251-.133 2.137-1.336 1.848-2.554-.349-1.458-1.929-2.116-3.205-1.327-.133.082-.23.104-.375.021a307.35 307.35 0 0 0-3.248-1.876c-.16-.092-.183-.176-.131-.35.328-1.104.104-2.086-.687-2.933-.155-.166-.88-1.323-.981-1.537-.078-.169-.045-.259.115-.351 1.646-.944 3.294-1.893 4.936-2.845.134-.077.224-.078.354.009a2.03 2.03 0 0 0 1.525.314 2.109 2.109 0 0 0 1.734-2.277c-.104-1.229-1.308-2.147-2.512-1.88-1.057.234-1.719 1.059-1.707 2.144.002.185-.05.29-.215.385a797.848 797.848 0 0 0-4.994 2.883c-.15.087-.232.069-.354-.047-.782-.754-1.725-1.178-2.799-1.313-.363-.045-.363-.043-.363-.418 0-1.962.005-3.925-.006-5.887-.002-.274.063-.433.318-.58.92-.529 1.271-1.667.85-2.637C17.516.778 16.431.255 15.414.565c-.926.282-1.442.936-1.533 1.888-.07.734.278 1.55 1.116 2.008.128.07.218.132.218.309-.006 2.163-.006 4.327-.001 6.49 0 .172-.078.229-.218.301-.418.211-.868.395-1.223.689-.41.338-.793.534-1.364.534-.056-.002-.092.003-.149.002-.142-.003-.3-.009-.416-.075-1.683-.96-3.358-1.936-5.043-2.893-.238-.142-.354-.288-.314-.566.016-.11-.018-.229-.036-.342a2.084 2.084 0 0 0-2.402-1.703c-1.2.198-1.962 1.284-1.765 2.447.253 1.485 1.947 2.236 3.226 1.424.145-.091.244-.099.392-.012 1.267.739 2.539 1.469 3.81 2.202l.651.378c-1.459 1.546-1.623 3.208-.561 5.021z"/><path d="M13.312 13.669c.334.029.5-.083.745-.31 1.054-.979 2.296-1.282 3.662-.829 1.342.446 2.174 1.399 2.449 2.798.055.274.161.439.406.578.699.398 1.103 1.261.964 1.978-.179.931-.789 1.575-1.649 1.712-.461.073-.916.021-1.32-.228-.182-.112-.323-.101-.512-.021-1.199.504-2.362.418-3.467-.275a.524.524 0 0 0-.495-.057c-1.557.51-3.176-.375-3.571-1.927-.455-1.779.965-3.5 2.788-3.419zm13.713 9.042c0-.35.25-.602.593-.602a.62.62 0 0 1 .614.598c.004.311-.297.609-.609.609a.594.594 0 0 1-.598-.594v-.011zM15.394 2.591a.593.593 0 0 1 .588-.598h.016c.34 0 .602.26.604.598a.618.618 0 0 1-.603.608.624.624 0 0 1-.605-.608zM4.968 22.713a.594.594 0 0 1-.585.604h-.014a.642.642 0 0 1-.607-.612c-.001-.315.287-.595.617-.595.341-.001.59.255.589.603zm11.036 6.107c.34.003.598.262.596.598a.584.584 0 0 1-.583.584h-.024c-.343-.002-.603-.262-.599-.596s.269-.588.61-.586zM4.385 9.887a.6.6 0 0 1-.624-.575v-.005a.597.597 0 0 1 .593-.601h.009c.354-.005.6.231.605.58.005.35-.235.598-.583.601zm23.224.001c-.348-.002-.588-.25-.584-.601.002-.348.25-.585.604-.581a.598.598 0 0 1 .602.596v.004a.6.6 0 0 1-.617.582h-.005z"/></svg>