<svg xmlns="http://www.w3.org/2000/svg" width="32" height="32" viewBox="0 0 32 32"><path d="M11.132 6.087H4.703L.001 10.788v6.334l4.695 4.697h6.592l11.311-11.311h2.845l2.124 2.123v2.707l-2.063 2.063h-3.197l-1.223-1.221a.524.524 0 0 0-.74-.011l-.002.001h-.002l-2.767 2.766v6.459c0 .291.236.527.527.527h3.375a.527.527 0 0 0 .526-.523l.004-2.656.002-.002c0-.502.406-.906.908-.906h4.424l4.658-4.658v-6.379l-4.722-4.722h-6.517l-11.31 11.31h-2.92L4.43 15.287v-2.663l2.104-2.104h2.755l1.478 1.472a.526.526 0 0 0 .776-.017l2.365-2.357v-.003a.529.529 0 0 0 .004-.741l-2.78-2.787z"/></svg>