<svg xmlns="http://www.w3.org/2000/svg" width="32" height="32" viewBox="0 0 32 32"><ellipse cx="15.758" cy="27.086" rx="5.029" ry="4.916"/><ellipse opacity=".8" cx="26.542" cy="21.775" rx="4.582" ry="4.479"/><ellipse opacity=".4" cx="21.177" cy="2.821" rx="2.888" ry="2.821"/><ellipse opacity=".6" cx="3.539" cy="10.758" rx="3.539" ry="3.458"/><path d="M28.273 7.117a3.732 3.732 0 0 0-3.354 2.056c-2.494 1.958-4.857 0-4.857 0a5.858 5.858 0 0 0-3.896-1.704h-.014L16 7.465c-.763-.035-3.826-.381-2.708-3.736.103-.292.156-.599.155-.908 0-1.538-1.275-2.785-2.85-2.785-1.574 0-2.85 1.247-2.85 2.785 0 1.251.845 2.31 2.007 2.661.81.324 3.083 1.521 1.481 4.279a5.988 5.988 0 0 0-.416.632l-.002.004a5.562 5.562 0 0 0-.704 3.186c.001 1.149-.331 4.13-3.84 3.819a4.648 4.648 0 0 0-.872-.082c-2.517 0-4.558 1.994-4.558 4.455 0 2.459 2.041 4.453 4.558 4.453 2.518 0 4.559-1.994 4.559-4.453 0-.17-.011-.336-.029-.5 0 0 .165-3.101 3.517-2.986v-.001a5.89 5.89 0 0 0 2.458.532c2.599 0 4.8-1.668 5.542-3.967h.001c2.003-2.42 4.328-1.393 4.328-1.393a3.758 3.758 0 0 0 2.496.938c2.058 0 3.726-1.63 3.726-3.64.001-2.011-1.667-3.641-3.726-3.641z"/></svg>