<?xml version="1.0" encoding="utf-8"?>
<!-- Generator: Adobe Illustrator 16.0.0, SVG Export Plug-In . SVG Version: 6.00 Build 0)  -->
<!DOCTYPE svg PUBLIC "-//W3C//DTD SVG 1.1//EN" "http://www.w3.org/Graphics/SVG/1.1/DTD/svg11.dtd">
<svg version="1.1" id="Layer_1" xmlns="http://www.w3.org/2000/svg" xmlns:xlink="http://www.w3.org/1999/xlink" x="0px" y="0px"
	 width="132.79px" height="40px" viewBox="48.394 0 132.79 40" enable-background="new 48.394 0 132.79 40" xml:space="preserve">
<g id="Text_1_">
	<path fill="#15171D" d="M48.393,36h5.996V20.138c0-0.574,0.203-1.065,0.61-1.473c0.413-0.413,0.903-0.617,1.472-0.617h6.983v-5.995
		h-7.586c-2.047,0-3.798,0.739-5.267,2.207c-1.468,1.468-2.208,3.219-2.208,5.267L48.393,36L48.393,36z"/>
	<g>
		<path fill="#15171D" d="M175.189,4.007v8.047h-10.477c-2.047,0-3.801,0.736-5.267,2.207c-1.473,1.467-2.207,3.219-2.207,5.267
			v8.982c0,2.057,0.736,3.822,2.207,5.301c1.468,1.459,3.22,2.189,5.267,2.189h16.471v-8.047V12.054V4.007H175.189z M175.189,27.953
			v2.051h-9.873c-0.567,0-1.059-0.203-1.471-0.609c-0.406-0.412-0.611-0.91-0.611-1.492v-7.771c0-0.567,0.203-1.06,0.611-1.473
			c0.412-0.406,0.9-0.61,1.471-0.61h9.873V27.953z"/>
		<polygon fill="#15171D" points="154.738,36 148.742,36 148.742,12.054 154.738,12.054 		"/>
		<circle fill="#ED1C24" cx="151.742" cy="6.331" r="3.331"/>
	</g>
	<path fill="#15171D" d="M134.416,4.006v8.047h-10.479c-2.047,0-3.8,0.736-5.266,2.207c-1.473,1.467-2.207,3.219-2.207,5.267v8.981
		c0,2.059,0.736,3.822,2.207,5.303c1.467,1.459,3.219,2.189,5.266,2.189h16.473v-8.047V12.054V4.006H134.416z M134.416,27.953v2.051
		h-9.873c-0.57,0-1.061-0.203-1.473-0.609c-0.405-0.412-0.609-0.91-0.609-1.492v-7.771c0-0.567,0.203-1.06,0.609-1.473
		c0.412-0.406,0.901-0.61,1.473-0.61h9.873V27.953z"/>
	<path fill="#15171D" d="M71.787,29.459c-0.365-0.359-0.544-0.783-0.544-1.262v-1.783H82.3c1.879,0,3.489-0.723,4.829-2.172
		c1.352-1.465,2.029-3.135,2.029-5.021c0-1.867-0.679-3.53-2.035-4.995c-1.341-1.448-2.949-2.172-4.835-2.172h-9.563
		c-2.053,0-3.817,0.736-5.29,2.207c-1.46,1.467-2.189,3.22-2.189,5.265v8.981c0,2.035,0.73,3.802,2.196,5.304
		C68.945,35.27,70.716,36,72.751,36h14.952v-5.996H73.05C72.57,30.004,72.145,29.826,71.787,29.459z M71.243,19.832
		c0-0.479,0.178-0.89,0.544-1.238c0.357-0.365,0.776-0.545,1.256-0.545h8.372c0.521,0,0.944,0.167,1.269,0.497
		c0.317,0.335,0.479,0.766,0.479,1.287c0,0.526-0.162,0.962-0.479,1.298c-0.324,0.34-0.748,0.508-1.269,0.508H71.243V19.832z"/>
	<path fill="#15171D" d="M108.807,4.006v8.047l-10.476,0.001c-2.047,0-3.799,0.736-5.266,2.207c-1.472,1.467-2.209,3.22-2.209,5.265
		v8.981c0,2.06,0.737,3.822,2.209,5.304C94.531,35.27,96.284,36,98.331,36h16.471v-8.047V12.054V4.006H108.807z M108.807,27.953
		v2.049h-9.873c-0.568,0-1.06-0.203-1.473-0.609c-0.406-0.41-0.609-0.908-0.609-1.49v-7.771c0-0.567,0.202-1.06,0.609-1.473
		c0.414-0.406,0.904-0.61,1.473-0.61h9.873V27.953z"/>
</g>
</svg>
