<svg xmlns="http://www.w3.org/2000/svg" width="16" height="16" viewBox="0 0 16 16"><path d="M6.407 14.492v-.002l-.002-.005-1.144-2.417 9.819-8.645.225-3.075-3.076.224-8.644 9.819-2.418-1.144-.005-.001v-.001.001a.133.133 0 0 0-.145.029l-.193.193-.203.203-.193.193a.136.136 0 0 0 .001.191l1.832 1.831L.04 14.107a.136.136 0 0 0 0 .192l.657.657.657.657a.136.136 0 0 0 .192-.002l2.221-2.22 1.832 1.83a.136.136 0 0 0 .192.002l.192-.193.204-.203.192-.192a.131.131 0 0 0 .028-.143z"/><path d="M5.127 7.126l2.207-2.508L3.771.571.696.347.92 3.423zM13.74 11.886l1.831-1.832a.137.137 0 0 0 .001-.192l-.192-.192-.203-.204-.193-.191a.13.13 0 0 0-.144-.03h-.001l-.006.002-2.417 1.144-1.631-1.852-2.027 1.785 1.981 1.743-1.144 2.417-.001.007a.132.132 0 0 0 .028.145l.193.193.203.203.192.192a.136.136 0 0 0 .191-.001l1.831-1.832 2.221 2.222c.055.053.14.053.193 0l.656-.657.657-.656a.137.137 0 0 0-.001-.192l-2.218-2.222z"/></svg>