<svg xmlns="http://www.w3.org/2000/svg" width="16" height="16" viewBox="0 0 16 16"><path d="M9.924 11.487A3.91 3.91 0 0 1 8 12a3.949 3.949 0 0 1-2.654-1.03c.451-.021.9-.053 1.345-.113 1.194-.163 1.059-.918.62-1.744a24.29 24.29 0 0 0-1.542-2.549C5.314 5.921 4.805 5 3.818 5c-.903 0-1.378.767-1.806 1.364a25.442 25.442 0 0 0-1.681 2.75c-.371.688-.653 1.533.434 1.716.669.113 1.356.148 2.042.161A5.99 5.99 0 0 0 8 14a5.956 5.956 0 0 0 3.971-1.52c-.901-.063-1.565-.499-2.047-.993zM15.234 5.169c-.669-.113-1.356-.148-2.041-.161A5.997 5.997 0 0 0 8 2a5.956 5.956 0 0 0-3.972 1.521c.901.062 1.565.499 2.048.993A3.91 3.91 0 0 1 8 4a3.97 3.97 0 0 1 2.654 1.03c-.45.02-.899.052-1.344.113-1.194.163-1.059.919-.62 1.745.466.873.966 1.73 1.542 2.547.453.645.963 1.566 1.949 1.566.904 0 1.379-.768 1.807-1.365a25.45 25.45 0 0 0 1.682-2.75c.369-.688.652-1.534-.436-1.717z"/></svg>