<svg width="279" height="253" viewBox="0 0 279 253" fill="none" xmlns="http://www.w3.org/2000/svg">
<path opacity="0.04" d="M5.83926 135.483C6.21707 130.276 7.91678 125.242 10.9322 120.98C16.994 112.413 31.2008 100.61 61.6765 107.6C105.118 117.564 126.326 88.6294 136.021 78.1517C159.291 53.006 215.093 6.5954 251.314 35.1769C298.563 72.4571 251.778 132.05 251.778 132.05C251.778 132.05 209.015 197.632 101.491 191.367C11.8878 186.146 4.68901 151.344 5.83926 135.483" fill="#094170"/>
<path fill-rule="evenodd" clip-rule="evenodd" d="M156.146 116.847C159.179 114.69 161.959 113.104 165.812 112.99C168.205 112.919 170.449 113.92 172.729 114.492C174.734 114.994 176.265 116.604 178.426 116.9C181.266 117.289 184.183 115.543 185.46 112.977C186.737 110.41 186.459 107.216 185.03 104.731C183.987 102.917 183.027 101.563 184.199 99.5405C184.455 99.0999 184.776 98.6916 184.951 98.2135C185.116 97.7621 185.141 97.2715 185.122 96.7911C185.016 94.1708 183.031 92.206 181.708 90.0417C181.568 89.8121 178.954 88.6391 178.426 85.6331C178.015 83.2928 175.632 76.594 172.729 74.6047C169.826 72.6155 169.284 72.3295 168.289 71.7668C166.553 70.7852 164.66 70.7434 162.732 71.0137C157.24 71.7839 150.996 75.7763 149.723 81.522C148.86 85.4169 150.273 84.9447 146.415 87.6713C145.253 88.4925 143.784 88.9812 142.992 90.1629C141.308 92.6749 143.782 96.3956 142.242 98.9982C141.899 99.5787 141.385 100.035 140.918 100.521C138.452 103.088 137.18 106.757 137.526 110.3C137.611 111.164 137.793 112.036 138.22 112.792C138.806 113.831 139.8 114.566 140.771 115.258C142.224 116.295 143.707 117.318 145.357 118.001L145.404 118.021C148.821 119.415 153.129 118.994 156.146 116.847Z" fill="#2B292D"/>
<path fill-rule="evenodd" clip-rule="evenodd" d="M152.641 98.9521C152.427 100.373 152.589 101.833 153.212 103.13C154.893 106.628 159.056 107.31 162.565 107.447C163.865 107.497 165.171 107.432 166.457 107.24C167.604 107.07 168.625 107.244 169.783 107.217C172.072 107.165 174.349 106.489 176.283 105.261C177.224 104.663 178.11 103.909 178.593 102.904C179.257 101.523 179.063 99.8911 178.712 98.3995C178.51 97.5388 178.255 96.6794 177.813 95.9132C177.34 95.0937 176.661 94.3973 176.266 93.5366C175.525 91.9195 176.135 90.0292 175.475 88.4428C174.96 87.2005 173.662 85.7984 172.586 85.0217C171.121 83.9651 169.231 83.6312 167.43 83.754C165.628 83.8765 163.884 84.4198 162.167 84.9812C160.815 85.4234 159.653 85.1498 158.662 86.2663C157.876 87.1514 158.15 88.5959 157.899 89.6683C157.054 93.2748 153.21 95.178 152.641 98.9521" fill="#2B292D"/>
<path fill-rule="evenodd" clip-rule="evenodd" d="M172.547 106.151C171.634 107.41 167.179 108.049 165.138 108.473C162.343 109.059 159.14 108.506 157.287 105.819C156.245 104.316 155.319 103.291 154.538 102.594C155.391 102.399 156.093 102.104 156.53 101.543C157.915 99.7567 158.471 95.4326 158.694 92.4316C158.827 90.6294 158.841 89.3023 158.841 89.3023L160.277 88.6629L165.916 95.1196C165.916 95.1196 165.498 98.0653 166.195 99.0487C166.738 99.814 169.174 100.326 170.68 100.55C171.043 101.687 174.006 104.144 172.547 106.151Z" fill="#F8D2AA"/>
<path fill-rule="evenodd" clip-rule="evenodd" d="M168.83 97.3323C167.184 97.7722 166.857 97.4686 165.795 97.0727C165.64 97.0156 165.483 96.9553 165.325 96.8923C164.025 96.3873 162.655 95.7735 162.237 95.5305C161.419 95.0516 161.14 92.1396 161.014 91.2856C160.896 90.4342 160.514 90.7345 159.896 90.9463C159.697 91.0131 159.266 90.7789 158.813 90.3763C157.849 89.5193 156.782 87.8854 157.623 86.718C158.865 85.0004 159.568 85.8524 159.568 85.8524C159.928 83.7565 161.671 80.0832 164.011 77.7648C165.452 76.3342 167.12 75.4218 168.83 75.7133C173.309 76.4776 174.996 82.195 173.791 87.8192C172.587 93.4443 170.477 96.8923 168.83 97.3323Z" fill="#F8D2AA"/>
<path fill-rule="evenodd" clip-rule="evenodd" d="M176.058 88.3214C176.37 87.9226 176.562 87.3926 176.62 86.8674C176.78 85.1038 176.336 83.2841 175.896 81.5245C175.651 80.543 175.402 79.548 174.955 78.6582C174.469 77.6872 173.766 76.8823 172.999 76.2278C170.783 74.338 167.949 73.7409 165.509 74.5046C164.528 74.8115 163.905 75.4951 163.122 76.1294C162.357 76.7487 161.401 77.2028 160.568 77.7218C159.608 78.3208 158.621 78.9448 157.964 79.9133C157.483 80.6212 157.206 81.4795 157.065 82.3572C156.894 83.4096 157.088 84.4989 157.416 85.5133C157.686 86.3493 157.982 87.2403 158.497 87.9649C158.978 88.6436 159.8 88.9789 160.523 89.2146C160.416 89.1798 160.236 87.9288 160.193 87.7394C159.947 86.6532 159.763 85.5231 159.852 84.4148C159.934 83.332 160.395 82.5823 161.034 81.7969C161.29 81.4818 161.544 81.1602 161.735 80.7912C161.831 80.6069 162.24 79.7644 162.1 79.5603C162.763 80.5293 163.68 81.4735 164.685 81.9875C166.594 82.9642 168.605 83.5133 170.612 83.9101C170.759 83.9395 170.908 83.9685 171.056 83.9996C171.609 84.1153 172.161 84.2637 172.665 84.5914C173.79 85.3228 174.16 86.7357 174.399 88.0297C174.425 88.1715 174.453 88.3165 174.523 88.4413C174.851 89.0316 175.752 88.7121 176.058 88.3214" fill="#2B292D"/>
<path fill-rule="evenodd" clip-rule="evenodd" d="M157.807 89.1748C157.807 89.1748 154.462 86.2495 154.485 84.9452C154.509 83.6408 158.63 75.4667 164.305 72.8111C169.978 70.1559 173.93 75.1176 175.273 78.5357C176.617 81.9538 176.007 83.6876 176.007 83.6876C176.007 83.6876 174.835 78.5129 169.69 75.9326C169.134 75.6535 168.582 75.5513 168.036 75.5886C163.529 75.9042 159.568 85.8524 159.568 85.8524C159.568 85.8524 156.863 86.798 157.807 89.1748" fill="#EC1C23"/>
<path fill-rule="evenodd" clip-rule="evenodd" d="M168.993 72.1008C168.993 72.1008 169.028 71.9604 169.128 71.7366C169.423 71.0644 170.291 69.6336 172.504 68.9404C175.455 68.0166 175.455 68.0166 175.455 68.0166C175.455 68.0166 173.163 72.6108 171.047 74.0291C168.931 75.4483 168.931 75.4483 168.931 75.4483L168.993 72.1008" fill="#D62024"/>
<path fill-rule="evenodd" clip-rule="evenodd" d="M169.859 63.005C169.859 63.005 166.409 65.2987 166.635 68.5795C166.861 71.8611 168.137 75.3245 168.137 75.3245C168.137 75.3245 172.323 68.2474 169.859 63.005" fill="#D62024"/>
<path d="M148 252.552C77.3075 252.552 20 250.762 20 248.552C20 246.343 77.3075 244.552 148 244.552C218.692 244.552 276 246.343 276 248.552C276 250.762 218.692 252.552 148 252.552Z" fill="#094170"/>
<path d="M189.55 167.28C167.29 166.82 105.9 163.14 100.8 170.15C106.01 177.03 169.36 173.74 193.39 173.15V171.21C193.391 169.074 191.685 167.329 189.55 167.28Z" fill="#094170"/>
<path fill-rule="evenodd" clip-rule="evenodd" d="M174.295 164.195C176.829 164.285 179.478 164.378 180.457 164.412C184.405 164.547 187.221 164.631 189.555 164.68C191.827 164.721 193.646 166.578 193.64 168.851L193.64 171.21H193.14C193.14 169.213 191.549 167.581 189.554 167.53C187.217 167.482 184.39 167.398 180.407 167.263C179.465 167.231 176.915 167.142 174.419 167.055C172.158 166.976 169.943 166.899 169.009 166.867C161.129 166.599 155.001 166.42 149.009 166.302C120.473 165.737 103.549 166.816 101.012 170.297L100.821 170.559L100.616 170.308C100.316 169.939 100.148 169.48 100.14 169.004C100.14 164.192 117.326 162.813 149.067 163.441C155.081 163.56 161.222 163.74 169.156 164.015C170.031 164.045 172.12 164.118 174.295 164.195ZM149.057 163.941C118.114 163.328 100.64 164.731 100.64 169C100.644 169.257 100.711 169.509 100.832 169.735C104.138 166.248 120.808 165.243 149.019 165.802C155.014 165.921 161.144 166.099 169.026 166.368C169.96 166.399 172.176 166.477 174.437 166.556C176.932 166.643 179.483 166.731 180.424 166.763C184.405 166.898 187.23 166.982 189.565 167.03C191.116 167.07 192.45 167.949 193.14 169.225V168.85C193.145 166.85 191.545 165.216 189.546 165.18L189.545 165.18C187.208 165.131 184.39 165.047 180.44 164.911C179.46 164.878 176.811 164.784 174.277 164.695C172.102 164.618 170.013 164.544 169.139 164.514C161.207 164.24 155.068 164.06 149.057 163.941Z" fill="#094170"/>
<path fill-rule="evenodd" clip-rule="evenodd" d="M199.34 239.2C199.341 242.456 196.745 245.119 193.49 245.2C167.77 245.84 100.38 249.47 100.38 241.08V169C100.38 177.36 167.29 173.79 193.19 173.13C194.807 173.09 196.372 173.704 197.53 174.833C198.688 175.963 199.34 177.512 199.34 179.13V239.2Z" fill="white" stroke="#094170" stroke-width="0.5"/>
<path fill-rule="evenodd" clip-rule="evenodd" d="M184.681 245.715C188.523 245.588 191.196 245.507 193.496 245.45C196.887 245.365 199.591 242.592 199.59 239.2V179.13C199.59 177.445 198.91 175.831 197.705 174.654C196.498 173.478 194.868 172.838 193.184 172.88C190.905 172.938 188.276 173.019 184.483 173.144C184.386 173.147 183.948 173.162 183.297 173.184C180.967 173.262 175.907 173.431 174.029 173.492C165.322 173.775 158.487 173.962 151.815 174.079C119.217 174.651 100.63 173.224 100.63 169H100.13V241.08C100.13 245.845 118.383 247.245 151.846 246.656C158.508 246.538 165.332 246.352 174.029 246.07C175.777 246.013 180.265 245.863 182.84 245.777C183.799 245.745 184.493 245.721 184.681 245.715ZM151.837 246.156C119.22 246.73 100.63 245.305 100.63 241.08V170.278C103.767 174.015 121.585 175.11 151.824 174.579C158.499 174.461 165.336 174.275 174.045 173.992C175.925 173.931 180.987 173.761 183.316 173.683C183.966 173.662 184.403 173.647 184.499 173.644C188.291 173.519 190.92 173.438 193.196 173.38C194.746 173.341 196.246 173.93 197.355 175.012C198.465 176.095 199.09 177.579 199.09 179.13V239.2C199.091 242.32 196.603 244.872 193.484 244.95C191.182 245.007 188.508 245.089 184.664 245.216C184.476 245.222 183.783 245.245 182.824 245.277C180.249 245.363 175.761 245.513 174.013 245.57C165.318 245.853 158.497 246.039 151.837 246.156Z" fill="#094170"/>
<path fill-rule="evenodd" clip-rule="evenodd" d="M199.34 239.2C199.341 242.456 196.745 245.119 193.49 245.2C167.77 245.84 100.38 249.47 100.38 241.08V169C100.38 177.36 167.29 173.79 193.19 173.13C194.807 173.09 196.372 173.704 197.53 174.833C198.688 175.963 199.34 177.512 199.34 179.13V239.2Z" fill="white"/>
<path fill-rule="evenodd" clip-rule="evenodd" d="M199.34 200V200C199.34 201.105 198.445 202 197.34 202H177.69C175.481 202 173.69 203.791 173.69 206V218C173.69 220.209 175.481 222 177.69 222H199.34C200.445 222 201.34 221.105 201.34 220V202C201.34 200.895 200.445 200 199.34 200Z" fill="#029BDE"/>
<path d="M177.69 202H197.34C198.445 202 199.34 201.105 199.34 200C199.691 200.001 200.036 200.094 200.34 200.27V201C200.34 202.105 199.445 203 198.34 203H177.69C175.481 203 173.69 204.791 173.69 207V206C173.69 203.791 175.481 202 177.69 202Z" fill="#094170"/>
<path d="M187.21 212.26C187.21 214.469 185.419 216.26 183.21 216.26C181.001 216.26 179.21 214.469 179.21 212.26C179.21 210.051 181.001 208.26 183.21 208.26C185.419 208.26 187.21 210.051 187.21 212.26Z" fill="#094170"/>
<path fill-rule="evenodd" clip-rule="evenodd" d="M165.532 108.133C166.15 106.545 173.043 106.315 173.648 105.36C174.434 104.117 169.446 100.572 170.68 100.55C170.973 100.545 172.433 100.887 172.775 100.955C173.931 101.185 175.335 102.127 177.379 104.378C183.107 110.682 183.9 131.422 183.9 131.422C183.9 131.422 199.677 120.909 203.734 120.909C207.791 120.909 205.99 124.567 209.726 124.567C213.462 124.567 219.286 125.072 217.268 127.748C215.251 130.424 205.011 129.871 203.734 127.748C202.456 125.625 189.969 142.225 181.9 141.006C174.936 139.954 166.289 119.687 165.663 110.011C165.564 108.476 165.189 109.016 165.532 108.133Z" fill="#EDC79F"/>
<path d="M225.982 119.915V124.943C225.982 124.998 225.979 125.049 225.966 125.101L225.953 125.175C225.94 125.22 225.925 125.261 225.908 125.303L225.87 125.38C225.757 125.589 225.568 125.746 225.337 125.817L225.26 125.836C225.196 125.852 225.131 125.858 225.064 125.858H190.308C190.241 125.858 190.177 125.852 190.113 125.836L190.035 125.817L189.981 125.797L189.913 125.769C189.737 125.685 189.592 125.55 189.503 125.38L189.464 125.303C189.448 125.261 189.432 125.22 189.422 125.175L189.406 125.101C189.393 125.049 189.39 124.998 189.39 124.943V119.915C189.39 119.861 189.393 119.809 189.406 119.758C189.477 119.331 189.856 119 190.308 119H225.064C225.52 119 225.895 119.331 225.966 119.758C225.979 119.809 225.982 119.861 225.982 119.915" fill="#E7B910"/>
<path d="M192.587 125.101H195.674V119.758H192.587V125.101Z" fill="#FFCB0A"/>
<path d="M214.39 125.343H222.39V120H214.39V125.343Z" fill="#FFCB0A"/>
<path d="M197.548 125.101H200.632V119.758H197.548V125.101Z" fill="#FFCB0A"/>
<path d="M219.351 125.343H222.435V120H219.351V125.343Z" fill="#FFCB0A"/>
<path d="M225.966 119.758H189.406C189.477 119.331 189.856 119 190.308 119H225.064C225.52 119 225.895 119.331 225.966 119.758" fill="#E7B910"/>
<path d="M225.966 125.101L225.953 125.175C225.94 125.22 225.925 125.261 225.908 125.303L225.87 125.38C225.757 125.589 225.568 125.746 225.337 125.817L225.26 125.836C225.196 125.852 225.131 125.858 225.064 125.858H190.308C190.241 125.858 190.177 125.852 190.113 125.836L190.035 125.817L189.981 125.797L189.913 125.769C189.737 125.685 189.592 125.55 189.503 125.38L189.464 125.303C189.448 125.261 189.432 125.22 189.422 125.175L189.406 125.101H225.966" fill="#C59E0F"/>
<path fill-rule="evenodd" clip-rule="evenodd" d="M150.12 152.5C150.12 152.5 154.815 148.606 156.987 142.743C159.16 136.881 158.21 128.955 158.21 128.955C158.21 128.955 149.317 106.993 151.105 103.111C152.2 100.734 156.652 100.859 156.987 101.021C157.912 101.469 160.753 106.765 167.125 106.765C175.164 106.765 170.079 100.404 170.079 100.404L173.06 101.021C173.06 101.021 174.502 102.603 174.65 102.787C177.869 106.797 181.34 112.5 181.34 117.352C181.34 122.204 178.022 125.081 176.89 133.371C176.125 138.972 177.458 144.529 177.783 145.823C178.783 149.81 181.9 152.262 181.9 152.262L150.12 152.5Z" fill="#EC1C23"/>
<path fill-rule="evenodd" clip-rule="evenodd" d="M203.787 187.439C208.86 196.581 212.558 205.312 212.558 205.312L212.582 205.329C212.941 206.308 213.512 207.795 214.087 208.994C214.774 210.424 214.295 212.164 213.807 213.936C213.622 214.604 213.437 215.277 213.313 215.94C212.899 218.14 214.609 218.63 216.055 219.044C216.199 219.085 216.341 219.126 216.478 219.167C217.984 219.624 218.582 220.344 219.866 223.019C221.149 225.693 224.974 224.491 226.11 223.976C227.246 223.462 228.237 222.331 226.067 222.289C223.897 222.248 221.795 217.868 220.433 215.029C219.07 212.191 217.56 203.047 217.56 203.047L217.543 203.051C216.962 199.266 216.234 194.118 215.565 188.23C214.847 181.921 214.793 178.138 214.746 174.91C214.702 171.789 214.664 169.187 214.042 165.324C213.796 163.796 213.618 162.4 213.454 161.111C212.774 155.769 212.328 152.266 208.229 148.862C203.141 144.638 159.163 144.051 150.12 152.881C142.264 160.552 142.789 171.113 155.891 174.421C168.993 177.729 198.437 163.8 198.437 163.8C198.437 163.8 198.714 178.298 203.787 187.439Z" fill="#F8D2AA"/>
<path fill-rule="evenodd" clip-rule="evenodd" d="M189.505 195.213C190.898 204.03 191.026 211 191.026 211L191.1 211.093C191.124 211.737 191.162 212.403 191.223 213.013C191.378 214.592 190.333 216.062 189.269 217.561C188.867 218.126 188.463 218.695 188.119 219.275C186.978 221.201 188.417 222.246 189.634 223.13C189.756 223.218 189.875 223.305 189.99 223.391C191.248 224.335 191.564 225.216 191.856 228.168C192.147 231.12 196.153 231.299 197.396 231.204C198.64 231.109 199.958 230.385 197.933 229.604C195.908 228.823 195.431 223.988 195.121 220.855C194.985 219.471 195.242 216.92 195.571 214.503C196.166 211.785 197.467 206.082 199.486 198.53C200.945 193.071 202.147 189.883 203.172 187.163C204.163 184.532 204.99 182.34 205.724 178.956C205.987 177.743 206.297 176.551 206.598 175.393C208.003 169.98 209.214 165.317 204.597 162.804C200.329 160.481 195.527 163.409 191.492 165.869C190.467 166.494 189.492 167.089 188.587 167.56C186.567 168.611 184.299 169.875 182.134 171.083C179.417 172.597 176.862 174.021 175.16 174.822C172.705 175.978 172.728 175.992 177.313 175.992C182.277 175.992 192.657 174.162 192.657 174.162C192.657 174.162 188.112 186.396 189.505 195.213Z" fill="#EDC79F"/>
<path fill-rule="evenodd" clip-rule="evenodd" d="M183.954 169.792L185.945 175.298C185.945 175.298 181.364 175.823 179.492 175.95C172.96 176.391 164.452 176.093 162.626 175.298C159.103 173.763 183.954 169.792 183.954 169.792Z" fill="#0062AD"/>
<path fill-rule="evenodd" clip-rule="evenodd" d="M186.623 169.21C186.623 169.21 166.285 177.861 155.891 174.421C151.969 173.122 149.95 173.213 148.095 171.186C143.016 165.636 144.16 158.534 149.86 152.858C156.438 146.307 185.532 145.886 185.532 145.886C185.532 145.886 183.719 151.411 184.497 157.033C185.532 164.515 186.623 169.21 186.623 169.21Z" fill="#0289CE"/>
<path fill-rule="evenodd" clip-rule="evenodd" d="M154.659 101.653C152.336 100.574 147.852 102.329 146.986 105.407C146.215 108.144 146.11 111.642 147.414 116.767C149.53 125.088 153.727 133.62 153.324 138.878C153.136 141.331 153.037 147.548 153.324 151.767C153.699 157.293 157.585 171.74 157.585 171.74C157.585 171.74 149.583 171.558 146.248 173.6C143.911 175.029 148.88 174.971 152.69 174.729C153.629 174.67 155.132 174.623 155.294 174.729C155.413 174.808 154.369 175.013 154.072 175.131C152.961 175.573 155.446 175.647 157.585 175.553C159.711 175.46 161.472 174.537 161.763 174.202C162.62 173.217 162.21 171.74 162.21 171.74C162.21 171.74 162.553 157.748 162.62 153.985C162.761 146.152 160.305 140.456 159.904 138.089C159.471 135.536 159.904 126.58 159.904 116.01C159.904 113.003 159.498 103.902 154.659 101.653Z" fill="#F8D2AA"/>
<path d="M118.592 243.163V248.191C118.592 248.246 118.589 248.298 118.576 248.349L118.563 248.423C118.55 248.468 118.535 248.509 118.518 248.551L118.48 248.628C118.367 248.837 118.178 248.994 117.947 249.065L117.87 249.084C117.806 249.1 117.741 249.106 117.674 249.106H82.9185C82.8509 249.106 82.7867 249.1 82.7226 249.084L82.6453 249.065L82.5909 249.045L82.5233 249.017C82.3469 248.933 82.2024 248.798 82.1127 248.628L82.0738 248.551C82.0579 248.509 82.0419 248.468 82.0322 248.423L82.0163 248.349C82.0035 248.298 82 248.246 82 248.191V243.163C82 243.109 82.0035 243.057 82.0163 243.006C82.0866 242.579 82.4658 242.248 82.9185 242.248H117.674C118.13 242.248 118.505 242.579 118.576 243.006C118.589 243.057 118.592 243.109 118.592 243.163" fill="#E7B910"/>
<path d="M85.1972 248.349H88.2844V243.006H85.1972V248.349Z" fill="#FFCB0A"/>
<path d="M90.1583 248.349H93.2425V243.006H90.1583V248.349Z" fill="#FFCB0A"/>
<path d="M118.576 243.006H82.0163C82.0866 242.579 82.4658 242.248 82.9185 242.248H117.674C118.13 242.248 118.505 242.579 118.576 243.006" fill="#E7B910"/>
<path d="M118.576 248.349L118.563 248.423C118.55 248.468 118.535 248.509 118.518 248.551L118.48 248.628C118.367 248.837 118.178 248.994 117.947 249.065L117.87 249.084C117.806 249.1 117.741 249.107 117.674 249.107H82.9185C82.8509 249.107 82.7867 249.1 82.7226 249.084L82.6453 249.065L82.5909 249.046L82.5233 249.017C82.3469 248.933 82.2024 248.798 82.1127 248.628L82.0738 248.551C82.0579 248.509 82.0419 248.468 82.0322 248.423L82.0163 248.349H118.576" fill="#C59E0F"/>
<path d="M121.027 237.076V242.104C121.027 242.159 121.024 242.211 121.011 242.262L120.998 242.336C120.985 242.381 120.969 242.422 120.953 242.464L120.915 242.541C120.802 242.75 120.613 242.907 120.381 242.978L120.305 242.997C120.24 243.013 120.176 243.019 120.109 243.019H85.3532C85.2856 243.019 85.2215 243.013 85.1574 242.997L85.0801 242.978L85.0257 242.958L84.9581 242.93C84.7817 242.846 84.6372 242.711 84.5474 242.541L84.5086 242.464C84.4927 242.422 84.4767 242.381 84.467 242.336L84.4511 242.262C84.4383 242.211 84.4348 242.159 84.4348 242.104V237.076C84.4348 237.022 84.4383 236.97 84.4511 236.919C84.5214 236.492 84.9006 236.161 85.3532 236.161H120.109C120.564 236.161 120.94 236.492 121.011 236.919C121.024 236.97 121.027 237.022 121.027 237.076" fill="#E7B910"/>
<path d="M110 242.262H113.087V236.919H110V242.262Z" fill="#FFCB0A"/>
<path d="M114.961 242.262H118.045V236.919H114.961V242.262Z" fill="#FFCB0A"/>
<path d="M121.011 236.919H84.4511C84.5214 236.492 84.9006 236.161 85.3532 236.161H120.109C120.564 236.161 120.94 236.492 121.011 236.919" fill="#E7B910"/>
<path d="M121.011 242.262L120.998 242.336C120.985 242.381 120.969 242.422 120.953 242.464L120.915 242.541C120.802 242.75 120.613 242.907 120.381 242.978L120.305 242.997C120.24 243.013 120.176 243.019 120.109 243.019H85.3532C85.2856 243.019 85.2215 243.013 85.1574 242.997L85.0801 242.978L85.0257 242.958L84.9581 242.93C84.7817 242.846 84.6372 242.711 84.5474 242.541L84.5086 242.464C84.4927 242.422 84.4767 242.381 84.467 242.336L84.4511 242.262H121.011" fill="#C59E0F"/>
<path d="M118.592 230.989V236.018C118.592 236.072 118.589 236.124 118.576 236.175L118.563 236.249C118.55 236.294 118.535 236.335 118.518 236.377L118.48 236.454C118.367 236.663 118.178 236.82 117.947 236.891L117.87 236.91C117.806 236.926 117.741 236.933 117.674 236.933H82.9185C82.8509 236.933 82.7867 236.926 82.7226 236.91L82.6453 236.891L82.5909 236.872L82.5233 236.843C82.3469 236.759 82.2024 236.624 82.1127 236.454L82.0738 236.377C82.0579 236.335 82.0419 236.294 82.0322 236.249L82.0163 236.175C82.0035 236.124 82 236.072 82 236.018V230.989C82 230.935 82.0035 230.883 82.0163 230.832C82.0866 230.405 82.4658 230.074 82.9185 230.074H117.674C118.13 230.074 118.505 230.405 118.576 230.832C118.589 230.883 118.592 230.935 118.592 230.989" fill="#E7B910"/>
<path d="M85.1972 236.175H88.2844V230.832H85.1972V236.175Z" fill="#FFCB0A"/>
<path d="M90.1583 236.175H93.2425V230.832H90.1583V236.175Z" fill="#FFCB0A"/>
<path d="M118.576 230.832H82.0163C82.0866 230.405 82.4658 230.074 82.9185 230.074H117.674C118.13 230.074 118.505 230.405 118.576 230.832" fill="#E7B910"/>
<path d="M118.576 236.175L118.563 236.249C118.55 236.294 118.535 236.335 118.518 236.377L118.48 236.454C118.367 236.663 118.178 236.82 117.947 236.891L117.87 236.91C117.806 236.926 117.741 236.933 117.674 236.933H82.9185C82.8509 236.933 82.7867 236.926 82.7226 236.91L82.6453 236.891L82.5909 236.872L82.5233 236.843C82.3469 236.759 82.2024 236.624 82.1127 236.454L82.0738 236.377C82.0579 236.335 82.0419 236.294 82.0322 236.249L82.0163 236.175H118.576" fill="#C59E0F"/>
<path d="M121.027 224.902V229.931C121.027 229.985 121.024 230.037 121.011 230.088L120.998 230.162C120.985 230.207 120.969 230.248 120.953 230.29L120.915 230.367C120.802 230.576 120.613 230.733 120.381 230.804L120.305 230.823C120.24 230.839 120.176 230.846 120.109 230.846H85.3532C85.2856 230.846 85.2215 230.839 85.1574 230.823L85.0801 230.804L85.0257 230.785L84.9581 230.756C84.7817 230.672 84.6372 230.538 84.5474 230.367L84.5086 230.29C84.4927 230.248 84.4767 230.207 84.467 230.162L84.4511 230.088C84.4383 230.037 84.4348 229.985 84.4348 229.931V224.902C84.4348 224.848 84.4383 224.796 84.4511 224.745C84.5214 224.318 84.9006 223.987 85.3532 223.987H120.109C120.564 223.987 120.94 224.318 121.011 224.745C121.024 224.796 121.027 224.848 121.027 224.902" fill="#E7B910"/>
<path d="M110 230.088H113.087V224.745H110V230.088Z" fill="#FFCB0A"/>
<path d="M114.961 230.088H118.045V224.745H114.961V230.088Z" fill="#FFCB0A"/>
<path d="M121.011 224.745H84.4511C84.5214 224.318 84.9006 223.987 85.3532 223.987H120.109C120.564 223.987 120.94 224.318 121.011 224.745" fill="#E7B910"/>
<path d="M121.011 230.088L120.998 230.162C120.985 230.207 120.969 230.248 120.953 230.29L120.915 230.367C120.802 230.576 120.613 230.733 120.381 230.804L120.305 230.823C120.24 230.839 120.176 230.846 120.109 230.846H85.3532C85.2856 230.846 85.2215 230.839 85.1574 230.823L85.0801 230.804L85.0257 230.785L84.9581 230.756C84.7817 230.672 84.6372 230.538 84.5474 230.367L84.5086 230.29C84.4927 230.248 84.4767 230.207 84.467 230.162L84.4511 230.088H121.011" fill="#C59E0F"/>
<path d="M123.462 218.815V223.844C123.462 223.898 123.458 223.95 123.446 224.001L123.433 224.075C123.42 224.12 123.404 224.161 123.388 224.203L123.349 224.28C123.237 224.489 123.047 224.646 122.816 224.717L122.739 224.736C122.675 224.752 122.611 224.759 122.544 224.759H87.788C87.7204 224.759 87.6563 224.752 87.5922 224.736L87.5149 224.717L87.4605 224.698L87.3929 224.669C87.2165 224.585 87.072 224.45 86.9822 224.28L86.9434 224.203C86.9274 224.161 86.9115 224.12 86.9018 224.075L86.8859 224.001C86.873 223.95 86.8695 223.898 86.8695 223.844V218.815C86.8695 218.761 86.873 218.709 86.8859 218.658C86.9562 218.231 87.3354 217.9 87.788 217.9H122.544C122.999 217.9 123.375 218.231 123.446 218.658C123.458 218.709 123.462 218.761 123.462 218.815" fill="#E7B910"/>
<path d="M90.0667 224.001H93.154V218.658H90.0667V224.001Z" fill="#FFCB0A"/>
<path d="M95.0279 224.001H98.112V218.658H95.0279V224.001Z" fill="#FFCB0A"/>
<path d="M123.446 218.658H86.8859C86.9562 218.231 87.3354 217.9 87.788 217.9H122.544C122.999 217.9 123.375 218.231 123.446 218.658" fill="#E7B910"/>
<path d="M123.446 224.001L123.433 224.075C123.42 224.12 123.404 224.161 123.388 224.203L123.349 224.28C123.237 224.489 123.047 224.646 122.816 224.717L122.739 224.736C122.675 224.752 122.611 224.759 122.544 224.759H87.788C87.7204 224.759 87.6563 224.752 87.5922 224.736L87.5149 224.717L87.4605 224.698L87.3929 224.669C87.2165 224.585 87.072 224.451 86.9822 224.28L86.9434 224.203C86.9274 224.161 86.9115 224.12 86.9018 224.075L86.8859 224.001H123.446" fill="#C59E0F"/>
<path d="M125.896 212.728V217.757C125.896 217.811 125.893 217.863 125.88 217.914L125.868 217.988C125.855 218.033 125.839 218.075 125.823 218.116L125.784 218.193C125.672 218.402 125.482 218.559 125.251 218.63L125.174 218.649C125.11 218.665 125.046 218.672 124.978 218.672H90.2228C90.1552 218.672 90.0911 218.665 90.027 218.649L89.9497 218.63L89.8953 218.611L89.8277 218.582C89.6513 218.498 89.5067 218.364 89.417 218.193L89.3781 218.116C89.3622 218.075 89.3463 218.033 89.3366 217.988L89.3206 217.914C89.3078 217.863 89.3043 217.811 89.3043 217.757V212.728C89.3043 212.674 89.3078 212.622 89.3206 212.571C89.391 212.144 89.7702 211.813 90.2228 211.813H124.978C125.434 211.813 125.81 212.144 125.88 212.571C125.893 212.622 125.896 212.674 125.896 212.728" fill="#E7B910"/>
<path d="M114.87 217.914H117.957V212.571H114.87V217.914Z" fill="#FFCB0A"/>
<path d="M119.831 217.914H122.915V212.571H119.831V217.914Z" fill="#FFCB0A"/>
<path d="M125.88 212.571H89.3206C89.391 212.144 89.7702 211.813 90.2228 211.813H124.978C125.434 211.813 125.81 212.144 125.88 212.571" fill="#E7B910"/>
<path d="M125.88 217.914L125.868 217.988C125.855 218.033 125.839 218.075 125.823 218.116L125.784 218.193C125.672 218.402 125.482 218.559 125.251 218.63L125.174 218.649C125.11 218.665 125.046 218.672 124.978 218.672H90.2228C90.1552 218.672 90.0911 218.665 90.027 218.649L89.9497 218.63L89.8953 218.611L89.8277 218.582C89.6513 218.498 89.5067 218.364 89.417 218.193L89.3781 218.116C89.3622 218.075 89.3463 218.033 89.3366 217.988L89.3206 217.914H125.88" fill="#C59E0F"/>
<path d="M123.462 206.641V211.67C123.462 211.724 123.458 211.776 123.446 211.827L123.433 211.901C123.42 211.946 123.404 211.988 123.388 212.03L123.349 212.106C123.237 212.315 123.047 212.472 122.816 212.543L122.739 212.562C122.675 212.579 122.611 212.585 122.544 212.585H87.788C87.7204 212.585 87.6563 212.579 87.5922 212.562L87.5149 212.543L87.4605 212.524L87.3929 212.495C87.2165 212.411 87.072 212.277 86.9822 212.106L86.9434 212.03C86.9274 211.988 86.9115 211.946 86.9018 211.901L86.8859 211.827C86.873 211.776 86.8695 211.724 86.8695 211.67V206.641C86.8695 206.587 86.873 206.535 86.8859 206.484C86.9562 206.057 87.3354 205.726 87.788 205.726H122.544C122.999 205.726 123.375 206.057 123.446 206.484C123.458 206.535 123.462 206.587 123.462 206.641" fill="#E7B910"/>
<path d="M90.0667 211.827H93.154V206.484H90.0667V211.827Z" fill="#FFCB0A"/>
<path d="M95.0279 211.827H98.112V206.484H95.0279V211.827Z" fill="#FFCB0A"/>
<path d="M123.446 206.484H86.8859C86.9562 206.057 87.3354 205.726 87.788 205.726H122.544C122.999 205.726 123.375 206.057 123.446 206.484" fill="#E7B910"/>
<path d="M123.446 211.827L123.433 211.901C123.42 211.946 123.404 211.988 123.388 212.03L123.349 212.107C123.237 212.315 123.047 212.472 122.816 212.543L122.739 212.562C122.675 212.579 122.611 212.585 122.544 212.585H87.788C87.7204 212.585 87.6563 212.579 87.5922 212.562L87.5149 212.543L87.4605 212.524L87.3929 212.495C87.2165 212.411 87.072 212.277 86.9822 212.107L86.9434 212.03C86.9274 211.988 86.9115 211.946 86.9018 211.901L86.8859 211.827H123.446" fill="#C59E0F"/>
<path d="M125.896 200.554V205.583C125.896 205.637 125.893 205.689 125.88 205.74L125.868 205.814C125.855 205.859 125.839 205.901 125.823 205.943L125.784 206.019C125.672 206.228 125.482 206.385 125.251 206.456L125.174 206.475C125.11 206.492 125.046 206.498 124.978 206.498H90.2228C90.1552 206.498 90.0911 206.492 90.027 206.475L89.9497 206.456L89.8953 206.437L89.8277 206.408C89.6513 206.324 89.5067 206.19 89.417 206.019L89.3781 205.943C89.3622 205.901 89.3463 205.859 89.3366 205.814L89.3206 205.74C89.3078 205.689 89.3043 205.637 89.3043 205.583V200.554C89.3043 200.5 89.3078 200.448 89.3206 200.397C89.391 199.97 89.7702 199.639 90.2228 199.639H124.978C125.434 199.639 125.81 199.97 125.88 200.397C125.893 200.448 125.896 200.5 125.896 200.554" fill="#E7B910"/>
<path d="M114.87 205.74H117.957V200.397H114.87V205.74Z" fill="#FFCB0A"/>
<path d="M119.831 205.74H122.915V200.397H119.831V205.74Z" fill="#FFCB0A"/>
<path d="M125.88 200.397H89.3206C89.391 199.97 89.7702 199.639 90.2228 199.639H124.978C125.434 199.639 125.81 199.97 125.88 200.397" fill="#E7B910"/>
<path d="M125.88 205.74L125.868 205.814C125.855 205.859 125.839 205.901 125.823 205.943L125.784 206.019C125.672 206.228 125.482 206.385 125.251 206.456L125.174 206.475C125.11 206.492 125.046 206.498 124.978 206.498H90.2228C90.1552 206.498 90.0911 206.492 90.027 206.475L89.9497 206.456L89.8953 206.437L89.8277 206.408C89.6513 206.324 89.5067 206.19 89.417 206.019L89.3781 205.943C89.3622 205.901 89.3463 205.859 89.3366 205.814L89.3206 205.74H125.88" fill="#C59E0F"/>
<path d="M121.027 194.467V199.496C121.027 199.55 121.024 199.602 121.011 199.653L120.998 199.727C120.985 199.772 120.969 199.814 120.953 199.856L120.915 199.933C120.802 200.141 120.613 200.299 120.381 200.369L120.305 200.388C120.24 200.405 120.176 200.411 120.109 200.411H85.3532C85.2856 200.411 85.2215 200.405 85.1574 200.388L85.0801 200.369L85.0257 200.35L84.9581 200.321C84.7817 200.238 84.6372 200.103 84.5474 199.933L84.5086 199.856C84.4927 199.814 84.4767 199.772 84.467 199.727L84.4511 199.653C84.4383 199.602 84.4348 199.55 84.4348 199.496V194.467C84.4348 194.413 84.4383 194.361 84.4511 194.31C84.5214 193.883 84.9006 193.552 85.3532 193.552H120.109C120.564 193.552 120.94 193.883 121.011 194.31C121.024 194.361 121.027 194.413 121.027 194.467" fill="#E7B910"/>
<path d="M110 199.653H113.087V194.31H110V199.653Z" fill="#FFCB0A"/>
<path d="M114.961 199.653H118.045V194.31H114.961V199.653Z" fill="#FFCB0A"/>
<path d="M121.011 194.31H84.4511C84.5214 193.883 84.9006 193.552 85.3532 193.552H120.109C120.564 193.552 120.94 193.883 121.011 194.31" fill="#E7B910"/>
<path d="M121.011 199.653L120.998 199.727C120.985 199.772 120.969 199.814 120.953 199.856L120.915 199.933C120.802 200.141 120.613 200.299 120.381 200.369L120.305 200.388C120.24 200.405 120.176 200.411 120.109 200.411H85.3532C85.2856 200.411 85.2215 200.405 85.1574 200.388L85.0801 200.369L85.0257 200.35L84.9581 200.321C84.7817 200.238 84.6372 200.103 84.5474 199.933L84.5086 199.856C84.4927 199.814 84.4767 199.772 84.467 199.727L84.4511 199.653H121.011" fill="#C59E0F"/>
<path opacity="0.563802" fill-rule="evenodd" clip-rule="evenodd" d="M101.352 249.106L82.0163 231.438C82.0163 231.438 81.8503 236.634 82.2576 236.919C82.6649 237.203 100.87 249.106 100.87 249.106H101.352Z" fill="#A48615"/>
<path d="M106.539 246.079L103.248 249.883C102.918 250.264 102.338 250.305 101.955 249.973L75.6751 227.228C75.2912 226.896 75.2497 226.316 75.5795 225.935L78.8712 222.132C78.9057 222.092 78.9426 222.054 78.9846 222.025C79.3199 221.747 79.8207 221.744 80.1642 222.041L106.444 244.787C106.788 245.084 106.857 245.58 106.63 245.951C106.606 245.997 106.574 246.039 106.539 246.079" fill="#E7B910"/>
<path d="M79.7321 230.739L77.3975 228.719L81.8869 223.532L84.2212 225.553L79.7321 230.739" fill="#FFCB0A"/>
<path d="M83.4811 233.984L82.873 233.458L82.7825 233.38L82.0687 232.762L81.9809 232.686L81.1487 231.966L85.6382 226.779L86.1942 227.26L86.9079 227.878L87.5315 228.418L87.9701 228.797L83.4811 233.984" fill="#FFCB0A"/>
<path d="M100.232 248.482L97.545 246.157L96.4808 245.235L95.7671 244.618L95.0534 244L94.3983 243.433L98.8874 238.246L99.0883 238.42L99.342 238.64L99.3428 238.64L103.883 242.57L104.721 243.296L100.232 248.482" fill="#FFCB0A"/>
<path d="M106.63 245.951L78.9846 222.025C79.3199 221.747 79.8207 221.744 80.1642 222.041L106.444 244.787C106.788 245.084 106.857 245.58 106.63 245.951" fill="#C59E0F"/>
<path d="M75.4894 226.063L103.134 249.99C102.799 250.268 102.298 250.271 101.955 249.973L75.6751 227.228C75.3313 226.931 75.2625 226.435 75.4894 226.063" fill="#C59E0F"/>
<path fill-rule="evenodd" clip-rule="evenodd" d="M89.161 227.347C87.3772 227.821 86.9934 228.204 86.5201 229.988C86.0469 228.204 85.6634 227.821 83.8797 227.347C85.6634 226.874 86.0469 226.491 86.5201 224.707C86.9934 226.491 87.3772 226.874 89.161 227.347" fill="white"/>
<path d="M251.592 246.163V251.191C251.592 251.246 251.589 251.298 251.576 251.349L251.563 251.423C251.55 251.468 251.535 251.509 251.518 251.551L251.48 251.628C251.367 251.837 251.178 251.994 250.947 252.065L250.87 252.084C250.806 252.1 250.741 252.106 250.674 252.106H215.918C215.851 252.106 215.787 252.1 215.723 252.084L215.645 252.065L215.591 252.045L215.523 252.017C215.347 251.933 215.202 251.798 215.113 251.628L215.074 251.551C215.058 251.509 215.042 251.468 215.032 251.423L215.016 251.349C215.003 251.298 215 251.246 215 251.191V246.163C215 246.109 215.003 246.057 215.016 246.006C215.087 245.579 215.466 245.248 215.918 245.248H250.674C251.13 245.248 251.505 245.579 251.576 246.006C251.589 246.057 251.592 246.109 251.592 246.163" fill="#E7B910"/>
<path d="M218.197 251.349H221.284V246.006H218.197V251.349Z" fill="#FFCB0A"/>
<path d="M223.158 251.349H226.242V246.006H223.158V251.349Z" fill="#FFCB0A"/>
<path d="M251.576 246.006H215.016C215.087 245.579 215.466 245.248 215.918 245.248H250.674C251.13 245.248 251.505 245.579 251.576 246.006" fill="#E7B910"/>
<path d="M251.576 251.349L251.563 251.423C251.55 251.468 251.535 251.509 251.518 251.551L251.48 251.628C251.367 251.837 251.178 251.994 250.947 252.065L250.87 252.084C250.806 252.1 250.741 252.107 250.674 252.107H215.918C215.851 252.107 215.787 252.1 215.723 252.084L215.645 252.065L215.591 252.046L215.523 252.017C215.347 251.933 215.202 251.798 215.113 251.628L215.074 251.551C215.058 251.509 215.042 251.468 215.032 251.423L215.016 251.349H251.576" fill="#C59E0F"/>
<path d="M254.027 240.076V245.104C254.027 245.159 254.024 245.211 254.011 245.262L253.998 245.336C253.985 245.381 253.969 245.422 253.953 245.464L253.915 245.541C253.802 245.75 253.613 245.907 253.381 245.978L253.305 245.997C253.24 246.013 253.176 246.019 253.109 246.019H218.353C218.286 246.019 218.222 246.013 218.157 245.997L218.08 245.978L218.026 245.958L217.958 245.93C217.782 245.846 217.637 245.711 217.547 245.541L217.509 245.464C217.493 245.422 217.477 245.381 217.467 245.336L217.451 245.262C217.438 245.211 217.435 245.159 217.435 245.104V240.076C217.435 240.022 217.438 239.97 217.451 239.919C217.521 239.492 217.901 239.161 218.353 239.161H253.109C253.564 239.161 253.94 239.492 254.011 239.919C254.024 239.97 254.027 240.022 254.027 240.076" fill="#E7B910"/>
<path d="M243 245.262H246.087V239.919H243V245.262Z" fill="#FFCB0A"/>
<path d="M247.961 245.262H251.045V239.919H247.961V245.262Z" fill="#FFCB0A"/>
<path d="M254.011 239.919H217.451C217.521 239.492 217.901 239.161 218.353 239.161H253.109C253.564 239.161 253.94 239.492 254.011 239.919" fill="#E7B910"/>
<path d="M254.011 245.262L253.998 245.336C253.985 245.381 253.969 245.422 253.953 245.464L253.915 245.541C253.802 245.75 253.613 245.907 253.381 245.978L253.305 245.997C253.24 246.013 253.176 246.019 253.109 246.019H218.353C218.286 246.019 218.222 246.013 218.157 245.997L218.08 245.978L218.026 245.958L217.958 245.93C217.782 245.846 217.637 245.711 217.547 245.541L217.509 245.464C217.493 245.422 217.477 245.381 217.467 245.336L217.451 245.262H254.011" fill="#C59E0F"/>
<path d="M251.592 233.989V239.018C251.592 239.072 251.589 239.124 251.576 239.175L251.563 239.249C251.55 239.294 251.535 239.335 251.518 239.377L251.48 239.454C251.367 239.663 251.178 239.82 250.947 239.891L250.87 239.91C250.806 239.926 250.741 239.933 250.674 239.933H215.918C215.851 239.933 215.787 239.926 215.723 239.91L215.645 239.891L215.591 239.872L215.523 239.843C215.347 239.759 215.202 239.624 215.113 239.454L215.074 239.377C215.058 239.335 215.042 239.294 215.032 239.249L215.016 239.175C215.003 239.124 215 239.072 215 239.018V233.989C215 233.935 215.003 233.883 215.016 233.832C215.087 233.405 215.466 233.074 215.918 233.074H250.674C251.13 233.074 251.505 233.405 251.576 233.832C251.589 233.883 251.592 233.935 251.592 233.989" fill="#E7B910"/>
<path d="M218.197 239.175H221.284V233.832H218.197V239.175Z" fill="#FFCB0A"/>
<path d="M223.158 239.175H226.242V233.832H223.158V239.175Z" fill="#FFCB0A"/>
<path d="M251.576 233.832H215.016C215.087 233.405 215.466 233.074 215.918 233.074H250.674C251.13 233.074 251.505 233.405 251.576 233.832" fill="#E7B910"/>
<path d="M251.576 239.175L251.563 239.249C251.55 239.294 251.535 239.335 251.518 239.377L251.48 239.454C251.367 239.663 251.178 239.82 250.947 239.891L250.87 239.91C250.806 239.926 250.741 239.933 250.674 239.933H215.918C215.851 239.933 215.787 239.926 215.723 239.91L215.645 239.891L215.591 239.872L215.523 239.843C215.347 239.759 215.202 239.624 215.113 239.454L215.074 239.377C215.058 239.335 215.042 239.294 215.032 239.249L215.016 239.175H251.576" fill="#C59E0F"/>
<path d="M255.592 227.467V232.496C255.592 232.55 255.589 232.602 255.576 232.653L255.563 232.727C255.55 232.772 255.535 232.814 255.518 232.856L255.48 232.933C255.367 233.141 255.178 233.299 254.947 233.369L254.87 233.388C254.806 233.405 254.741 233.411 254.674 233.411H219.918C219.851 233.411 219.787 233.405 219.723 233.388L219.645 233.369L219.591 233.35L219.523 233.321C219.347 233.238 219.202 233.103 219.113 232.933L219.074 232.856C219.058 232.814 219.042 232.772 219.032 232.727L219.016 232.653C219.003 232.602 219 232.55 219 232.496V227.467C219 227.413 219.003 227.361 219.016 227.31C219.087 226.883 219.466 226.552 219.918 226.552H254.674C255.13 226.552 255.505 226.883 255.576 227.31C255.589 227.361 255.592 227.413 255.592 227.467" fill="#E7B910"/>
<path d="M222.197 232.653H225.284V227.31H222.197V232.653Z" fill="#FFCB0A"/>
<path d="M227.158 232.653H230.242V227.31H227.158V232.653Z" fill="#FFCB0A"/>
<path d="M255.576 227.31H219.016C219.087 226.883 219.466 226.552 219.918 226.552H254.674C255.13 226.552 255.505 226.883 255.576 227.31" fill="#E7B910"/>
<path d="M255.576 232.653L255.563 232.727C255.55 232.772 255.535 232.814 255.518 232.856L255.48 232.933C255.367 233.141 255.178 233.299 254.947 233.369L254.87 233.388C254.806 233.405 254.741 233.411 254.674 233.411H219.918C219.851 233.411 219.787 233.405 219.723 233.388L219.645 233.369L219.591 233.35L219.523 233.321C219.347 233.238 219.202 233.103 219.113 232.933L219.074 232.856C219.058 232.814 219.042 232.772 219.032 232.727L219.016 232.653H255.576" fill="#C59E0F"/>
<path fill-rule="evenodd" clip-rule="evenodd" d="M60.962 228.438C58.949 226.147 58.5308 180.623 60.962 173.603C63.3933 166.583 67.1888 161.54 68.3941 178.701C69.5994 195.863 62.9751 230.729 60.962 228.438Z" fill="#10AA4C"/>
<path fill-rule="evenodd" clip-rule="evenodd" d="M66.4356 199.289C74.7549 187.225 84.3165 181.733 92.7209 179.686C101.125 177.639 93.6893 199.847 91.1114 196.711C88.5336 193.575 87.3311 191.345 87.3311 194.586C87.3311 197.827 89.2497 201.428 86.3384 200.62C83.427 199.811 81.3402 195.772 81.3402 199.289C81.3402 202.807 83.651 203.945 79.7565 203.945C75.8621 203.945 65.9756 225.884 64.9145 228.294C63.8533 230.704 58.1162 211.353 66.4356 199.289Z" fill="#7CC245"/>
<path fill-rule="evenodd" clip-rule="evenodd" d="M60.1133 229.389C60.1133 229.389 53.9483 191.418 39.7594 188.358C25.5705 185.298 20.9002 184.913 23.396 188.684C25.8919 192.456 29.9683 196.601 32.3042 195.79C34.6401 194.979 36.6347 192.44 36.3805 196.075C36.1263 199.71 34.0934 201.721 36.0514 200.781C38.0094 199.842 41.6612 195.994 41.481 198.571C41.3008 201.148 39.6477 202.824 41.2385 202.039C42.8292 201.255 44.3125 200.788 44.2105 202.247C44.1085 203.706 43.1526 204.438 45.7601 204.221C48.3676 204.004 60.1133 229.389 60.1133 229.389Z" fill="#29B24B"/>
<path fill-rule="evenodd" clip-rule="evenodd" d="M55.5827 228.058C55.5827 228.058 48.2898 192.857 51.2304 185.779C54.171 178.701 54.4178 177.151 51.2304 177.151C48.043 177.151 47.5588 175.112 48.6155 175.112C49.6723 175.112 50.0671 172.16 47.5941 172.16C45.1212 172.16 46.0007 161.245 48.6155 158.518C51.2304 155.791 53.8545 158.741 56.5729 165.451C59.2913 172.16 66.3213 187.424 64.5646 192.202C62.8079 196.98 62.9381 228.438 60.962 228.438C58.986 228.438 55.5827 228.058 55.5827 228.058Z" fill="#7CC245"/>
<path fill-rule="evenodd" clip-rule="evenodd" d="M61.3963 197.57C61.8412 185.273 77.6064 169.028 81.4182 165.49C85.2301 161.952 99.6939 150.505 102.219 154.321C104.744 158.138 99.2699 173.805 93.5991 173.805C87.9283 173.805 86.6264 173.024 86.6264 175.93C86.6264 178.837 86.3476 179.606 84.3185 179.606C82.2895 179.606 83.1845 181.535 83.1845 182.685C83.1845 183.836 64.5271 231.438 62.4921 231.438C60.4572 231.438 60.9514 209.866 61.3963 197.57Z" fill="#29B24B"/>
<path fill-rule="evenodd" clip-rule="evenodd" d="M46.1702 231.247C46.1702 241.861 44.8451 250.351 60.962 251.017C77.079 251.683 77.3357 241.092 76.3369 230.533C75.9949 226.918 75.7155 212.845 74.1698 210.999C72.3755 208.856 72.3755 210.999 60.962 210.999C58.2659 210.999 51.1564 209.675 49.9401 210.178C47.2519 211.29 46.1702 226.847 46.1702 231.247Z" fill="#0065B2"/>
<path opacity="0.563802" fill-rule="evenodd" clip-rule="evenodd" d="M146.115 232.61C146.115 243.135 137.583 251.667 127.057 251.667C116.532 251.667 108 243.135 108 232.61C108 222.085 116.532 213.552 127.057 213.552C137.583 213.552 146.115 222.085 146.115 232.61" fill="#A48615"/>
<path d="M149.115 233.61C149.115 244.135 140.583 252.667 130.057 252.667C119.532 252.667 111 244.135 111 233.61C111 223.085 119.532 214.552 130.057 214.552C140.583 214.552 149.115 223.085 149.115 233.61" fill="#E7B910"/>
<path d="M144.698 233.61C144.698 241.95 137.938 248.71 129.598 248.71C121.259 248.71 114.498 241.95 114.498 233.61C114.498 225.27 121.259 218.51 129.598 218.51C137.938 218.51 144.698 225.27 144.698 233.61" fill="#FFCB0A"/>
<path d="M128.737 248.684C136.676 248.237 142.976 241.66 142.976 233.61C142.976 225.559 136.676 218.982 128.737 218.536C129.017 218.52 129.297 218.51 129.581 218.51C129.587 218.51 129.592 218.51 129.598 218.51C137.791 218.51 144.46 225.035 144.692 233.172C144.696 233.317 144.698 233.463 144.698 233.61C144.698 237.755 143.028 241.51 140.323 244.239C140.309 244.254 140.294 244.269 140.279 244.284C140.278 244.285 140.276 244.286 140.276 244.287C137.543 247.02 133.768 248.71 129.598 248.71C129.309 248.71 129.022 248.7 128.737 248.684Z" fill="#C59E0F"/>
</svg>
