<svg width="302" height="227" viewBox="0 0 302 227" fill="none" xmlns="http://www.w3.org/2000/svg">
<path d="M151.39 227C222.082 227 279.39 225.433 279.39 223.5C279.39 221.567 222.082 220 151.39 220C80.6976 220 23.39 221.567 23.39 223.5C23.39 225.433 80.6976 227 151.39 227Z" fill="#094170"/>
<path opacity="0.04" d="M0.764329 72.2913C6.51205 -8.72697 76.8043 2.24347 87.8525 5.14634C98.9008 8.0492 106.434 18.1329 159.91 18.3014C173.829 18.3454 185.214 19.2752 199.033 17.6015C210.232 16.2448 226.615 11.1156 244.71 8.35541C278.297 3.23262 295.999 25.7584 300.542 51.1388C306.281 83.2056 282.235 105.661 248.296 111.757C217.157 117.349 190.707 146.522 190.707 146.522C190.707 146.522 163.306 178.639 76.8043 173.734C76.8043 173.734 -5.82657 165.217 0.764329 72.2913Z" fill="#094170"/>
<path opacity="0.04" d="M209.639 154.815C209.639 154.815 216.31 137.52 241.405 132.159C266.501 126.798 264.891 148.341 264.891 148.341C264.891 148.341 265.582 159.821 240.669 166.435C214.12 173.483 205.894 162.652 209.639 154.815" fill="#094170"/>
<path fill-rule="evenodd" clip-rule="evenodd" d="M246.39 0.75H57.39C54.4905 0.75 52.14 3.10051 52.14 6V120C52.14 122.899 54.4905 125.25 57.39 125.25H246.39C249.29 125.25 251.64 122.899 251.64 120V6C251.64 3.10051 249.29 0.75 246.39 0.75ZM52.64 6C52.64 3.37665 54.7667 1.25 57.39 1.25H246.39C249.013 1.25 251.14 3.37665 251.14 6V120C251.14 122.623 249.013 124.75 246.39 124.75H57.39C54.7667 124.75 52.64 122.623 52.64 120V6Z" fill="black"/>
<path fill-rule="evenodd" clip-rule="evenodd" d="M105.64 18.75H59.14V94.25H105.64V18.75ZM59.64 93.75V19.25H105.14V93.75H59.64Z" fill="#094170"/>
<path fill-rule="evenodd" clip-rule="evenodd" d="M87.64 30C87.64 33.4518 84.8418 36.25 81.39 36.25C77.9382 36.25 75.14 33.4518 75.14 30C75.14 26.5482 77.9382 23.75 81.39 23.75C84.8418 23.75 87.64 26.5482 87.64 30ZM75.64 30C75.64 33.1756 78.2144 35.75 81.39 35.75C84.5657 35.75 87.14 33.1756 87.14 30C87.14 26.8244 84.5657 24.25 81.39 24.25C78.2144 24.25 75.64 26.8244 75.64 30Z" fill="#094170"/>
<path fill-rule="evenodd" clip-rule="evenodd" d="M100.64 38.75H65.14V42.25H100.64V38.75ZM65.64 41.75V39.25H100.14V41.75H65.64Z" fill="#094170"/>
<path fill-rule="evenodd" clip-rule="evenodd" d="M99.64 59.75H64.14V63.25H99.64V59.75ZM64.64 62.75V60.25H99.14V62.75H64.64Z" fill="#094170"/>
<path fill-rule="evenodd" clip-rule="evenodd" d="M99.64 67.75H64.14V71.25H99.64V67.75ZM64.64 70.75V68.25H99.14V70.75H64.64Z" fill="#094170"/>
<path fill-rule="evenodd" clip-rule="evenodd" d="M100.64 82.75H65.14V90.25H100.64V82.75ZM65.64 89.75V83.25H100.14V89.75H65.64Z" fill="#094170"/>
<path fill-rule="evenodd" clip-rule="evenodd" d="M93.64 44.75H71.14V48.25H93.64V44.75ZM71.64 47.75V45.25H93.14V47.75H71.64Z" fill="#094170"/>
<path fill-rule="evenodd" clip-rule="evenodd" d="M243.64 18.75H115.14V94.25H243.64V18.75ZM115.64 93.75V19.25H243.14V93.75H115.64Z" fill="#094170"/>
<path fill-rule="evenodd" clip-rule="evenodd" d="M238.64 23.75H120.14V66.25H238.64V23.75ZM120.64 65.75V24.25H238.14V65.75H120.64Z" fill="#094170"/>
<rect x="204.39" y="107" width="42" height="12" rx="2" fill="#EC1C23"/>
<path fill-rule="evenodd" clip-rule="evenodd" d="M218.749 109L222.534 113.016L218.39 116.397L218.749 109Z" fill="white"/>
<path fill-rule="evenodd" clip-rule="evenodd" d="M223.339 109.016L227.123 113.033L222.98 116.414L223.339 109.016Z" fill="white"/>
<path fill-rule="evenodd" clip-rule="evenodd" d="M228.339 109.016L232.123 113.033L227.98 116.414L228.339 109.016Z" fill="white"/>
<path fill-rule="evenodd" clip-rule="evenodd" d="M246.39 0.75H57.39C54.4905 0.75 52.14 3.10051 52.14 6V12.25H251.64V6C251.64 3.10051 249.29 0.75 246.39 0.75ZM251.14 6V11.75H52.64V6C52.64 3.37665 54.7667 1.25 57.39 1.25H246.39C249.013 1.25 251.14 3.37665 251.14 6Z" fill="#094170"/>
<path fill-rule="evenodd" clip-rule="evenodd" d="M59.89 8C60.7184 8 61.39 7.32843 61.39 6.5C61.39 5.67157 60.7184 5 59.89 5C59.0616 5 58.39 5.67157 58.39 6.5C58.39 7.32843 59.0616 8 59.89 8Z" fill="#EC1C23"/>
<path d="M65.89 8C66.7184 8 67.39 7.32843 67.39 6.5C67.39 5.67157 66.7184 5 65.89 5C65.0616 5 64.39 5.67157 64.39 6.5C64.39 7.32843 65.0616 8 65.89 8Z" fill="#FFCB0A"/>
<path fill-rule="evenodd" clip-rule="evenodd" d="M71.89 8C72.7184 8 73.39 7.32843 73.39 6.5C73.39 5.67157 72.7184 5 71.89 5C71.0616 5 70.39 5.67157 70.39 6.5C70.39 7.32843 71.0616 8 71.89 8Z" fill="#7CC245"/>
<path fill-rule="evenodd" clip-rule="evenodd" d="M152.281 49.4529L152.409 49.3527L168.099 57.6453L200.762 34.7095L239.607 54.2635V66.25H118.13L146.259 54.1877L152.281 49.4529ZM120.564 65.75H239.107V54.5716L200.805 35.2906L168.136 58.2303L152.462 49.9464L146.512 54.6142L120.564 65.75Z" fill="#094170"/>
<path fill-rule="evenodd" clip-rule="evenodd" d="M142.025 49.6438C134.81 56.4257 133.655 57.2551 121.306 62.0143C108.956 66.7736 108.649 85.135 117.524 76.9432C124.092 70.8818 128.056 68.2928 132.231 66.9364C135.408 65.904 154.112 50.2965 161.235 42.9142C163.997 42.1904 164.782 41.0278 165.658 39.7304C166.012 39.2057 166.381 38.6589 166.902 38.1102C167.744 37.2233 168.712 36.4017 169.528 35.7089C170.913 34.5333 171.86 33.7288 171.011 33.6067C169.662 33.4121 165.103 33.927 162.054 36.0593C160.25 37.321 159.56 38.0735 159.031 38.6512C158.665 39.0502 158.375 39.3658 157.848 39.7081C157.59 39.8759 157.312 40.0504 157.034 40.225C156.408 40.6177 155.782 41.0104 155.384 41.3247C151.294 42.9827 145.988 45.9181 142.025 49.6438Z" fill="#F8D2AA"/>
<path fill-rule="evenodd" clip-rule="evenodd" d="M64.2764 115.985L71.6956 122.268L133.425 76.9259L119.111 68.6916L191.747 27.8967L195.801 29.5356L212.609 13.1125L179.266 21.7749L186.973 24.9287L108.118 68.8835L129.149 76.9259L64.2764 115.985Z" fill="#7CC245"/>
<path fill-rule="evenodd" clip-rule="evenodd" d="M128.174 52.1476C127.741 53.3622 122.702 61.7434 122.243 63C118.969 71.9661 137.1 71.4812 131.026 73C127.919 73.7767 120.608 89.3586 100.849 86.3024C96.8874 85.6896 96.6947 78.6218 97.0132 77.5612C97.5902 75.6374 97.7823 74.8683 99.1291 72.9452C100.475 71.0214 102.976 68.5206 101.437 57.7489C100.948 54.329 105.064 53.9041 108.727 50.5908C116.602 43.4681 128.174 34.4746 128.174 34.4746C134.329 38.7064 131.026 44.1554 128.174 52.1476Z" fill="#2B292D"/>
<path fill-rule="evenodd" clip-rule="evenodd" d="M119.32 115.968C119.636 140.699 123.972 154.787 118.488 166.544C113.004 178.3 112.338 180.101 116.45 200.095C120.561 220.089 119.066 221.042 115.706 218.326C112.345 215.611 101.263 192.411 100.72 179.783C100.178 167.155 111.206 165.239 107.765 155.002C104.323 144.764 86.9787 118.56 96.2621 104.746C105.545 90.9315 118.231 103.108 118.75 105.858C119.269 108.607 119.32 115.968 119.32 115.968" fill="#EDC79F"/>
<path fill-rule="evenodd" clip-rule="evenodd" d="M121.202 148.936L105.189 148.93C105.189 148.93 88.4741 116.335 96.2621 104.746C105.545 90.9315 118.231 103.108 118.75 105.858C119.269 108.607 119.32 115.968 119.32 115.968C119.497 129.803 121.202 148.936 121.202 148.936Z" fill="#0062AD"/>
<path fill-rule="evenodd" clip-rule="evenodd" d="M124.139 63.2485C123.873 63.5554 129.477 68.7947 131.31 73.8198C133.193 78.9802 131.31 83.9256 131.31 83.9256C131.31 83.9256 131.76 92.557 125.177 100.458C118.167 108.869 118.909 112.208 118.909 112.208L104.613 98.2945C104.613 98.2945 112.202 97.0441 115.301 95.026C118.4 93.0071 111.987 82.0839 110.093 72.5578C109.296 68.5488 111.166 66.0722 111.972 64.4772C113.082 62.2822 114.377 60.6779 115.39 59.9574C120.498 56.3254 117.538 45.9841 117.538 45.9841L124.631 51.5218C126.767 55.943 124.677 62.6264 124.139 63.2485Z" fill="#F8D2AA"/>
<path fill-rule="evenodd" clip-rule="evenodd" d="M129.077 56.6776C125.525 58.5903 120.717 55.0166 119.072 50.7794C117.427 46.5414 118.428 42.1991 121.31 41.0805C124.192 39.9612 127.733 37.4407 130.293 44.0413C131.938 48.2797 132.253 54.9675 129.077 56.6776Z" fill="#F8D2AA"/>
<path fill-rule="evenodd" clip-rule="evenodd" d="M96.9493 123.605C105.937 134.659 127.757 152.653 130.938 157.078C134.119 161.503 123.971 169.468 121.72 180.615C119.47 191.761 123.29 209.567 123.883 214.481C124.266 217.659 129.314 196.875 136.534 180.121C140.637 170.599 145.899 160.441 145.257 156.419C143.442 145.035 117.399 100.007 107.73 98.4825C96.9493 97.6565 87.962 112.55 96.9493 123.605Z" fill="#F8D2AA"/>
<path fill-rule="evenodd" clip-rule="evenodd" d="M95.6255 121.646C99.9928 128.571 119.573 146.306 119.573 146.306L134.961 133.173C134.961 133.173 123.956 114.067 119.573 108.336C114.518 101.726 109.658 97.6564 107.494 97.6564C95.6255 97.6564 88.4504 110.269 95.6255 121.646Z" fill="#0289CE"/>
<path fill-rule="evenodd" clip-rule="evenodd" d="M124.139 63.2484C124.218 63.1562 124.332 62.9315 124.46 62.6021C123.673 61.8011 122.917 60.9293 122.214 59.9674L121.226 61.2844C121.226 61.2844 129.41 57.6968 127.929 62.1408C126.448 66.5848 116.39 59.1248 116.39 59.1248C116.39 59.1248 110.833 62.9538 110.093 68.2359C110.086 68.2824 109.805 71.3409 110.751 75.5067C111.564 79.0859 113.611 83.8249 113.737 84.2407C114.858 88.6516 114.596 91.6475 112.668 94.4278C110.74 97.2081 106.686 97.2081 106.723 98.2826C106.85 101.963 116.991 111.571 122.214 112.208C122.517 112.246 126.595 105.274 129.936 98.2737C132.416 93.0748 131.467 87.2901 133.671 85.2106C137.522 81.5772 137.198 73.945 132.038 71.3525C129.146 68.9364 125.866 64.5924 124.46 62.6021C123.837 61.7196 123.973 63.4395 124.139 63.2484Z" fill="#EC1C23"/>
<path fill-rule="evenodd" clip-rule="evenodd" d="M127.969 40.9792C127.969 40.9792 123.245 41.8833 122.563 45.9842C121.881 50.0851 123.411 49.4962 123.411 52.661C123.411 55.8258 122.403 55.633 118.172 55.8258C113.94 56.0179 107.015 62.1729 109.131 66.2126C111.247 70.2523 109.516 75.2532 103.937 74.6762C98.3593 74.0992 97.8024 81.844 100.687 85.4988C103.573 89.1536 87.3955 79.4851 89.3186 73.7143C91.2424 67.9436 99.5608 69.8566 96.9493 62.5474C94.9003 56.8126 94.9003 53.7833 102.017 51.2831C109.134 48.7823 107.785 48.9248 110.093 42C111.404 38.0651 115.604 32.4927 123.411 33.4395C128.795 34.0926 129.876 35.8171 130.486 36.6154C132.311 39.0042 127.969 40.9792 127.969 40.9792Z" fill="#2B292D"/>
<path fill-rule="evenodd" clip-rule="evenodd" d="M114.756 38.6817C116.684 36.8475 118.913 33.5548 124.936 33.4413C130.958 33.3279 131.692 38.3978 131.535 41.9257C131.379 45.4535 133.131 37.5673 127.128 37.3404C122.287 37.1574 112.93 42.8173 112.829 45.274C112.829 45.274 112.829 40.516 114.756 38.6817Z" fill="#EC1C23"/>
<path fill-rule="evenodd" clip-rule="evenodd" d="M129.332 34.651C129.332 34.651 129.418 34.5414 129.593 34.3837C130.115 33.9087 131.437 32.9914 133.653 33.2481C136.606 33.5904 136.606 33.5904 136.606 33.5904C136.606 33.5904 132.796 36.7298 130.382 37.1481C127.969 37.5673 127.969 37.5673 127.969 37.5673L129.332 34.651" fill="#EC1C23"/>
<path fill-rule="evenodd" clip-rule="evenodd" d="M133.651 27C133.651 27 129.723 27.6654 128.638 30.6356C127.554 33.6067 127.32 37.1481 127.32 37.1481C127.32 37.1481 133.764 32.5683 133.651 27" fill="#EC1C23"/>
<path fill-rule="evenodd" clip-rule="evenodd" d="M157.418 46.3354C145.297 53.6734 133.63 57.0015 120.449 60.4769C107.268 63.9524 111.037 75.453 111.037 75.453C112.477 79.7121 119.333 79.8749 128.626 72.1589C135.378 66.552 141.687 64.8635 145.927 63.7287C146.004 63.708 146.081 63.6874 146.157 63.667C149.668 62.7262 168.851 46.9891 174.993 40.7985C180.181 39.5875 180.977 38.0267 181.896 36.224C182.184 35.66 182.484 35.0723 182.934 34.4642C183.661 33.4814 184.522 32.5479 185.247 31.7608C186.478 30.4252 187.321 29.5112 186.464 29.4935C185.101 29.4648 180.638 30.5315 177.871 33.0195C176.235 34.4916 175.642 35.3226 175.187 35.9605C174.872 36.4012 174.624 36.7497 174.142 37.1536C173.733 37.497 173.24 38.0379 172.78 38.6103C169.512 39.6817 164.346 42.1414 157.418 46.3354Z" fill="#EDC79F"/>
<path fill-rule="evenodd" clip-rule="evenodd" d="M113.669 215.855C115.207 217.906 109.821 221.882 111.745 223.036C113.669 224.19 117.131 222.523 121.362 223.549C125.594 224.575 128.281 223.525 129.185 223.293C133.674 222.139 121.491 220.215 119.952 216.239C118.413 212.264 117.9 208.416 117.9 208.416L113.669 215.855" fill="#EDC79F"/>
<path fill-rule="evenodd" clip-rule="evenodd" d="M127.39 205.083C127.261 208.545 128.834 215.014 128.544 220.087C128.288 224.575 129.057 223.293 130.724 224.447C132.391 225.601 133.289 225.986 129.442 226.371C125.594 226.755 123.286 227.396 123.928 223.677C124.569 219.958 122.261 216.239 120.08 213.418C117.9 210.597 120.337 209.571 121.491 208.674C122.645 207.775 122.389 205.211 122.389 205.211L127.39 205.083" fill="#F8D2AA"/>
<path fill-rule="evenodd" clip-rule="evenodd" d="M242.352 202.885C240.339 200.594 239.921 155.07 242.352 148.05C244.783 141.03 248.579 135.987 249.784 153.149C250.989 170.31 244.365 205.177 242.352 202.885Z" fill="#10AA4C"/>
<path fill-rule="evenodd" clip-rule="evenodd" d="M247.826 173.737C256.145 161.672 265.707 156.181 274.111 154.134C282.515 152.086 275.079 174.294 272.501 171.158C269.924 168.022 268.721 165.793 268.721 169.034C268.721 172.275 270.64 175.876 267.728 175.067C264.817 174.259 262.73 170.219 262.73 173.737C262.73 177.254 265.041 178.392 261.147 178.392C257.252 178.392 247.366 200.332 246.305 202.742C245.243 205.152 239.506 185.801 247.826 173.737Z" fill="#7CC245"/>
<path fill-rule="evenodd" clip-rule="evenodd" d="M241.503 203.837C241.503 203.837 235.338 165.865 221.149 162.805C206.961 159.745 202.29 159.36 204.786 163.132C207.282 166.903 211.358 171.048 213.694 170.237C216.03 169.427 218.025 166.887 217.771 170.522C217.516 174.158 215.483 176.168 217.441 175.229C219.399 174.289 223.051 170.441 222.871 173.018C222.691 175.596 221.038 177.271 222.629 176.487C224.219 175.703 225.703 175.236 225.601 176.695C225.499 178.154 224.543 178.885 227.15 178.668C229.758 178.452 241.503 203.837 241.503 203.837Z" fill="#29B24B"/>
<path fill-rule="evenodd" clip-rule="evenodd" d="M236.973 202.506C236.973 202.506 229.68 167.305 232.62 160.227C235.561 153.149 235.808 151.599 232.62 151.599C229.433 151.599 228.949 149.559 230.006 149.559C231.062 149.559 231.457 146.608 228.984 146.608C226.511 146.608 227.391 135.692 230.006 132.965C232.62 130.238 235.245 133.189 237.963 139.898C240.681 146.608 247.711 161.871 245.955 166.65C244.198 171.428 244.328 202.885 242.352 202.885C240.376 202.885 236.973 202.506 236.973 202.506Z" fill="#7CC245"/>
<path fill-rule="evenodd" clip-rule="evenodd" d="M242.786 172.017C243.231 159.721 258.996 143.475 262.808 139.937C266.62 136.399 281.084 124.953 283.609 128.769C286.134 132.585 280.66 148.252 274.989 148.252C269.318 148.252 268.016 147.471 268.016 150.378C268.016 153.284 267.738 154.053 265.709 154.053C263.68 154.053 264.574 155.982 264.574 157.133C264.574 158.284 245.917 205.885 243.882 205.885C241.847 205.885 242.341 184.313 242.786 172.017Z" fill="#29B24B"/>
<path fill-rule="evenodd" clip-rule="evenodd" d="M227.56 205.695C227.56 216.308 226.235 224.798 242.352 225.464C258.469 226.13 258.726 215.54 257.727 204.98C257.385 201.365 257.106 187.293 255.56 185.447C253.765 183.303 253.765 185.447 242.352 185.447C239.656 185.447 232.546 184.123 231.33 184.626C228.642 185.737 227.56 201.294 227.56 205.695Z" fill="#0065B2"/>
<path d="M208.433 162.595C206.213 158.058 203.746 151.19 198.597 149.232C198.072 149.032 197.193 149.93 197.72 150.131C201.559 151.589 203.606 155.547 205.454 158.938C207.915 163.447 210.136 167.977 211.975 172.815C216.427 184.529 222.601 205.352 219.448 194.083C219.372 193.808 220.026 193.626 219.949 193.35C216.996 182.813 213.279 172.499 208.433 162.595Z" fill="#E7B910"/>
<path d="M202.073 138.354C201.224 138.965 201.379 139.054 201.166 138.274C201.112 138.082 201.101 137.843 201.144 137.56C201.251 136.845 201.625 136.192 201.995 135.585L202.107 135.406C202.72 134.434 203.427 133.531 203.92 132.484C205.111 129.953 204.927 126.568 203.164 124.611C202.437 123.804 201.441 123.24 200.165 123.082C200.054 123.065 199.944 123.053 199.828 123.045C199.612 123.031 199.434 123.19 199.406 123.406C199.117 125.736 198.75 128.057 198.285 130.359C198.053 131.505 197.881 132.734 197.482 133.839C197.133 134.814 196.192 135.332 195.366 134.474C194.654 133.731 195.005 132.58 195.248 131.706C196.349 127.757 197.712 123.909 196.456 119.804C196.409 119.656 196.288 119.474 196.107 119.483C195.749 119.5 195.394 119.511 195.04 119.51C194.591 119.513 194.145 119.502 193.699 119.478C192.292 119.398 190.9 119.188 189.519 118.842C189.325 118.795 189.128 118.742 188.934 118.688C188.655 118.61 188.36 118.816 188.416 119.133C188.664 120.566 188.759 122.009 188.626 123.463C188.574 124.007 188.52 124.621 188.371 125.143C188.232 125.642 187.455 127.604 186.483 126.012C185.96 125.155 186.274 123.347 186.333 122.36C186.413 120.988 186.603 119.63 186.865 118.281C186.912 118.039 186.636 117.796 186.406 117.857C186.203 117.914 185.997 117.966 185.792 118.013C184.999 118.195 184.2 118.314 183.399 118.365C182.572 118.422 181.74 118.407 180.919 118.327C179.138 118.152 177.391 117.657 175.753 116.853C174.947 116.457 174.18 115.986 173.462 115.447C172.846 114.988 172.318 114.306 171.654 113.934C171.025 113.58 170.181 113.543 170.051 114.401C170.013 114.656 170.192 114.801 170.39 114.812C170.529 115.31 170.656 115.812 170.769 116.317C171.472 119.388 171.702 122.529 171.456 125.658C171.376 126.665 171.25 127.67 171.071 128.673C171.051 128.789 171.03 128.906 171.006 129.023C170.953 129.317 170.893 129.61 170.828 129.905C170.79 130.081 170.938 130.242 171.078 130.31C172.954 131.186 174.895 131.861 176.916 132.293C177.982 132.521 179.059 132.685 180.145 132.78C181.175 132.868 183.195 132.529 183.993 133.263C184.436 133.669 184.521 133.993 184.398 134.255C184.049 134.986 182.014 135.21 181.434 135.283C180.35 135.421 179.26 135.516 178.166 135.505C175.954 135.485 173.832 135.03 171.995 133.732C171.717 133.535 171.326 133.785 171.387 134.127C171.554 135.056 171.752 135.987 171.987 136.905C172.142 137.53 172.316 138.15 172.51 138.763C172.775 139.613 173.077 140.451 173.416 141.269C173.487 141.436 173.557 141.597 173.634 141.752C173.901 142.29 174.217 142.755 174.606 143.108C174.674 143.172 174.746 143.231 174.819 143.286C175.372 143.705 176.061 143.914 176.944 143.829C178.534 143.679 180.076 142.863 181.553 142.109C182.011 141.875 182.463 141.645 182.908 141.444C185.077 140.462 187.296 139.684 189.678 139.95C189.685 140.042 189.681 140.132 189.669 140.217C189.498 141.513 187.516 142.221 186.544 142.722C185.488 143.265 184.436 143.805 183.381 144.345C181.192 145.47 178.662 146.969 176.204 145.84C175.829 145.668 175.551 146.174 175.77 146.465C175.994 146.766 176.226 147.072 176.466 147.379C177.988 149.331 179.812 151.316 182.049 152.202C183.048 152.597 184.129 152.772 185.299 152.628L185.302 152.626L185.362 152.62C187.255 152.367 188.976 151.316 190.344 149.995C190.588 149.764 191.363 148.787 191.74 148.769L191.785 148.771C192.051 149.159 192.316 149.55 192.58 149.94C192.417 150.2 192.201 150.395 191.934 150.525C191.71 150.673 191.471 150.766 191.232 150.885C190.502 151.244 189.87 151.549 189.382 152.234C189.289 152.366 189.282 152.595 189.402 152.718C191.131 154.453 193.543 153.433 195.272 152.219C195.895 151.781 196.501 151.299 197.177 150.943C197.907 150.557 198.614 150.526 199.387 150.354C200.544 150.095 200.7 148.832 201.237 147.912C202.838 145.178 205.282 143.064 206.922 140.331C207.877 138.74 209.197 134.864 207.52 133.499C206.494 132.663 204.276 136.768 202.073 138.354Z" fill="#FFCB0A"/>
<path d="M205.094 194.275L208.9 223.275H233.139L236.06 194.275L205.094 194.275Z" fill="#FFCB0A"/>
<rect x="200.739" y="187.508" width="38.6503" height="8.58896" fill="#E7B910"/>
</svg>
