<svg width="294" height="267" viewBox="0 0 294 267" fill="none" xmlns="http://www.w3.org/2000/svg">
<path opacity="0.04" d="M1.02976 142.197C-9.19922 75.037 82.4086 45.7941 142.547 72.572C151.198 76.4234 165.287 85.5142 172.798 91.3477C179.919 96.8786 193.529 105.031 211.086 104.168C237.422 102.871 281.598 101.216 291.945 143.81C301.994 185.18 250.325 207.231 250.325 207.231C250.325 207.231 220.986 226.648 156.573 226C92.1606 225.352 61.9398 215.338 51.4809 209.16C51.4809 209.16 7.48828 184.602 1.02976 142.197Z" fill="#094170"/>
<path d="M143.39 267C72.6976 267 15.39 265.433 15.39 263.5C15.39 261.567 72.6976 260 143.39 260C214.082 260 271.39 261.567 271.39 263.5C271.39 265.433 214.082 267 143.39 267Z" fill="#094170"/>
<path d="M166.798 255.611V260.639C166.798 260.693 166.801 260.745 166.814 260.796L166.827 260.87C166.84 260.915 166.855 260.957 166.872 260.999L166.91 261.076C167.023 261.284 167.212 261.442 167.443 261.512L167.52 261.531C167.584 261.548 167.649 261.554 167.716 261.554H202.472C202.539 261.554 202.603 261.548 202.667 261.531L202.745 261.512L202.799 261.493L202.867 261.464C203.043 261.381 203.188 261.246 203.277 261.076L203.316 260.999C203.332 260.957 203.348 260.915 203.358 260.87L203.374 260.796C203.387 260.745 203.39 260.693 203.39 260.639V255.611C203.39 255.556 203.387 255.505 203.374 255.453C203.303 255.026 202.924 254.696 202.472 254.696H167.716C167.26 254.696 166.885 255.026 166.814 255.453C166.801 255.505 166.798 255.556 166.798 255.611" fill="#E7B910"/>
<path d="M200.193 260.796H197.106V255.453H200.193V260.796Z" fill="#FFCB0A"/>
<path d="M195.232 260.796H192.148V255.453H195.232V260.796Z" fill="#FFCB0A"/>
<path d="M166.814 255.453H203.374C203.303 255.026 202.924 254.696 202.472 254.696H167.716C167.26 254.696 166.885 255.026 166.814 255.453" fill="#E7B910"/>
<path d="M166.814 260.796L166.827 260.87C166.84 260.915 166.855 260.957 166.872 260.999L166.91 261.076C167.023 261.284 167.212 261.442 167.443 261.512L167.52 261.531C167.584 261.548 167.649 261.554 167.716 261.554H202.472C202.539 261.554 202.603 261.548 202.667 261.531L202.745 261.512L202.799 261.493L202.867 261.464C203.043 261.381 203.188 261.246 203.277 261.076L203.316 260.999C203.332 260.957 203.348 260.915 203.358 260.87L203.374 260.796H166.814" fill="#C59E0F"/>
<path d="M164.363 249.524V254.552C164.363 254.606 164.366 254.658 164.379 254.709L164.392 254.783C164.405 254.828 164.421 254.87 164.437 254.912L164.475 254.989C164.588 255.197 164.777 255.355 165.009 255.425L165.085 255.444C165.15 255.461 165.214 255.467 165.281 255.467H200.037C200.104 255.467 200.168 255.461 200.233 255.444L200.31 255.425L200.364 255.406L200.432 255.377C200.608 255.294 200.753 255.159 200.843 254.989L200.881 254.912C200.897 254.87 200.913 254.828 200.923 254.783L200.939 254.709C200.952 254.658 200.955 254.606 200.955 254.552V249.524C200.955 249.469 200.952 249.418 200.939 249.366C200.869 248.939 200.489 248.609 200.037 248.609H165.281C164.826 248.609 164.45 248.939 164.379 249.366C164.366 249.418 164.363 249.469 164.363 249.524" fill="#E7B910"/>
<path d="M175.39 254.709H172.303V249.366H175.39V254.709Z" fill="#FFCB0A"/>
<path d="M170.429 254.709H167.345V249.366H170.429V254.709Z" fill="#FFCB0A"/>
<path d="M164.379 249.366H200.939C200.869 248.939 200.489 248.609 200.037 248.609H165.281C164.826 248.609 164.45 248.939 164.379 249.366" fill="#E7B910"/>
<path d="M164.379 254.709L164.392 254.783C164.405 254.828 164.421 254.87 164.437 254.912L164.476 254.989C164.588 255.197 164.777 255.355 165.009 255.425L165.085 255.444C165.15 255.461 165.214 255.467 165.281 255.467H200.037C200.104 255.467 200.169 255.461 200.233 255.444L200.31 255.425L200.364 255.406L200.432 255.377C200.608 255.294 200.753 255.159 200.843 254.989L200.881 254.912C200.897 254.87 200.913 254.828 200.923 254.783L200.939 254.709H164.379" fill="#C59E0F"/>
<path d="M166.798 243.437V248.465C166.798 248.519 166.801 248.571 166.814 248.622L166.827 248.696C166.84 248.741 166.855 248.783 166.872 248.825L166.91 248.902C167.023 249.11 167.212 249.268 167.443 249.338L167.52 249.358C167.584 249.374 167.649 249.38 167.716 249.38H202.472C202.539 249.38 202.603 249.374 202.667 249.358L202.745 249.338L202.799 249.319L202.867 249.29C203.043 249.207 203.188 249.072 203.277 248.902L203.316 248.825C203.332 248.783 203.348 248.741 203.358 248.696L203.374 248.622C203.387 248.571 203.39 248.519 203.39 248.465V243.437C203.39 243.382 203.387 243.331 203.374 243.279C203.303 242.852 202.924 242.522 202.472 242.522H167.716C167.26 242.522 166.885 242.852 166.814 243.279C166.801 243.331 166.798 243.382 166.798 243.437" fill="#E7B910"/>
<path d="M200.193 248.622H197.106V243.279H200.193V248.622Z" fill="#FFCB0A"/>
<path d="M195.232 248.622H192.148V243.279H195.232V248.622Z" fill="#FFCB0A"/>
<path d="M166.814 243.279H203.374C203.303 242.852 202.924 242.522 202.472 242.522H167.716C167.26 242.522 166.885 242.852 166.814 243.279" fill="#E7B910"/>
<path d="M166.814 248.622L166.827 248.696C166.84 248.741 166.855 248.783 166.872 248.825L166.91 248.902C167.023 249.11 167.212 249.268 167.443 249.338L167.52 249.358C167.584 249.374 167.649 249.38 167.716 249.38H202.472C202.539 249.38 202.603 249.374 202.667 249.358L202.745 249.338L202.799 249.319L202.867 249.29C203.043 249.207 203.188 249.072 203.277 248.902L203.316 248.825C203.332 248.783 203.348 248.741 203.358 248.696L203.374 248.622H166.814" fill="#C59E0F"/>
<path d="M164.363 237.35V242.378C164.363 242.433 164.366 242.484 164.379 242.535L164.392 242.609C164.405 242.654 164.421 242.696 164.437 242.738L164.475 242.815C164.588 243.023 164.777 243.181 165.009 243.252L165.085 243.271C165.15 243.287 165.214 243.293 165.281 243.293H200.037C200.104 243.293 200.168 243.287 200.233 243.271L200.31 243.252L200.364 243.232L200.432 243.203C200.608 243.12 200.753 242.985 200.843 242.815L200.881 242.738C200.897 242.696 200.913 242.654 200.923 242.609L200.939 242.535C200.952 242.484 200.955 242.433 200.955 242.378V237.35C200.955 237.295 200.952 237.244 200.939 237.192C200.869 236.765 200.489 236.435 200.037 236.435H165.281C164.826 236.435 164.45 236.765 164.379 237.192C164.366 237.244 164.363 237.295 164.363 237.35" fill="#E7B910"/>
<path d="M175.39 242.536H172.303V237.193H175.39V242.536Z" fill="#FFCB0A"/>
<path d="M170.429 242.536H167.345V237.193H170.429V242.536Z" fill="#FFCB0A"/>
<path d="M164.379 237.192H200.939C200.869 236.765 200.489 236.435 200.037 236.435H165.281C164.826 236.435 164.45 236.765 164.379 237.192" fill="#E7B910"/>
<path d="M164.379 242.536L164.392 242.609C164.405 242.654 164.421 242.696 164.437 242.738L164.476 242.815C164.588 243.024 164.777 243.181 165.009 243.252L165.085 243.271C165.15 243.287 165.214 243.293 165.281 243.293H200.037C200.104 243.293 200.169 243.287 200.233 243.271L200.31 243.252L200.364 243.232L200.432 243.203C200.608 243.12 200.753 242.985 200.843 242.815L200.881 242.738C200.897 242.696 200.913 242.654 200.923 242.609L200.939 242.536H164.379" fill="#C59E0F"/>
<path d="M161.928 231.263V236.291C161.928 236.346 161.931 236.397 161.944 236.448L161.957 236.522C161.97 236.567 161.986 236.609 162.002 236.651L162.041 236.728C162.153 236.936 162.343 237.094 162.574 237.165L162.651 237.184C162.715 237.2 162.779 237.206 162.846 237.206H197.602C197.67 237.206 197.734 237.2 197.798 237.184L197.875 237.165L197.929 237.145L197.997 237.116C198.173 237.033 198.318 236.898 198.408 236.728L198.447 236.651C198.463 236.609 198.478 236.567 198.488 236.522L198.504 236.448C198.517 236.397 198.52 236.346 198.52 236.291V231.263C198.52 231.208 198.517 231.157 198.504 231.105C198.434 230.678 198.055 230.348 197.602 230.348H162.846C162.391 230.348 162.015 230.678 161.944 231.105C161.931 231.157 161.928 231.208 161.928 231.263" fill="#E7B910"/>
<path d="M195.323 236.449H192.236V231.105H195.323V236.449Z" fill="#FFCB0A"/>
<path d="M190.362 236.449H187.278V231.105H190.362V236.449Z" fill="#FFCB0A"/>
<path d="M161.944 231.105H198.504C198.434 230.678 198.055 230.348 197.602 230.348H162.847C162.391 230.348 162.015 230.678 161.944 231.105" fill="#E7B910"/>
<path d="M161.944 236.448L161.957 236.522C161.97 236.567 161.986 236.609 162.002 236.651L162.041 236.728C162.153 236.936 162.343 237.094 162.574 237.165L162.651 237.184C162.715 237.2 162.779 237.206 162.847 237.206H197.602C197.67 237.206 197.734 237.2 197.798 237.184L197.875 237.165L197.93 237.145L197.997 237.116C198.174 237.033 198.318 236.898 198.408 236.728L198.447 236.651C198.463 236.609 198.479 236.567 198.488 236.522L198.504 236.448H161.944" fill="#C59E0F"/>
<path d="M159.494 225.176V230.204C159.494 230.259 159.497 230.31 159.51 230.362L159.522 230.435C159.535 230.48 159.551 230.522 159.567 230.564L159.606 230.641C159.718 230.85 159.908 231.007 160.139 231.078L160.216 231.097C160.28 231.113 160.345 231.119 160.412 231.119H195.167C195.235 231.119 195.299 231.113 195.363 231.097L195.44 231.078L195.495 231.058L195.562 231.029C195.739 230.946 195.883 230.811 195.973 230.641L196.012 230.564C196.028 230.522 196.044 230.48 196.053 230.435L196.069 230.362C196.082 230.31 196.086 230.259 196.086 230.204V225.176C196.086 225.121 196.082 225.07 196.069 225.018C195.999 224.592 195.62 224.261 195.167 224.261H160.412C159.956 224.261 159.58 224.592 159.51 225.018C159.497 225.07 159.494 225.121 159.494 225.176" fill="#E7B910"/>
<path d="M170.52 230.362H167.433V225.019H170.52V230.362Z" fill="#FFCB0A"/>
<path d="M165.559 230.362H162.475V225.019H165.559V230.362Z" fill="#FFCB0A"/>
<path d="M159.51 225.018H196.069C195.999 224.592 195.62 224.261 195.167 224.261H160.412C159.956 224.261 159.58 224.592 159.51 225.018" fill="#E7B910"/>
<path d="M159.51 230.362L159.522 230.435C159.535 230.48 159.551 230.522 159.567 230.564L159.606 230.641C159.718 230.85 159.908 231.007 160.139 231.078L160.216 231.097C160.28 231.113 160.345 231.119 160.412 231.119H195.167C195.235 231.119 195.299 231.113 195.363 231.097L195.44 231.078L195.495 231.058L195.562 231.029C195.739 230.946 195.883 230.811 195.973 230.641L196.012 230.564C196.028 230.522 196.044 230.48 196.053 230.435L196.069 230.362H159.51" fill="#C59E0F"/>
<path d="M161.928 219.089V224.117C161.928 224.172 161.931 224.223 161.944 224.275L161.957 224.348C161.97 224.394 161.986 224.435 162.002 224.477L162.041 224.554C162.153 224.763 162.343 224.92 162.574 224.991L162.651 225.01C162.715 225.026 162.779 225.032 162.846 225.032H197.602C197.67 225.032 197.734 225.026 197.798 225.01L197.875 224.991L197.929 224.971L197.997 224.943C198.173 224.859 198.318 224.724 198.408 224.554L198.447 224.477C198.463 224.435 198.478 224.394 198.488 224.348L198.504 224.275C198.517 224.223 198.52 224.172 198.52 224.117V219.089C198.52 219.035 198.517 218.983 198.504 218.932C198.434 218.505 198.055 218.174 197.602 218.174H162.846C162.391 218.174 162.015 218.505 161.944 218.932C161.931 218.983 161.928 219.035 161.928 219.089" fill="#E7B910"/>
<path d="M195.323 224.275H192.236V218.932H195.323V224.275Z" fill="#FFCB0A"/>
<path d="M190.362 224.275H187.278V218.932H190.362V224.275Z" fill="#FFCB0A"/>
<path d="M161.944 218.932H198.504C198.434 218.505 198.055 218.174 197.602 218.174H162.847C162.391 218.174 162.015 218.505 161.944 218.932" fill="#E7B910"/>
<path d="M161.944 224.275L161.957 224.348C161.97 224.394 161.986 224.435 162.002 224.477L162.041 224.554C162.153 224.763 162.343 224.92 162.574 224.991L162.651 225.01C162.715 225.026 162.779 225.032 162.847 225.032H197.602C197.67 225.032 197.734 225.026 197.798 225.01L197.875 224.991L197.93 224.971L197.997 224.943C198.174 224.859 198.318 224.724 198.408 224.554L198.447 224.477C198.463 224.435 198.479 224.394 198.488 224.348L198.504 224.275H161.944" fill="#C59E0F"/>
<path d="M163.363 200.089V205.117C163.363 205.172 163.366 205.223 163.379 205.275L163.392 205.348C163.405 205.394 163.421 205.435 163.437 205.477L163.475 205.554C163.588 205.763 163.777 205.92 164.009 205.991L164.085 206.01C164.15 206.026 164.214 206.032 164.281 206.032H199.037C199.104 206.032 199.168 206.026 199.233 206.01L199.31 205.991L199.364 205.971L199.432 205.943C199.608 205.859 199.753 205.724 199.843 205.554L199.881 205.477C199.897 205.435 199.913 205.394 199.923 205.348L199.939 205.275C199.952 205.223 199.955 205.172 199.955 205.117V200.089C199.955 200.035 199.952 199.983 199.939 199.932C199.869 199.505 199.489 199.174 199.037 199.174H164.281C163.826 199.174 163.45 199.505 163.379 199.932C163.366 199.983 163.363 200.035 163.363 200.089" fill="#E7B910"/>
<path d="M196.758 205.275H193.671V199.932H196.758V205.275Z" fill="#FFCB0A"/>
<path d="M191.797 205.275H188.713V199.932H191.797V205.275Z" fill="#FFCB0A"/>
<path d="M163.379 199.932H199.939C199.869 199.505 199.489 199.174 199.037 199.174H164.281C163.826 199.174 163.45 199.505 163.379 199.932" fill="#E7B910"/>
<path d="M163.379 205.275L163.392 205.348C163.405 205.394 163.421 205.435 163.437 205.477L163.476 205.554C163.588 205.763 163.777 205.92 164.009 205.991L164.085 206.01C164.15 206.026 164.214 206.032 164.281 206.032H199.037C199.104 206.032 199.169 206.026 199.233 206.01L199.31 205.991L199.364 205.971L199.432 205.943C199.608 205.859 199.753 205.724 199.843 205.554L199.881 205.477C199.897 205.435 199.913 205.394 199.923 205.348L199.939 205.275H163.379" fill="#C59E0F"/>
<path d="M159.494 213.002V218.03C159.494 218.085 159.497 218.136 159.51 218.188L159.522 218.261C159.535 218.306 159.551 218.348 159.567 218.39L159.606 218.467C159.718 218.676 159.908 218.833 160.139 218.904L160.216 218.923C160.28 218.939 160.345 218.945 160.412 218.945H195.167C195.235 218.945 195.299 218.939 195.363 218.923L195.44 218.904L195.495 218.884L195.562 218.855C195.739 218.772 195.883 218.637 195.973 218.467L196.012 218.39C196.028 218.348 196.044 218.306 196.053 218.261L196.069 218.188C196.082 218.136 196.086 218.085 196.086 218.03V213.002C196.086 212.948 196.082 212.896 196.069 212.845C195.999 212.418 195.62 212.087 195.167 212.087H160.412C159.956 212.087 159.58 212.418 159.51 212.845C159.497 212.896 159.494 212.948 159.494 213.002" fill="#E7B910"/>
<path d="M170.52 218.188H167.433V212.845H170.52V218.188Z" fill="#FFCB0A"/>
<path d="M165.559 218.188H162.475V212.845H165.559V218.188Z" fill="#FFCB0A"/>
<path d="M159.51 212.845H196.069C195.999 212.418 195.62 212.087 195.167 212.087H160.412C159.956 212.087 159.58 212.418 159.51 212.845" fill="#E7B910"/>
<path d="M159.51 218.188L159.522 218.261C159.535 218.307 159.551 218.348 159.567 218.39L159.606 218.467C159.718 218.676 159.908 218.833 160.139 218.904L160.216 218.923C160.28 218.939 160.345 218.945 160.412 218.945H195.167C195.235 218.945 195.299 218.939 195.363 218.923L195.44 218.904L195.495 218.884L195.562 218.856C195.739 218.772 195.883 218.637 195.973 218.467L196.012 218.39C196.028 218.348 196.044 218.307 196.053 218.261L196.069 218.188H159.51" fill="#C59E0F"/>
<path d="M160.928 194.002V199.03C160.928 199.085 160.931 199.136 160.944 199.188L160.957 199.261C160.97 199.306 160.986 199.348 161.002 199.39L161.041 199.467C161.153 199.676 161.343 199.833 161.574 199.904L161.651 199.923C161.715 199.939 161.779 199.945 161.846 199.945H196.602C196.67 199.945 196.734 199.939 196.798 199.923L196.875 199.904L196.929 199.884L196.997 199.855C197.173 199.772 197.318 199.637 197.408 199.467L197.447 199.39C197.463 199.348 197.478 199.306 197.488 199.261L197.504 199.188C197.517 199.136 197.52 199.085 197.52 199.03V194.002C197.52 193.948 197.517 193.896 197.504 193.845C197.434 193.418 197.055 193.087 196.602 193.087H161.846C161.391 193.087 161.015 193.418 160.944 193.845C160.931 193.896 160.928 193.948 160.928 194.002" fill="#E7B910"/>
<path d="M171.955 199.188H168.868V193.845H171.955V199.188Z" fill="#FFCB0A"/>
<path d="M166.994 199.188H163.91V193.845H166.994V199.188Z" fill="#FFCB0A"/>
<path d="M160.944 193.845H197.504C197.434 193.418 197.055 193.087 196.602 193.087H161.847C161.391 193.087 161.015 193.418 160.944 193.845" fill="#E7B910"/>
<path d="M160.944 199.188L160.957 199.261C160.97 199.307 160.986 199.348 161.002 199.39L161.041 199.467C161.153 199.676 161.343 199.833 161.574 199.904L161.651 199.923C161.715 199.939 161.779 199.945 161.847 199.945H196.602C196.67 199.945 196.734 199.939 196.798 199.923L196.875 199.904L196.93 199.884L196.997 199.856C197.174 199.772 197.318 199.637 197.408 199.467L197.447 199.39C197.463 199.348 197.479 199.307 197.488 199.261L197.504 199.188H160.944" fill="#C59E0F"/>
<path d="M164.363 206.915V211.943C164.363 211.998 164.366 212.049 164.379 212.101L164.392 212.175C164.405 212.22 164.421 212.261 164.437 212.303L164.475 212.38C164.588 212.589 164.777 212.746 165.009 212.817L165.085 212.836C165.15 212.852 165.214 212.858 165.281 212.858H200.037C200.104 212.858 200.168 212.852 200.233 212.836L200.31 212.817L200.364 212.797L200.432 212.769C200.608 212.685 200.753 212.55 200.843 212.38L200.881 212.303C200.897 212.261 200.913 212.22 200.923 212.175L200.939 212.101C200.952 212.049 200.955 211.998 200.955 211.943V206.915C200.955 206.861 200.952 206.809 200.939 206.758C200.869 206.331 200.489 206 200.037 206H165.281C164.826 206 164.45 206.331 164.379 206.758C164.366 206.809 164.363 206.861 164.363 206.915" fill="#E7B910"/>
<path d="M175.39 212.101H172.303V206.758H175.39V212.101Z" fill="#FFCB0A"/>
<path d="M170.429 212.101H167.345V206.758H170.429V212.101Z" fill="#FFCB0A"/>
<path d="M164.379 206.758H200.939C200.869 206.331 200.489 206 200.037 206H165.281C164.826 206 164.45 206.331 164.379 206.758" fill="#E7B910"/>
<path d="M164.379 212.101L164.392 212.175C164.405 212.22 164.421 212.261 164.437 212.303L164.476 212.38C164.588 212.589 164.777 212.746 165.009 212.817L165.085 212.836C165.15 212.852 165.214 212.858 165.281 212.858H200.037C200.104 212.858 200.169 212.852 200.233 212.836L200.31 212.817L200.364 212.797L200.432 212.769C200.608 212.685 200.753 212.55 200.843 212.38L200.881 212.303C200.897 212.261 200.913 212.22 200.923 212.175L200.939 212.101H164.379" fill="#C59E0F"/>
<path d="M165.798 187.915V192.943C165.798 192.998 165.801 193.049 165.814 193.101L165.827 193.175C165.84 193.22 165.855 193.261 165.872 193.303L165.91 193.38C166.023 193.589 166.212 193.746 166.443 193.817L166.52 193.836C166.584 193.852 166.649 193.858 166.716 193.858H201.472C201.539 193.858 201.603 193.852 201.667 193.836L201.745 193.817L201.799 193.797L201.867 193.769C202.043 193.685 202.188 193.55 202.277 193.38L202.316 193.303C202.332 193.261 202.348 193.22 202.358 193.175L202.374 193.101C202.387 193.049 202.39 192.998 202.39 192.943V187.915C202.39 187.861 202.387 187.809 202.374 187.758C202.303 187.331 201.924 187 201.472 187H166.716C166.26 187 165.885 187.331 165.814 187.758C165.801 187.809 165.798 187.861 165.798 187.915" fill="#E7B910"/>
<path d="M176.825 193.101H173.738V187.758H176.825V193.101Z" fill="#FFCB0A"/>
<path d="M171.864 193.101H168.78V187.758H171.864V193.101Z" fill="#FFCB0A"/>
<path d="M165.814 187.758H202.374C202.303 187.331 201.924 187 201.472 187H166.716C166.26 187 165.885 187.331 165.814 187.758" fill="#E7B910"/>
<path d="M165.814 193.101L165.827 193.175C165.84 193.22 165.855 193.261 165.872 193.303L165.91 193.38C166.023 193.589 166.212 193.746 166.443 193.817L166.52 193.836C166.584 193.852 166.649 193.858 166.716 193.858H201.472C201.539 193.858 201.603 193.852 201.667 193.836L201.745 193.817L201.799 193.797L201.867 193.769C202.043 193.685 202.188 193.55 202.277 193.38L202.316 193.303C202.332 193.261 202.348 193.22 202.358 193.175L202.374 193.101H165.814" fill="#C59E0F"/>
<path d="M136.982 255.611V260.639C136.982 260.693 136.979 260.745 136.966 260.796L136.953 260.87C136.941 260.915 136.925 260.957 136.908 260.999L136.87 261.076C136.758 261.284 136.568 261.442 136.337 261.512L136.26 261.531C136.196 261.548 136.131 261.554 136.064 261.554H101.308C101.241 261.554 101.177 261.548 101.113 261.531L101.035 261.512L100.981 261.493L100.913 261.464C100.737 261.381 100.592 261.246 100.503 261.076L100.464 260.999C100.448 260.957 100.432 260.915 100.422 260.87L100.406 260.796C100.394 260.745 100.39 260.693 100.39 260.639V255.611C100.39 255.556 100.394 255.505 100.406 255.453C100.477 255.026 100.856 254.696 101.308 254.696H136.064C136.52 254.696 136.895 255.026 136.966 255.453C136.979 255.505 136.982 255.556 136.982 255.611" fill="#E7B910"/>
<path d="M103.587 260.796H106.674V255.453H103.587V260.796Z" fill="#FFCB0A"/>
<path d="M108.548 260.796H111.632V255.453H108.548V260.796Z" fill="#FFCB0A"/>
<path d="M136.966 255.453H100.406C100.477 255.026 100.856 254.696 101.308 254.696H136.064C136.52 254.696 136.895 255.026 136.966 255.453" fill="#E7B910"/>
<path d="M136.966 260.796L136.953 260.87C136.94 260.915 136.925 260.957 136.908 260.999L136.87 261.076C136.757 261.284 136.568 261.442 136.337 261.512L136.26 261.531C136.196 261.548 136.131 261.554 136.064 261.554H101.308C101.241 261.554 101.177 261.548 101.113 261.531L101.035 261.512L100.981 261.493L100.913 261.464C100.737 261.381 100.592 261.246 100.503 261.076L100.464 260.999C100.448 260.957 100.432 260.915 100.422 260.87L100.406 260.796H136.966" fill="#C59E0F"/>
<path d="M139.417 249.524V254.552C139.417 254.606 139.414 254.658 139.401 254.709L139.388 254.783C139.375 254.828 139.359 254.87 139.343 254.912L139.305 254.989C139.192 255.197 139.003 255.355 138.771 255.425L138.695 255.444C138.63 255.461 138.566 255.467 138.499 255.467H103.743C103.676 255.467 103.612 255.461 103.547 255.444L103.47 255.425L103.416 255.406L103.348 255.377C103.172 255.294 103.027 255.159 102.937 254.989L102.899 254.912C102.883 254.87 102.867 254.828 102.857 254.783L102.841 254.709C102.828 254.658 102.825 254.606 102.825 254.552V249.524C102.825 249.469 102.828 249.418 102.841 249.366C102.911 248.939 103.291 248.609 103.743 248.609H138.499C138.954 248.609 139.33 248.939 139.401 249.366C139.414 249.418 139.417 249.469 139.417 249.524" fill="#E7B910"/>
<path d="M128.39 254.709H131.477V249.366H128.39V254.709Z" fill="#FFCB0A"/>
<path d="M133.351 254.709H136.435V249.366H133.351V254.709Z" fill="#FFCB0A"/>
<path d="M139.401 249.366H102.841C102.911 248.939 103.291 248.609 103.743 248.609H138.499C138.954 248.609 139.33 248.939 139.401 249.366" fill="#E7B910"/>
<path d="M139.401 254.709L139.388 254.783C139.375 254.828 139.359 254.87 139.343 254.912L139.305 254.989C139.192 255.197 139.003 255.355 138.771 255.425L138.695 255.444C138.63 255.461 138.566 255.467 138.499 255.467H103.743C103.676 255.467 103.612 255.461 103.547 255.444L103.47 255.425L103.416 255.406L103.348 255.377C103.172 255.294 103.027 255.159 102.937 254.989L102.899 254.912C102.883 254.87 102.867 254.828 102.857 254.783L102.841 254.709H139.401" fill="#C59E0F"/>
<path d="M136.982 243.437V248.465C136.982 248.519 136.979 248.571 136.966 248.622L136.953 248.696C136.941 248.741 136.925 248.783 136.908 248.825L136.87 248.902C136.758 249.11 136.568 249.268 136.337 249.338L136.26 249.358C136.196 249.374 136.131 249.38 136.064 249.38H101.308C101.241 249.38 101.177 249.374 101.113 249.358L101.035 249.338L100.981 249.319L100.913 249.29C100.737 249.207 100.592 249.072 100.503 248.902L100.464 248.825C100.448 248.783 100.432 248.741 100.422 248.696L100.406 248.622C100.394 248.571 100.39 248.519 100.39 248.465V243.437C100.39 243.382 100.394 243.331 100.406 243.279C100.477 242.852 100.856 242.522 101.308 242.522H136.064C136.52 242.522 136.895 242.852 136.966 243.279C136.979 243.331 136.982 243.382 136.982 243.437" fill="#E7B910"/>
<path d="M103.587 248.622H106.674V243.279H103.587V248.622Z" fill="#FFCB0A"/>
<path d="M108.548 248.622H111.632V243.279H108.548V248.622Z" fill="#FFCB0A"/>
<path d="M136.966 243.279H100.406C100.477 242.852 100.856 242.522 101.308 242.522H136.064C136.52 242.522 136.895 242.852 136.966 243.279" fill="#E7B910"/>
<path d="M136.966 248.622L136.953 248.696C136.94 248.741 136.925 248.783 136.908 248.825L136.87 248.902C136.757 249.11 136.568 249.268 136.337 249.338L136.26 249.358C136.196 249.374 136.131 249.38 136.064 249.38H101.308C101.241 249.38 101.177 249.374 101.113 249.358L101.035 249.338L100.981 249.319L100.913 249.29C100.737 249.207 100.592 249.072 100.503 248.902L100.464 248.825C100.448 248.783 100.432 248.741 100.422 248.696L100.406 248.622H136.966" fill="#C59E0F"/>
<path d="M139.417 237.35V242.378C139.417 242.433 139.414 242.484 139.401 242.535L139.388 242.609C139.375 242.654 139.359 242.696 139.343 242.738L139.305 242.815C139.192 243.023 139.003 243.181 138.771 243.252L138.695 243.271C138.63 243.287 138.566 243.293 138.499 243.293H103.743C103.676 243.293 103.612 243.287 103.547 243.271L103.47 243.252L103.416 243.232L103.348 243.203C103.172 243.12 103.027 242.985 102.937 242.815L102.899 242.738C102.883 242.696 102.867 242.654 102.857 242.609L102.841 242.535C102.828 242.484 102.825 242.433 102.825 242.378V237.35C102.825 237.295 102.828 237.244 102.841 237.192C102.911 236.765 103.291 236.435 103.743 236.435H138.499C138.954 236.435 139.33 236.765 139.401 237.192C139.414 237.244 139.417 237.295 139.417 237.35" fill="#E7B910"/>
<path d="M128.39 242.536H131.477V237.193H128.39V242.536Z" fill="#FFCB0A"/>
<path d="M133.351 242.536H136.435V237.193H133.351V242.536Z" fill="#FFCB0A"/>
<path d="M139.401 237.192H102.841C102.911 236.765 103.291 236.435 103.743 236.435H138.499C138.954 236.435 139.33 236.765 139.401 237.192" fill="#E7B910"/>
<path d="M139.401 242.536L139.388 242.609C139.375 242.654 139.359 242.696 139.343 242.738L139.305 242.815C139.192 243.024 139.003 243.181 138.771 243.252L138.695 243.271C138.63 243.287 138.566 243.293 138.499 243.293H103.743C103.676 243.293 103.612 243.287 103.547 243.271L103.47 243.252L103.416 243.232L103.348 243.203C103.172 243.12 103.027 242.985 102.937 242.815L102.899 242.738C102.883 242.696 102.867 242.654 102.857 242.609L102.841 242.536H139.401" fill="#C59E0F"/>
<path d="M141.852 231.263V236.291C141.852 236.346 141.849 236.397 141.836 236.448L141.823 236.522C141.81 236.567 141.794 236.609 141.778 236.651L141.739 236.728C141.627 236.936 141.437 237.094 141.206 237.165L141.129 237.184C141.065 237.2 141.001 237.206 140.934 237.206H106.178C106.11 237.206 106.046 237.2 105.982 237.184L105.905 237.165L105.851 237.145L105.783 237.116C105.607 237.033 105.462 236.898 105.372 236.728L105.333 236.651C105.317 236.609 105.302 236.567 105.292 236.522L105.276 236.448C105.263 236.397 105.26 236.346 105.26 236.291V231.263C105.26 231.208 105.263 231.157 105.276 231.105C105.346 230.678 105.725 230.348 106.178 230.348H140.934C141.389 230.348 141.765 230.678 141.836 231.105C141.849 231.157 141.852 231.208 141.852 231.263" fill="#E7B910"/>
<path d="M108.457 236.449H111.544V231.105H108.457V236.449Z" fill="#FFCB0A"/>
<path d="M113.418 236.449H116.502V231.105H113.418V236.449Z" fill="#FFCB0A"/>
<path d="M141.836 231.105H105.276C105.346 230.678 105.725 230.348 106.178 230.348H140.934C141.389 230.348 141.765 230.678 141.836 231.105" fill="#E7B910"/>
<path d="M141.836 236.448L141.823 236.522C141.81 236.567 141.794 236.609 141.778 236.651L141.739 236.728C141.627 236.936 141.437 237.094 141.206 237.165L141.129 237.184C141.065 237.2 141.001 237.206 140.934 237.206H106.178C106.11 237.206 106.046 237.2 105.982 237.184L105.905 237.165L105.851 237.145L105.783 237.116C105.607 237.033 105.462 236.898 105.372 236.728L105.333 236.651C105.317 236.609 105.302 236.567 105.292 236.522L105.276 236.448H141.836" fill="#C59E0F"/>
<path d="M144.286 225.176V230.204C144.286 230.259 144.283 230.31 144.27 230.362L144.258 230.435C144.245 230.48 144.229 230.522 144.213 230.564L144.174 230.641C144.062 230.85 143.872 231.007 143.641 231.078L143.564 231.097C143.5 231.113 143.436 231.119 143.368 231.119H108.613C108.545 231.119 108.481 231.113 108.417 231.097L108.34 231.078L108.285 231.058L108.218 231.029C108.041 230.946 107.897 230.811 107.807 230.641L107.768 230.564C107.752 230.522 107.736 230.48 107.727 230.435L107.711 230.362C107.698 230.31 107.694 230.259 107.694 230.204V225.176C107.694 225.121 107.698 225.07 107.711 225.018C107.781 224.592 108.16 224.261 108.613 224.261H143.368C143.824 224.261 144.2 224.592 144.27 225.018C144.283 225.07 144.286 225.121 144.286 225.176" fill="#E7B910"/>
<path d="M133.26 230.362H136.347V225.019H133.26V230.362Z" fill="#FFCB0A"/>
<path d="M138.221 230.362H141.305V225.019H138.221V230.362Z" fill="#FFCB0A"/>
<path d="M144.27 225.018H107.711C107.781 224.592 108.16 224.261 108.613 224.261H143.368C143.824 224.261 144.2 224.592 144.27 225.018" fill="#E7B910"/>
<path d="M144.27 230.362L144.258 230.435C144.245 230.48 144.229 230.522 144.213 230.564L144.174 230.641C144.062 230.85 143.872 231.007 143.641 231.078L143.564 231.097C143.5 231.113 143.435 231.119 143.368 231.119H108.613C108.545 231.119 108.481 231.113 108.417 231.097L108.34 231.078L108.285 231.058L108.218 231.029C108.041 230.946 107.897 230.811 107.807 230.641L107.768 230.564C107.752 230.522 107.736 230.48 107.727 230.435L107.711 230.362H144.27" fill="#C59E0F"/>
<path d="M141.852 219.089V224.117C141.852 224.172 141.849 224.223 141.836 224.275L141.823 224.348C141.81 224.394 141.794 224.435 141.778 224.477L141.739 224.554C141.627 224.763 141.437 224.92 141.206 224.991L141.129 225.01C141.065 225.026 141.001 225.032 140.934 225.032H106.178C106.11 225.032 106.046 225.026 105.982 225.01L105.905 224.991L105.851 224.971L105.783 224.943C105.607 224.859 105.462 224.724 105.372 224.554L105.333 224.477C105.317 224.435 105.302 224.394 105.292 224.348L105.276 224.275C105.263 224.223 105.26 224.172 105.26 224.117V219.089C105.26 219.035 105.263 218.983 105.276 218.932C105.346 218.505 105.725 218.174 106.178 218.174H140.934C141.389 218.174 141.765 218.505 141.836 218.932C141.849 218.983 141.852 219.035 141.852 219.089" fill="#E7B910"/>
<path d="M108.457 224.275H111.544V218.932H108.457V224.275Z" fill="#FFCB0A"/>
<path d="M113.418 224.275H116.502V218.932H113.418V224.275Z" fill="#FFCB0A"/>
<path d="M141.836 218.932H105.276C105.346 218.505 105.725 218.174 106.178 218.174H140.934C141.389 218.174 141.765 218.505 141.836 218.932" fill="#E7B910"/>
<path d="M141.836 224.275L141.823 224.348C141.81 224.394 141.794 224.435 141.778 224.477L141.739 224.554C141.627 224.763 141.437 224.92 141.206 224.991L141.129 225.01C141.065 225.026 141.001 225.032 140.934 225.032H106.178C106.11 225.032 106.046 225.026 105.982 225.01L105.905 224.991L105.851 224.971L105.783 224.943C105.607 224.859 105.462 224.724 105.372 224.554L105.333 224.477C105.317 224.435 105.302 224.394 105.292 224.348L105.276 224.275H141.836" fill="#C59E0F"/>
<path d="M140.417 200.089V205.117C140.417 205.172 140.414 205.223 140.401 205.275L140.388 205.348C140.375 205.394 140.359 205.435 140.343 205.477L140.305 205.554C140.192 205.763 140.003 205.92 139.771 205.991L139.695 206.01C139.63 206.026 139.566 206.032 139.499 206.032H104.743C104.676 206.032 104.612 206.026 104.547 206.01L104.47 205.991L104.416 205.971L104.348 205.943C104.172 205.859 104.027 205.724 103.937 205.554L103.899 205.477C103.883 205.435 103.867 205.394 103.857 205.348L103.841 205.275C103.828 205.223 103.825 205.172 103.825 205.117V200.089C103.825 200.035 103.828 199.983 103.841 199.932C103.911 199.505 104.291 199.174 104.743 199.174H139.499C139.954 199.174 140.33 199.505 140.401 199.932C140.414 199.983 140.417 200.035 140.417 200.089" fill="#E7B910"/>
<path d="M107.022 205.275H110.109V199.932H107.022V205.275Z" fill="#FFCB0A"/>
<path d="M111.983 205.275H115.067V199.932H111.983V205.275Z" fill="#FFCB0A"/>
<path d="M140.401 199.932H103.841C103.911 199.505 104.291 199.174 104.743 199.174H139.499C139.954 199.174 140.33 199.505 140.401 199.932" fill="#E7B910"/>
<path d="M140.401 205.275L140.388 205.348C140.375 205.394 140.359 205.435 140.343 205.477L140.305 205.554C140.192 205.763 140.003 205.92 139.771 205.991L139.695 206.01C139.63 206.026 139.566 206.032 139.499 206.032H104.743C104.676 206.032 104.612 206.026 104.547 206.01L104.47 205.991L104.416 205.971L104.348 205.943C104.172 205.859 104.027 205.724 103.937 205.554L103.899 205.477C103.883 205.435 103.867 205.394 103.857 205.348L103.841 205.275H140.401" fill="#C59E0F"/>
<path d="M144.286 213.002V218.03C144.286 218.085 144.283 218.136 144.27 218.188L144.258 218.261C144.245 218.306 144.229 218.348 144.213 218.39L144.174 218.467C144.062 218.676 143.872 218.833 143.641 218.904L143.564 218.923C143.5 218.939 143.436 218.945 143.368 218.945H108.613C108.545 218.945 108.481 218.939 108.417 218.923L108.34 218.904L108.285 218.884L108.218 218.855C108.041 218.772 107.897 218.637 107.807 218.467L107.768 218.39C107.752 218.348 107.736 218.306 107.727 218.261L107.711 218.188C107.698 218.136 107.694 218.085 107.694 218.03V213.002C107.694 212.948 107.698 212.896 107.711 212.845C107.781 212.418 108.16 212.087 108.613 212.087H143.368C143.824 212.087 144.2 212.418 144.27 212.845C144.283 212.896 144.286 212.948 144.286 213.002" fill="#E7B910"/>
<path d="M133.26 218.188H136.347V212.845H133.26V218.188Z" fill="#FFCB0A"/>
<path d="M138.221 218.188H141.305V212.845H138.221V218.188Z" fill="#FFCB0A"/>
<path d="M144.27 212.845H107.711C107.781 212.418 108.16 212.087 108.613 212.087H143.368C143.824 212.087 144.2 212.418 144.27 212.845" fill="#E7B910"/>
<path d="M144.27 218.188L144.258 218.261C144.245 218.307 144.229 218.348 144.213 218.39L144.174 218.467C144.062 218.676 143.872 218.833 143.641 218.904L143.564 218.923C143.5 218.939 143.435 218.945 143.368 218.945H108.613C108.545 218.945 108.481 218.939 108.417 218.923L108.34 218.904L108.285 218.884L108.218 218.856C108.041 218.772 107.897 218.637 107.807 218.467L107.768 218.39C107.752 218.348 107.736 218.307 107.727 218.261L107.711 218.188H144.27" fill="#C59E0F"/>
<path d="M142.852 194.002V199.03C142.852 199.085 142.849 199.136 142.836 199.188L142.823 199.261C142.81 199.306 142.794 199.348 142.778 199.39L142.739 199.467C142.627 199.676 142.437 199.833 142.206 199.904L142.129 199.923C142.065 199.939 142.001 199.945 141.934 199.945H107.178C107.11 199.945 107.046 199.939 106.982 199.923L106.905 199.904L106.851 199.884L106.783 199.855C106.607 199.772 106.462 199.637 106.372 199.467L106.333 199.39C106.317 199.348 106.302 199.306 106.292 199.261L106.276 199.188C106.263 199.136 106.26 199.085 106.26 199.03V194.002C106.26 193.948 106.263 193.896 106.276 193.845C106.346 193.418 106.725 193.087 107.178 193.087H141.934C142.389 193.087 142.765 193.418 142.836 193.845C142.849 193.896 142.852 193.948 142.852 194.002" fill="#E7B910"/>
<path d="M131.825 199.188H134.912V193.845H131.825V199.188Z" fill="#FFCB0A"/>
<path d="M136.786 199.188H139.87V193.845H136.786V199.188Z" fill="#FFCB0A"/>
<path d="M142.836 193.845H106.276C106.346 193.418 106.725 193.087 107.178 193.087H141.934C142.389 193.087 142.765 193.418 142.836 193.845" fill="#E7B910"/>
<path d="M142.836 199.188L142.823 199.261C142.81 199.307 142.794 199.348 142.778 199.39L142.739 199.467C142.627 199.676 142.437 199.833 142.206 199.904L142.129 199.923C142.065 199.939 142.001 199.945 141.934 199.945H107.178C107.11 199.945 107.046 199.939 106.982 199.923L106.905 199.904L106.851 199.884L106.783 199.856C106.607 199.772 106.462 199.637 106.372 199.467L106.333 199.39C106.317 199.348 106.302 199.307 106.292 199.261L106.276 199.188H142.836" fill="#C59E0F"/>
<path d="M139.417 206.915V211.943C139.417 211.998 139.414 212.049 139.401 212.101L139.388 212.175C139.375 212.22 139.359 212.261 139.343 212.303L139.305 212.38C139.192 212.589 139.003 212.746 138.771 212.817L138.695 212.836C138.63 212.852 138.566 212.858 138.499 212.858H103.743C103.676 212.858 103.612 212.852 103.547 212.836L103.47 212.817L103.416 212.797L103.348 212.769C103.172 212.685 103.027 212.55 102.937 212.38L102.899 212.303C102.883 212.261 102.867 212.22 102.857 212.175L102.841 212.101C102.828 212.049 102.825 211.998 102.825 211.943V206.915C102.825 206.861 102.828 206.809 102.841 206.758C102.911 206.331 103.291 206 103.743 206H138.499C138.954 206 139.33 206.331 139.401 206.758C139.414 206.809 139.417 206.861 139.417 206.915" fill="#E7B910"/>
<path d="M128.39 212.101H131.477V206.758H128.39V212.101Z" fill="#FFCB0A"/>
<path d="M133.351 212.101H136.435V206.758H133.351V212.101Z" fill="#FFCB0A"/>
<path d="M139.401 206.758H102.841C102.911 206.331 103.291 206 103.743 206H138.499C138.954 206 139.33 206.331 139.401 206.758" fill="#E7B910"/>
<path d="M139.401 212.101L139.388 212.175C139.375 212.22 139.359 212.261 139.343 212.303L139.305 212.38C139.192 212.589 139.003 212.746 138.771 212.817L138.695 212.836C138.63 212.852 138.566 212.858 138.499 212.858H103.743C103.676 212.858 103.612 212.852 103.547 212.836L103.47 212.817L103.416 212.797L103.348 212.769C103.172 212.685 103.027 212.55 102.937 212.38L102.899 212.303C102.883 212.261 102.867 212.22 102.857 212.175L102.841 212.101H139.401" fill="#C59E0F"/>
<path d="M137.982 187.915V192.943C137.982 192.998 137.979 193.049 137.966 193.101L137.953 193.175C137.941 193.22 137.925 193.261 137.908 193.303L137.87 193.38C137.758 193.589 137.568 193.746 137.337 193.817L137.26 193.836C137.196 193.852 137.131 193.858 137.064 193.858H102.308C102.241 193.858 102.177 193.852 102.113 193.836L102.035 193.817L101.981 193.797L101.913 193.769C101.737 193.685 101.592 193.55 101.503 193.38L101.464 193.303C101.448 193.261 101.432 193.22 101.422 193.175L101.406 193.101C101.394 193.049 101.39 192.998 101.39 192.943V187.915C101.39 187.861 101.394 187.809 101.406 187.758C101.477 187.331 101.856 187 102.308 187H137.064C137.52 187 137.895 187.331 137.966 187.758C137.979 187.809 137.982 187.861 137.982 187.915" fill="#E7B910"/>
<path d="M126.955 193.101H130.043V187.758H126.955V193.101Z" fill="#FFCB0A"/>
<path d="M131.916 193.101H135.001V187.758H131.916V193.101Z" fill="#FFCB0A"/>
<path d="M137.966 187.758H101.406C101.477 187.331 101.856 187 102.308 187H137.064C137.52 187 137.895 187.331 137.966 187.758" fill="#E7B910"/>
<path d="M137.966 193.101L137.953 193.175C137.94 193.22 137.925 193.261 137.908 193.303L137.87 193.38C137.757 193.589 137.568 193.746 137.337 193.817L137.26 193.836C137.196 193.852 137.131 193.858 137.064 193.858H102.308C102.241 193.858 102.177 193.852 102.113 193.836L102.035 193.817L101.981 193.797L101.913 193.769C101.737 193.685 101.592 193.55 101.503 193.38L101.464 193.303C101.448 193.261 101.432 193.22 101.422 193.175L101.406 193.101H137.966" fill="#C59E0F"/>
<path opacity="0.563802" fill-rule="evenodd" clip-rule="evenodd" d="M134.065 198.516C134.065 201.052 134.74 204.377 134.744 206.758C134.746 208.105 133.541 205.596 133.26 206.758C132.912 208.196 133.472 213.288 133.458 214.845C133.452 215.584 137.285 215.25 137.276 216C137.264 216.97 138.018 218.537 137.276 219.087C136.875 219.384 135.043 220.948 135.001 221.603C134.906 223.065 135.176 224.718 135.001 227.032C134.947 227.733 138.05 226.93 137.966 227.913C137.893 228.781 137.728 230.026 137.474 231.647C137.333 232.541 135.886 230.732 135.587 232.362C135.427 233.232 135.248 235.483 135.001 237.192C134.899 237.897 133.617 237.665 133.458 238.814C133.298 239.974 133.679 240.927 133.458 243.739C133.406 244.414 130.859 243.922 130.757 245C130.656 246.085 130.757 251.001 130.757 251.001L132.639 251.38C132.639 251.38 132.7 255.282 132.406 256.139C132.359 256.276 130.757 256.139 130.757 256.139V261.175L170.129 261.554L170.328 258.348H172.303L172.417 249.826H170.328L170.221 245.951H172.832V239.652H175.39V233.565H177.434V225.478H174.999V221.087H177.216V213.304H172.417L172.303 208.478L173.305 207.653L173.564 202.603L176.694 201.174L176.271 193.845C176.271 193.845 163.365 194.461 154.694 195.087C145.691 195.737 134.065 177.108 134.065 198.516Z" fill="#A48615"/>
<path d="M168.982 257.611V262.639C168.982 262.693 168.979 262.745 168.966 262.796L168.953 262.87C168.941 262.915 168.925 262.957 168.908 262.999L168.87 263.076C168.758 263.284 168.568 263.442 168.337 263.512L168.26 263.531C168.196 263.548 168.131 263.554 168.064 263.554H133.308C133.241 263.554 133.177 263.548 133.113 263.531L133.035 263.512L132.981 263.493L132.913 263.464C132.737 263.381 132.592 263.246 132.503 263.076L132.464 262.999C132.448 262.957 132.432 262.915 132.422 262.87L132.406 262.796C132.394 262.745 132.39 262.693 132.39 262.639V257.611C132.39 257.556 132.394 257.505 132.406 257.453C132.477 257.026 132.856 256.696 133.308 256.696H168.064C168.52 256.696 168.895 257.026 168.966 257.453C168.979 257.505 168.982 257.556 168.982 257.611" fill="#E7B910"/>
<path d="M135.587 262.796H138.674V257.453H135.587V262.796Z" fill="#FFCB0A"/>
<path d="M140.548 262.796H143.632V257.453H140.548V262.796Z" fill="#FFCB0A"/>
<path d="M168.966 257.453H132.406C132.477 257.026 132.856 256.696 133.308 256.696H168.064C168.52 256.696 168.895 257.026 168.966 257.453" fill="#E7B910"/>
<path d="M168.966 262.796L168.953 262.87C168.94 262.915 168.925 262.957 168.908 262.999L168.87 263.076C168.757 263.284 168.568 263.442 168.337 263.512L168.26 263.531C168.196 263.548 168.131 263.554 168.064 263.554H133.308C133.241 263.554 133.177 263.548 133.113 263.531L133.035 263.512L132.981 263.493L132.913 263.464C132.737 263.381 132.592 263.246 132.503 263.076L132.464 262.999C132.448 262.957 132.432 262.915 132.422 262.87L132.406 262.796H168.966" fill="#C59E0F"/>
<path d="M75.9821 257.089V262.117C75.9821 262.172 75.979 262.223 75.9661 262.275L75.9533 262.348C75.9405 262.394 75.9246 262.435 75.9083 262.477L75.8698 262.554C75.7575 262.763 75.5679 262.92 75.3367 262.991L75.2598 263.01C75.1957 263.026 75.1312 263.032 75.064 263.032H40.3085C40.2409 263.032 40.1768 263.026 40.1127 263.01L40.0354 262.991L39.981 262.971L39.9134 262.943C39.737 262.859 39.5924 262.724 39.5027 262.554L39.4638 262.477C39.4479 262.435 39.432 262.394 39.4223 262.348L39.4063 262.275C39.3935 262.223 39.39 262.172 39.39 262.117V257.089C39.39 257.035 39.3935 256.983 39.4063 256.932C39.4767 256.505 39.8559 256.174 40.3085 256.174H75.064C75.5197 256.174 75.8954 256.505 75.9661 256.932C75.979 256.983 75.9821 257.035 75.9821 257.089" fill="#E7B910"/>
<path d="M42.5872 262.275H45.6745V256.932H42.5872V262.275Z" fill="#FFCB0A"/>
<path d="M47.5483 262.275H50.6325V256.932H47.5483V262.275Z" fill="#FFCB0A"/>
<path d="M75.9661 256.932H39.4063C39.4766 256.505 39.8558 256.174 40.3085 256.174H75.064C75.5197 256.174 75.8954 256.505 75.9661 256.932" fill="#E7B910"/>
<path d="M75.9661 262.275L75.9533 262.348C75.9405 262.394 75.9246 262.435 75.9082 262.477L75.8698 262.554C75.7575 262.763 75.5679 262.92 75.3367 262.991L75.2598 263.01C75.1957 263.026 75.1312 263.032 75.064 263.032H40.3085C40.2409 263.032 40.1768 263.026 40.1127 263.01L40.0353 262.991L39.9809 262.971L39.9133 262.943C39.7369 262.859 39.5924 262.724 39.5027 262.554L39.4638 262.477C39.4479 262.435 39.432 262.394 39.4222 262.348L39.4063 262.275H75.9661" fill="#C59E0F"/>
<path d="M171.417 251.524V256.552C171.417 256.606 171.414 256.658 171.401 256.709L171.388 256.783C171.375 256.828 171.359 256.87 171.343 256.912L171.305 256.989C171.192 257.197 171.003 257.355 170.772 257.425L170.695 257.444C170.631 257.461 170.566 257.467 170.499 257.467H135.743C135.676 257.467 135.612 257.461 135.547 257.444L135.47 257.425L135.416 257.406L135.348 257.377C135.172 257.294 135.027 257.159 134.938 256.989L134.899 256.912C134.883 256.87 134.867 256.828 134.857 256.783L134.841 256.709C134.828 256.658 134.825 256.606 134.825 256.552V251.524C134.825 251.469 134.828 251.418 134.841 251.366C134.911 250.939 135.291 250.609 135.743 250.609H170.499C170.955 250.609 171.33 250.939 171.401 251.366C171.414 251.418 171.417 251.469 171.417 251.524" fill="#E7B910"/>
<path d="M160.39 256.709H163.477V251.366H160.39V256.709Z" fill="#FFCB0A"/>
<path d="M165.351 256.709H168.435V251.366H165.351V256.709Z" fill="#FFCB0A"/>
<path d="M171.401 251.366H134.841C134.911 250.939 135.291 250.609 135.743 250.609H170.499C170.955 250.609 171.33 250.939 171.401 251.366" fill="#E7B910"/>
<path d="M171.401 256.709L171.388 256.783C171.375 256.828 171.359 256.87 171.343 256.912L171.305 256.989C171.192 257.197 171.003 257.355 170.772 257.425L170.695 257.444C170.63 257.461 170.566 257.467 170.499 257.467H135.743C135.676 257.467 135.612 257.461 135.547 257.444L135.47 257.425L135.416 257.406L135.348 257.377C135.172 257.294 135.027 257.159 134.937 256.989L134.899 256.912C134.883 256.87 134.867 256.828 134.857 256.783L134.841 256.709H171.401" fill="#C59E0F"/>
<path d="M78.4168 251.002V256.03C78.4168 256.085 78.4137 256.136 78.4009 256.188L78.3881 256.261C78.3753 256.306 78.3593 256.348 78.343 256.39L78.3045 256.467C78.1923 256.676 78.0027 256.833 77.7715 256.904L77.6946 256.923C77.6304 256.939 77.566 256.945 77.4987 256.945H42.7433C42.6756 256.945 42.6115 256.939 42.5474 256.923L42.4701 256.904L42.4157 256.884L42.3481 256.855C42.1717 256.772 42.0272 256.637 41.9374 256.467L41.8986 256.39C41.8827 256.348 41.8667 256.306 41.857 256.261L41.8411 256.188C41.8283 256.136 41.8248 256.085 41.8248 256.03V251.002C41.8248 250.948 41.8283 250.896 41.8411 250.845C41.9114 250.418 42.2906 250.087 42.7433 250.087H77.4987C77.9545 250.087 78.3302 250.418 78.4009 250.845C78.4137 250.896 78.4168 250.948 78.4168 251.002" fill="#E7B910"/>
<path d="M67.39 256.188H70.4773V250.845H67.39V256.188Z" fill="#FFCB0A"/>
<path d="M72.3511 256.188H75.4353V250.845H72.3511V256.188Z" fill="#FFCB0A"/>
<path d="M78.4009 250.845H41.8411C41.9114 250.418 42.2906 250.087 42.7432 250.087H77.4987C77.9545 250.087 78.3302 250.418 78.4009 250.845" fill="#E7B910"/>
<path d="M78.4009 256.188L78.3881 256.261C78.3752 256.307 78.3593 256.348 78.343 256.39L78.3045 256.467C78.1922 256.676 78.0026 256.833 77.7715 256.904L77.6945 256.923C77.6304 256.939 77.5659 256.945 77.4987 256.945H42.7432C42.6756 256.945 42.6115 256.939 42.5474 256.923L42.4701 256.904L42.4157 256.884L42.3481 256.856C42.1717 256.772 42.0272 256.637 41.9374 256.467L41.8986 256.39C41.8826 256.348 41.8667 256.307 41.857 256.261L41.8411 256.188H78.4009" fill="#C59E0F"/>
<path d="M168.982 245.437V250.465C168.982 250.519 168.979 250.571 168.966 250.622L168.953 250.696C168.941 250.741 168.925 250.783 168.908 250.825L168.87 250.902C168.758 251.11 168.568 251.268 168.337 251.338L168.26 251.358C168.196 251.374 168.131 251.38 168.064 251.38H133.308C133.241 251.38 133.177 251.374 133.113 251.358L133.035 251.338L132.981 251.319L132.913 251.29C132.737 251.207 132.592 251.072 132.503 250.902L132.464 250.825C132.448 250.783 132.432 250.741 132.422 250.696L132.406 250.622C132.394 250.571 132.39 250.519 132.39 250.465V245.437C132.39 245.382 132.394 245.331 132.406 245.279C132.477 244.852 132.856 244.522 133.308 244.522H168.064C168.52 244.522 168.895 244.852 168.966 245.279C168.979 245.331 168.982 245.382 168.982 245.437" fill="#E7B910"/>
<path d="M135.587 250.622H138.674V245.279H135.587V250.622Z" fill="#FFCB0A"/>
<path d="M140.548 250.622H143.632V245.279H140.548V250.622Z" fill="#FFCB0A"/>
<path d="M168.966 245.279H132.406C132.477 244.852 132.856 244.522 133.308 244.522H168.064C168.52 244.522 168.895 244.852 168.966 245.279" fill="#E7B910"/>
<path d="M168.966 250.622L168.953 250.696C168.94 250.741 168.925 250.783 168.908 250.825L168.87 250.902C168.757 251.11 168.568 251.268 168.337 251.338L168.26 251.358C168.196 251.374 168.131 251.38 168.064 251.38H133.308C133.241 251.38 133.177 251.374 133.113 251.358L133.035 251.338L132.981 251.319L132.913 251.29C132.737 251.207 132.592 251.072 132.503 250.902L132.464 250.825C132.448 250.783 132.432 250.741 132.422 250.696L132.406 250.622H168.966" fill="#C59E0F"/>
<path d="M75.9821 244.915V249.943C75.9821 249.998 75.979 250.049 75.9661 250.101L75.9533 250.175C75.9405 250.22 75.9246 250.261 75.9083 250.303L75.8698 250.38C75.7575 250.589 75.5679 250.746 75.3367 250.817L75.2598 250.836C75.1957 250.852 75.1312 250.858 75.064 250.858H40.3085C40.2409 250.858 40.1768 250.852 40.1127 250.836L40.0354 250.817L39.981 250.797L39.9134 250.769C39.737 250.685 39.5924 250.55 39.5027 250.38L39.4638 250.303C39.4479 250.261 39.432 250.22 39.4223 250.175L39.4063 250.101C39.3935 250.049 39.39 249.998 39.39 249.943V244.915C39.39 244.861 39.3935 244.809 39.4063 244.758C39.4767 244.331 39.8559 244 40.3085 244H75.064C75.5197 244 75.8954 244.331 75.9661 244.758C75.979 244.809 75.9821 244.861 75.9821 244.915" fill="#E7B910"/>
<path d="M42.5872 250.101H45.6745V244.758H42.5872V250.101Z" fill="#FFCB0A"/>
<path d="M47.5483 250.101H50.6325V244.758H47.5483V250.101Z" fill="#FFCB0A"/>
<path d="M75.9661 244.758H39.4063C39.4766 244.331 39.8558 244 40.3085 244H75.064C75.5197 244 75.8954 244.331 75.9661 244.758" fill="#E7B910"/>
<path d="M75.9661 250.101L75.9533 250.175C75.9405 250.22 75.9246 250.261 75.9082 250.303L75.8698 250.38C75.7575 250.589 75.5679 250.746 75.3367 250.817L75.2598 250.836C75.1957 250.852 75.1312 250.858 75.064 250.858H40.3085C40.2409 250.858 40.1768 250.852 40.1127 250.836L40.0353 250.817L39.9809 250.797L39.9133 250.769C39.7369 250.685 39.5924 250.55 39.5027 250.38L39.4638 250.303C39.4479 250.261 39.432 250.22 39.4222 250.175L39.4063 250.101H75.9661" fill="#C59E0F"/>
<path d="M171.417 239.35V244.378C171.417 244.433 171.414 244.484 171.401 244.535L171.388 244.609C171.375 244.654 171.359 244.696 171.343 244.738L171.305 244.815C171.192 245.023 171.003 245.181 170.772 245.252L170.695 245.271C170.631 245.287 170.566 245.293 170.499 245.293H135.743C135.676 245.293 135.612 245.287 135.547 245.271L135.47 245.252L135.416 245.232L135.348 245.203C135.172 245.12 135.027 244.985 134.938 244.815L134.899 244.738C134.883 244.696 134.867 244.654 134.857 244.609L134.841 244.535C134.828 244.484 134.825 244.433 134.825 244.378V239.35C134.825 239.295 134.828 239.244 134.841 239.192C134.911 238.765 135.291 238.435 135.743 238.435H170.499C170.955 238.435 171.33 238.765 171.401 239.192C171.414 239.244 171.417 239.295 171.417 239.35" fill="#E7B910"/>
<path d="M160.39 244.536H163.477V239.193H160.39V244.536Z" fill="#FFCB0A"/>
<path d="M165.351 244.536H168.435V239.193H165.351V244.536Z" fill="#FFCB0A"/>
<path d="M171.401 239.192H134.841C134.911 238.765 135.291 238.435 135.743 238.435H170.499C170.955 238.435 171.33 238.765 171.401 239.192" fill="#E7B910"/>
<path d="M171.401 244.536L171.388 244.609C171.375 244.654 171.359 244.696 171.343 244.738L171.305 244.815C171.192 245.024 171.003 245.181 170.772 245.252L170.695 245.271C170.63 245.287 170.566 245.293 170.499 245.293H135.743C135.676 245.293 135.612 245.287 135.547 245.271L135.47 245.252L135.416 245.232L135.348 245.203C135.172 245.12 135.027 244.985 134.937 244.815L134.899 244.738C134.883 244.696 134.867 244.654 134.857 244.609L134.841 244.536H171.401" fill="#C59E0F"/>
<path d="M173.852 233.263V238.291C173.852 238.346 173.849 238.397 173.836 238.448L173.823 238.522C173.81 238.567 173.794 238.609 173.778 238.651L173.739 238.728C173.627 238.936 173.437 239.094 173.206 239.165L173.129 239.184C173.065 239.2 173.001 239.206 172.934 239.206H138.178C138.11 239.206 138.046 239.2 137.982 239.184L137.905 239.165L137.851 239.145L137.783 239.116C137.607 239.033 137.462 238.898 137.372 238.728L137.333 238.651C137.317 238.609 137.302 238.567 137.292 238.522L137.276 238.448C137.263 238.397 137.26 238.346 137.26 238.291V233.263C137.26 233.208 137.263 233.157 137.276 233.105C137.346 232.678 137.725 232.348 138.178 232.348H172.934C173.389 232.348 173.765 232.678 173.836 233.105C173.849 233.157 173.852 233.208 173.852 233.263" fill="#E7B910"/>
<path d="M140.457 238.449H143.544V233.105H140.457V238.449Z" fill="#FFCB0A"/>
<path d="M145.418 238.449H148.502V233.105H145.418V238.449Z" fill="#FFCB0A"/>
<path d="M173.836 233.105H137.276C137.346 232.678 137.725 232.348 138.178 232.348H172.934C173.389 232.348 173.765 232.678 173.836 233.105" fill="#E7B910"/>
<path d="M173.836 238.448L173.823 238.522C173.81 238.567 173.794 238.609 173.778 238.651L173.739 238.728C173.627 238.936 173.437 239.094 173.206 239.165L173.129 239.184C173.065 239.2 173.001 239.206 172.934 239.206H138.178C138.11 239.206 138.046 239.2 137.982 239.184L137.905 239.165L137.851 239.145L137.783 239.116C137.607 239.033 137.462 238.898 137.372 238.728L137.333 238.651C137.317 238.609 137.302 238.567 137.292 238.522L137.276 238.448H173.836" fill="#C59E0F"/>
<path d="M176.286 227.176V232.204C176.286 232.259 176.283 232.31 176.27 232.362L176.258 232.435C176.245 232.48 176.229 232.522 176.213 232.564L176.174 232.641C176.062 232.85 175.872 233.007 175.641 233.078L175.564 233.097C175.5 233.113 175.436 233.119 175.368 233.119H140.613C140.545 233.119 140.481 233.113 140.417 233.097L140.34 233.078L140.285 233.058L140.218 233.029C140.041 232.946 139.897 232.811 139.807 232.641L139.768 232.564C139.752 232.522 139.736 232.48 139.727 232.435L139.711 232.362C139.698 232.31 139.694 232.259 139.694 232.204V227.176C139.694 227.121 139.698 227.07 139.711 227.018C139.781 226.592 140.16 226.261 140.613 226.261H175.368C175.824 226.261 176.2 226.592 176.27 227.018C176.283 227.07 176.286 227.121 176.286 227.176" fill="#E7B910"/>
<path d="M165.26 232.362H168.347V227.019H165.26V232.362Z" fill="#FFCB0A"/>
<path d="M170.221 232.362H173.305V227.019H170.221V232.362Z" fill="#FFCB0A"/>
<path d="M176.27 227.018H139.711C139.781 226.592 140.16 226.261 140.613 226.261H175.368C175.824 226.261 176.2 226.592 176.27 227.018" fill="#E7B910"/>
<path d="M176.27 232.362L176.258 232.435C176.245 232.48 176.229 232.522 176.213 232.564L176.174 232.641C176.062 232.85 175.872 233.007 175.641 233.078L175.564 233.097C175.5 233.113 175.435 233.119 175.368 233.119H140.613C140.545 233.119 140.481 233.113 140.417 233.097L140.34 233.078L140.285 233.058L140.218 233.029C140.041 232.946 139.897 232.811 139.807 232.641L139.768 232.564C139.752 232.522 139.736 232.48 139.727 232.435L139.711 232.362H176.27" fill="#C59E0F"/>
<path d="M173.852 221.089V226.117C173.852 226.172 173.849 226.223 173.836 226.275L173.823 226.348C173.81 226.394 173.794 226.435 173.778 226.477L173.739 226.554C173.627 226.763 173.437 226.92 173.206 226.991L173.129 227.01C173.065 227.026 173.001 227.032 172.934 227.032H138.178C138.11 227.032 138.046 227.026 137.982 227.01L137.905 226.991L137.851 226.971L137.783 226.943C137.607 226.859 137.462 226.724 137.372 226.554L137.333 226.477C137.317 226.435 137.302 226.394 137.292 226.348L137.276 226.275C137.263 226.223 137.26 226.172 137.26 226.117V221.089C137.26 221.035 137.263 220.983 137.276 220.932C137.346 220.505 137.725 220.174 138.178 220.174H172.934C173.389 220.174 173.765 220.505 173.836 220.932C173.849 220.983 173.852 221.035 173.852 221.089" fill="#E7B910"/>
<path d="M140.457 226.275H143.544V220.932H140.457V226.275Z" fill="#FFCB0A"/>
<path d="M145.418 226.275H148.502V220.932H145.418V226.275Z" fill="#FFCB0A"/>
<path d="M173.836 220.932H137.276C137.346 220.505 137.725 220.174 138.178 220.174H172.934C173.389 220.174 173.765 220.505 173.836 220.932" fill="#E7B910"/>
<path d="M173.836 226.275L173.823 226.348C173.81 226.394 173.794 226.435 173.778 226.477L173.739 226.554C173.627 226.763 173.437 226.92 173.206 226.991L173.129 227.01C173.065 227.026 173.001 227.032 172.934 227.032H138.178C138.11 227.032 138.046 227.026 137.982 227.01L137.905 226.991L137.851 226.971L137.783 226.943C137.607 226.859 137.462 226.724 137.372 226.554L137.333 226.477C137.317 226.435 137.302 226.394 137.292 226.348L137.276 226.275H173.836" fill="#C59E0F"/>
<path d="M172.417 202.089V207.117C172.417 207.172 172.414 207.223 172.401 207.275L172.388 207.348C172.375 207.394 172.359 207.435 172.343 207.477L172.305 207.554C172.192 207.763 172.003 207.92 171.772 207.991L171.695 208.01C171.631 208.026 171.566 208.032 171.499 208.032H136.743C136.676 208.032 136.612 208.026 136.547 208.01L136.47 207.991L136.416 207.971L136.348 207.943C136.172 207.859 136.027 207.724 135.938 207.554L135.899 207.477C135.883 207.435 135.867 207.394 135.857 207.348L135.841 207.275C135.828 207.223 135.825 207.172 135.825 207.117V202.089C135.825 202.035 135.828 201.983 135.841 201.932C135.911 201.505 136.291 201.174 136.743 201.174H171.499C171.955 201.174 172.33 201.505 172.401 201.932C172.414 201.983 172.417 202.035 172.417 202.089" fill="#E7B910"/>
<path d="M139.022 207.275H142.109V201.932H139.022V207.275Z" fill="#FFCB0A"/>
<path d="M143.983 207.275H147.067V201.932H143.983V207.275Z" fill="#FFCB0A"/>
<path d="M172.401 201.932H135.841C135.911 201.505 136.291 201.174 136.743 201.174H171.499C171.955 201.174 172.33 201.505 172.401 201.932" fill="#E7B910"/>
<path d="M172.401 207.275L172.388 207.348C172.375 207.394 172.359 207.435 172.343 207.477L172.305 207.554C172.192 207.763 172.003 207.92 171.772 207.991L171.695 208.01C171.63 208.026 171.566 208.032 171.499 208.032H136.743C136.676 208.032 136.612 208.026 136.547 208.01L136.47 207.991L136.416 207.971L136.348 207.943C136.172 207.859 136.027 207.724 135.937 207.554L135.899 207.477C135.883 207.435 135.867 207.394 135.857 207.348L135.841 207.275H172.401" fill="#C59E0F"/>
<path d="M176.286 215.002V220.03C176.286 220.085 176.283 220.136 176.27 220.188L176.258 220.261C176.245 220.306 176.229 220.348 176.213 220.39L176.174 220.467C176.062 220.676 175.872 220.833 175.641 220.904L175.564 220.923C175.5 220.939 175.436 220.945 175.368 220.945H140.613C140.545 220.945 140.481 220.939 140.417 220.923L140.34 220.904L140.285 220.884L140.218 220.855C140.041 220.772 139.897 220.637 139.807 220.467L139.768 220.39C139.752 220.348 139.736 220.306 139.727 220.261L139.711 220.188C139.698 220.136 139.694 220.085 139.694 220.03V215.002C139.694 214.948 139.698 214.896 139.711 214.845C139.781 214.418 140.16 214.087 140.613 214.087H175.368C175.824 214.087 176.2 214.418 176.27 214.845C176.283 214.896 176.286 214.948 176.286 215.002" fill="#E7B910"/>
<path d="M165.26 220.188H168.347V214.845H165.26V220.188Z" fill="#FFCB0A"/>
<path d="M170.221 220.188H173.305V214.845H170.221V220.188Z" fill="#FFCB0A"/>
<path d="M176.27 214.845H139.711C139.781 214.418 140.16 214.087 140.613 214.087H175.368C175.824 214.087 176.2 214.418 176.27 214.845" fill="#E7B910"/>
<path d="M176.27 220.188L176.258 220.261C176.245 220.307 176.229 220.348 176.213 220.39L176.174 220.467C176.062 220.676 175.872 220.833 175.641 220.904L175.564 220.923C175.5 220.939 175.435 220.945 175.368 220.945H140.613C140.545 220.945 140.481 220.939 140.417 220.923L140.34 220.904L140.285 220.884L140.218 220.856C140.041 220.772 139.897 220.637 139.807 220.467L139.768 220.39C139.752 220.348 139.736 220.307 139.727 220.261L139.711 220.188H176.27" fill="#C59E0F"/>
<path d="M174.852 196.002V201.03C174.852 201.085 174.849 201.136 174.836 201.188L174.823 201.261C174.81 201.306 174.794 201.348 174.778 201.39L174.739 201.467C174.627 201.676 174.437 201.833 174.206 201.904L174.129 201.923C174.065 201.939 174.001 201.945 173.934 201.945H139.178C139.11 201.945 139.046 201.939 138.982 201.923L138.905 201.904L138.851 201.884L138.783 201.855C138.607 201.772 138.462 201.637 138.372 201.467L138.333 201.39C138.317 201.348 138.302 201.306 138.292 201.261L138.276 201.188C138.263 201.136 138.26 201.085 138.26 201.03V196.002C138.26 195.948 138.263 195.896 138.276 195.845C138.346 195.418 138.725 195.087 139.178 195.087H173.934C174.389 195.087 174.765 195.418 174.836 195.845C174.849 195.896 174.852 195.948 174.852 196.002" fill="#E7B910"/>
<path d="M163.825 201.188H166.912V195.845H163.825V201.188Z" fill="#FFCB0A"/>
<path d="M168.786 201.188H171.87V195.845H168.786V201.188Z" fill="#FFCB0A"/>
<path d="M174.836 195.845H138.276C138.346 195.418 138.725 195.087 139.178 195.087H173.934C174.389 195.087 174.765 195.418 174.836 195.845" fill="#E7B910"/>
<path d="M174.836 201.188L174.823 201.261C174.81 201.307 174.794 201.348 174.778 201.39L174.739 201.467C174.627 201.676 174.437 201.833 174.206 201.904L174.129 201.923C174.065 201.939 174.001 201.945 173.934 201.945H139.178C139.11 201.945 139.046 201.939 138.982 201.923L138.905 201.904L138.851 201.884L138.783 201.856C138.607 201.772 138.462 201.637 138.372 201.467L138.333 201.39C138.317 201.348 138.302 201.307 138.292 201.261L138.276 201.188H174.836" fill="#C59E0F"/>
<path d="M171.417 208.915V213.943C171.417 213.998 171.414 214.049 171.401 214.101L171.388 214.175C171.375 214.22 171.359 214.261 171.343 214.303L171.305 214.38C171.192 214.589 171.003 214.746 170.772 214.817L170.695 214.836C170.631 214.852 170.566 214.858 170.499 214.858H135.743C135.676 214.858 135.612 214.852 135.547 214.836L135.47 214.817L135.416 214.797L135.348 214.769C135.172 214.685 135.027 214.55 134.938 214.38L134.899 214.303C134.883 214.261 134.867 214.22 134.857 214.175L134.841 214.101C134.828 214.049 134.825 213.998 134.825 213.943V208.915C134.825 208.861 134.828 208.809 134.841 208.758C134.911 208.331 135.291 208 135.743 208H170.499C170.955 208 171.33 208.331 171.401 208.758C171.414 208.809 171.417 208.861 171.417 208.915" fill="#E7B910"/>
<path d="M160.39 214.101H163.477V208.758H160.39V214.101Z" fill="#FFCB0A"/>
<path d="M165.351 214.101H168.435V208.758H165.351V214.101Z" fill="#FFCB0A"/>
<path d="M171.401 208.758H134.841C134.911 208.331 135.291 208 135.743 208H170.499C170.955 208 171.33 208.331 171.401 208.758" fill="#E7B910"/>
<path d="M171.401 214.101L171.388 214.175C171.375 214.22 171.359 214.261 171.343 214.303L171.305 214.38C171.192 214.589 171.003 214.746 170.772 214.817L170.695 214.836C170.63 214.852 170.566 214.858 170.499 214.858H135.743C135.676 214.858 135.612 214.852 135.547 214.836L135.47 214.817L135.416 214.797L135.348 214.769C135.172 214.685 135.027 214.55 134.937 214.38L134.899 214.303C134.883 214.261 134.867 214.22 134.857 214.175L134.841 214.101H171.401" fill="#C59E0F"/>
<path d="M169.982 189.915V194.943C169.982 194.998 169.979 195.049 169.966 195.101L169.953 195.175C169.941 195.22 169.925 195.261 169.908 195.303L169.87 195.38C169.758 195.589 169.568 195.746 169.337 195.817L169.26 195.836C169.196 195.852 169.131 195.858 169.064 195.858H134.308C134.241 195.858 134.177 195.852 134.113 195.836L134.035 195.817L133.981 195.797L133.913 195.769C133.737 195.685 133.592 195.55 133.503 195.38L133.464 195.303C133.448 195.261 133.432 195.22 133.422 195.175L133.406 195.101C133.394 195.049 133.39 194.998 133.39 194.943V189.915C133.39 189.861 133.394 189.809 133.406 189.758C133.477 189.331 133.856 189 134.308 189H169.064C169.52 189 169.895 189.331 169.966 189.758C169.979 189.809 169.982 189.861 169.982 189.915" fill="#E7B910"/>
<path d="M158.955 195.101H162.043V189.758H158.955V195.101Z" fill="#FFCB0A"/>
<path d="M163.916 195.101H167.001V189.758H163.916V195.101Z" fill="#FFCB0A"/>
<path d="M169.966 189.758H133.406C133.477 189.331 133.856 189 134.308 189H169.064C169.52 189 169.895 189.331 169.966 189.758" fill="#E7B910"/>
<path d="M169.966 195.101L169.953 195.175C169.94 195.22 169.925 195.261 169.908 195.303L169.87 195.38C169.757 195.589 169.568 195.746 169.337 195.817L169.26 195.836C169.196 195.852 169.131 195.858 169.064 195.858H134.308C134.241 195.858 134.177 195.852 134.113 195.836L134.035 195.817L133.981 195.797L133.913 195.769C133.737 195.685 133.592 195.55 133.503 195.38L133.464 195.303C133.448 195.261 133.432 195.22 133.422 195.175L133.406 195.101H169.966" fill="#C59E0F"/>
<path opacity="0.563802" fill-rule="evenodd" clip-rule="evenodd" d="M78.3046 253.102L72.0491 247.621C72.0491 247.621 71.8831 252.817 72.2904 253.102C72.6977 253.386 78.3046 256.467 78.3046 256.467V253.102Z" fill="#A48615"/>
<path d="M96.5723 262.262L93.2807 266.065C92.9508 266.447 92.3711 266.488 91.9876 266.156L65.7079 243.411C65.3241 243.079 65.2825 242.499 65.6123 242.118L68.904 238.315C68.9385 238.275 68.9754 238.237 69.0174 238.207C69.3527 237.93 69.8535 237.927 70.197 238.224L96.4767 260.969C96.8206 261.267 96.8893 261.763 96.6624 262.134C96.6391 262.18 96.6069 262.222 96.5723 262.262" fill="#E7B910"/>
<path d="M69.765 246.922L67.4303 244.902L71.9198 239.715L74.254 241.736L69.765 246.922" fill="#FFCB0A"/>
<path d="M73.5139 250.167L72.9058 249.641L72.8153 249.563L72.1016 248.945L72.0137 248.869L71.1815 248.148L75.671 242.962L76.227 243.443L76.9407 244.061L77.5643 244.6L78.0029 244.98L73.5139 250.167" fill="#FFCB0A"/>
<path d="M90.2649 264.665L87.5778 262.34L86.5137 261.418L85.7999 260.8L85.0862 260.183L84.4312 259.616L88.9202 254.429L89.1211 254.603L89.3748 254.823L89.3756 254.823L93.9163 258.753L94.754 259.479L90.2649 264.665" fill="#FFCB0A"/>
<path d="M96.6624 262.134L69.0174 238.207C69.3527 237.93 69.8535 237.927 70.197 238.224L96.4767 260.969C96.8205 261.267 96.8893 261.763 96.6624 262.134" fill="#C59E0F"/>
<path d="M65.5222 242.246L93.1672 266.173C92.8319 266.451 92.3311 266.454 91.9877 266.156L65.7079 243.411C65.3641 243.113 65.2953 242.618 65.5222 242.246" fill="#C59E0F"/>
<path fill-rule="evenodd" clip-rule="evenodd" d="M77.6713 245.64C75.8876 246.114 75.5037 246.497 75.0305 248.281C74.5572 246.497 74.1738 246.114 72.39 245.64C74.1738 245.167 74.5572 244.784 75.0305 243C75.5037 244.784 75.8876 245.167 77.6713 245.64" fill="white"/>
<path fill-rule="evenodd" clip-rule="evenodd" d="M159.377 135.042C156.46 132.967 153.785 131.441 150.078 131.331C147.776 131.263 145.617 132.226 143.424 132.775C141.495 133.259 140.022 134.808 137.943 135.093C135.211 135.467 132.405 133.787 131.176 131.318C129.947 128.849 130.215 125.776 131.59 123.385C132.594 121.64 133.516 120.337 132.389 118.392C132.143 117.968 131.834 117.575 131.666 117.115C131.507 116.681 131.483 116.209 131.501 115.747C131.603 113.226 133.513 111.336 134.785 109.254C135.083 108.767 135.381 108.262 135.471 107.699C135.7 106.266 134.561 105.027 133.954 103.708C131.987 99.4367 135.344 94.578 138.611 92.015C140.538 90.5028 142.849 89.8924 144.928 88.6601C145.874 88.0988 144.642 89.0606 145.6 88.5192C147.271 87.575 149.091 87.5347 150.946 87.7948C156.23 88.5357 162.237 92.3766 163.461 97.9042C164.291 101.651 165.028 104.35 168.74 106.973C169.857 107.763 171.27 108.233 172.032 109.37C173.653 111.787 171.272 115.366 172.754 117.87C173.084 118.429 173.578 118.867 174.027 119.335C176.4 121.805 177.624 125.335 177.29 128.743C177.209 129.574 177.034 130.413 176.623 131.14C176.059 132.14 175.103 132.847 174.169 133.513C172.771 134.511 171.344 135.495 169.757 136.152L169.712 136.171C166.424 137.512 162.28 137.107 159.377 135.042Z" fill="#2B292D"/>
<path fill-rule="evenodd" clip-rule="evenodd" d="M132.871 180.137C132.871 180.137 131.107 170.706 129.36 165.339C127.613 159.972 123.979 153.989 123.979 153.989C123.979 153.989 128.83 148.852 130.498 146.205C135.468 138.319 138.285 133.438 138.681 130.514C139.473 124.654 138.075 121.853 133.937 124.08C129.8 126.306 115.666 146.678 114.778 156.955C113.889 167.231 130.529 182.056 130.529 182.056L132.871 180.137Z" fill="#F8D2AA"/>
<path fill-rule="evenodd" clip-rule="evenodd" d="M167.187 180.137C167.187 180.137 168.951 170.706 170.699 165.339C172.446 159.972 176.079 153.989 176.079 153.989C176.079 153.989 171.229 148.852 169.56 146.205C164.591 138.319 161.774 133.438 161.378 130.514C160.585 124.654 161.984 121.853 166.121 124.08C170.259 126.306 184.392 146.678 185.281 156.955C186.169 167.231 169.53 182.056 169.53 182.056L167.187 180.137Z" fill="#F8D2AA"/>
<path fill-rule="evenodd" clip-rule="evenodd" d="M202.223 184.731C201.035 186.102 199.477 187.293 197.938 188.276C189.537 193.642 179.499 197.311 169.546 199.676C160.656 201.788 151.339 201.694 142.246 200.874C136.032 200.314 129.848 198.55 123.854 196.914C117.687 195.23 111.605 193.224 105.858 190.558C101.329 188.458 97.2724 185.851 96.5819 180.889C96.3101 178.936 96.7783 176.775 98.4106 175.451C100.377 173.856 103.353 173.91 106.003 174.098C121.023 175.163 135.569 179.795 150.693 179.881C159.134 179.929 167.004 177.919 175.115 176.101C181.371 174.699 188.318 173.157 194.833 173.451C200.74 173.717 206.58 179.701 202.223 184.731" fill="#0289CE"/>
<path fill-rule="evenodd" clip-rule="evenodd" d="M137.912 133.342C138.719 134.259 138.973 140.769 143.38 140.986C149.783 141.301 161.006 134.999 162.582 134.454C164.393 133.828 164.619 124.025 162.582 123.154C160.519 122.273 153.197 122.415 153.307 118.315C153.339 117.127 153.278 115.872 153.307 114.692C153.338 113.383 153.832 111.813 153.89 110.506C153.893 110.438 152.872 110.574 152.876 110.506C151.513 110.218 150.407 110.073 148.96 110.133C147.762 110.183 146.566 110.058 145.369 110.128C145.272 110.134 145.168 110.143 145.1 110.207C145.031 110.272 145.019 110.373 145.01 110.466C144.85 112.325 145.008 114.209 144.882 116.071C144.766 117.783 144.383 119.507 143.38 120.924C142.158 122.653 136.064 122.465 137.39 123.973L137.912 133.342Z" fill="#F8D2AA"/>
<mask id="mask0" mask-type="alpha" maskUnits="userSpaceOnUse" x="137" y="110" width="28" height="31">
<path fill-rule="evenodd" clip-rule="evenodd" d="M137.912 133.342C138.719 134.259 138.973 140.769 143.38 140.986C149.783 141.301 161.006 134.999 162.582 134.454C164.393 133.828 164.619 124.025 162.582 123.154C160.519 122.273 153.197 122.415 153.307 118.315C153.339 117.127 153.278 115.872 153.307 114.692C153.338 113.383 153.832 111.813 153.89 110.506C153.893 110.438 152.872 110.574 152.876 110.506C151.513 110.218 150.407 110.073 148.96 110.133C147.762 110.183 146.566 110.058 145.369 110.128C145.272 110.134 145.168 110.143 145.1 110.207C145.031 110.272 145.019 110.373 145.01 110.466C144.85 112.325 145.008 114.209 144.882 116.071C144.766 117.783 144.383 119.507 143.38 120.924C142.158 122.653 136.064 122.465 137.39 123.973L137.912 133.342Z" fill="white"/>
</mask>
<g mask="url(#mask0)">
<path fill-rule="evenodd" clip-rule="evenodd" d="M153.473 114.624C153.51 113.247 153.52 111.866 153.593 110.491C152.107 110.203 150.901 110.058 149.322 110.118C148.016 110.168 146.711 110.042 145.406 110.113C145.301 110.118 145.186 110.128 145.113 110.192C145.038 110.257 145.024 110.357 145.015 110.45C144.84 112.31 145.012 114.193 144.875 116.056C144.835 116.589 144.763 117.123 144.655 117.649C144.86 117.814 145.069 117.971 145.284 118.117C146.896 119.21 149.07 119.573 150.999 119.072C151.98 118.816 152.863 118.413 153.655 117.898C153.421 116.82 153.445 115.715 153.473 114.624Z" fill="#EDC79F"/>
</g>
<path fill-rule="evenodd" clip-rule="evenodd" d="M165.814 169.096C164.513 164.963 163.628 159.07 165.121 154.792C166.706 150.25 168.651 146.667 168.77 141.607C168.871 137.275 167.998 133.008 167.129 128.789C166.269 124.61 165.88 123.397 161.788 122.76C160.329 122.532 164.744 138.289 148.218 138.237C131.691 138.186 139.389 122.532 137.931 122.76C133.839 123.397 133.449 124.61 132.589 128.789C131.721 133.008 130.848 137.275 130.949 141.607C131.067 146.667 133.012 150.25 134.597 154.792C136.091 159.07 135.205 164.963 133.904 169.096C132.946 172.141 131.277 174.552 130.168 177.498C130.081 177.729 129.997 177.98 130.064 178.22C130.149 178.528 130.449 178.71 130.724 178.853C136.162 181.695 142.257 182.549 148.218 182.988C148.741 183.027 149.251 183.064 149.754 183.097V183.111L149.859 183.104C149.894 183.106 149.93 183.109 149.965 183.111V183.097C150.468 183.064 150.977 183.027 151.501 182.988C157.461 182.549 163.556 181.695 168.994 178.853C169.27 178.71 169.57 178.528 169.655 178.22C169.722 177.98 169.637 177.729 169.55 177.498C168.442 174.552 166.773 172.141 165.814 169.096Z" fill="#EC1C23"/>
<path fill-rule="evenodd" clip-rule="evenodd" d="M157.956 103.121C157.918 101.298 157.642 99.5712 157.152 98.1413C155.039 91.9719 147.284 90.5515 142.692 95.0674C137.571 100.104 139.728 111.939 145.257 116.028C146.735 117.121 148.728 117.484 150.497 116.983C155.85 115.464 158.071 108.818 157.956 103.121" fill="#F8D2AA"/>
<path fill-rule="evenodd" clip-rule="evenodd" d="M137.369 107.082C136.702 105.123 136.774 102.954 136.856 100.855C136.901 99.6847 136.949 98.4974 137.269 97.3821C137.619 96.165 138.281 95.0842 139.064 94.158C141.326 91.4838 144.7 90.1252 147.945 90.4027C149.248 90.5142 150.206 91.1385 151.351 91.6685C152.468 92.1858 153.781 92.4699 154.956 92.8573C156.312 93.3046 154.651 96.9871 154.315 96.6152C154.146 96.4296 153.414 95.5736 153.534 95.3088C152.964 96.5661 152.071 97.8563 150.955 98.6805C148.833 100.247 146.472 101.353 144.076 102.285C143.9 102.354 143.722 102.423 143.545 102.494C142.887 102.758 142.238 103.059 141.697 103.551C140.488 104.651 140.401 106.34 140.446 107.864C140.451 108.031 140.454 108.202 140.401 108.36C140.148 109.107 138.94 108.963 138.455 108.594C137.961 108.217 137.58 107.663 137.369 107.082Z" fill="#2B292D"/>
<path fill-rule="evenodd" clip-rule="evenodd" d="M158.524 99.6316C157.907 96.1188 151.357 90.1197 145.093 90.0017C138.83 89.8837 137.238 96.0237 137.401 99.6927C137.564 103.362 138.826 104.698 138.826 104.698C138.826 104.698 137.792 99.4937 141.443 95.0437C141.837 94.5627 143.738 93.7726 144.252 93.5846C148.498 92.0396 157.855 102.258 157.96 104.813C157.96 104.813 159.141 103.144 158.524 99.6316Z" fill="#EC1C23"/>
<path fill-rule="evenodd" clip-rule="evenodd" d="M148.433 84.1511C148.433 84.1511 148.293 84.186 148.069 84.2856C147.397 84.5807 145.966 85.4488 145.273 87.6622C144.349 90.6125 144.349 90.6125 144.349 90.6125C144.349 90.6125 148.943 88.321 150.361 86.205C151.781 84.0893 151.781 84.0893 151.781 84.0893L148.433 84.1511" fill="#EC1C23"/>
<path fill-rule="evenodd" clip-rule="evenodd" d="M137.392 81C137.392 81 141.477 81.692 142.605 84.781C143.733 87.871 143.976 91.554 143.976 91.554C143.976 91.554 137.274 86.791 137.392 81" fill="#EC1C23"/>
<path fill-rule="evenodd" clip-rule="evenodd" d="M122.401 152.313L121.933 153.423H177.806L177.245 152.175L122.401 152.313" fill="#B4CCC3"/>
<path fill-rule="evenodd" clip-rule="evenodd" d="M177.652 152.882L174.2 188.754L173.951 188.73V188.98H125.541L125.519 188.754L122.066 152.882C121.991 152.093 122.603 151.408 123.387 151.408H176.331C177.116 151.408 177.728 152.093 177.652 152.882ZM122.564 152.834L125.995 188.48H173.724L177.154 152.834C177.202 152.337 176.819 151.908 176.331 151.908H123.387C122.9 151.908 122.516 152.337 122.564 152.834Z" fill="black"/>
<path fill-rule="evenodd" clip-rule="evenodd" d="M178.084 153.897L174.578 189.769L174.329 189.744V189.994H125.162L121.634 153.897C121.557 153.107 122.178 152.422 122.972 152.422H176.746C177.541 152.422 178.161 153.107 178.084 153.897ZM122.132 153.848L125.616 189.494H174.102L177.586 153.848C177.635 153.352 177.245 152.922 176.746 152.922H122.972C122.473 152.922 122.083 153.352 122.132 153.848Z" fill="black"/>
<path fill-rule="evenodd" clip-rule="evenodd" d="M174.329 189.744H125.389L121.883 153.873C121.82 153.229 122.326 152.672 122.972 152.672H176.746C177.393 152.672 177.898 153.229 177.835 153.873L174.329 189.744" fill="white"/>
<path fill-rule="evenodd" clip-rule="evenodd" d="M174.55 192.171H125.139V189.494H174.55V192.171ZM174.05 189.994H125.639V191.671H174.05V189.994Z" fill="black"/>
<path fill-rule="evenodd" clip-rule="evenodd" d="M125.389 191.921H174.3V189.744H125.389V191.921Z" fill="white"/>
<path d="M153.253 171.208C153.253 173.082 151.733 174.602 149.859 174.602C147.985 174.602 146.466 173.082 146.466 171.208C146.466 169.334 147.985 167.815 149.859 167.815C151.733 167.815 153.253 169.334 153.253 171.208" fill="#094170"/>
<path fill-rule="evenodd" clip-rule="evenodd" d="M136.281 202.561C136.281 202.561 145.297 204.705 148.034 206.262C150.77 207.819 154.993 210.222 154.883 212.389C154.773 214.557 155.97 213.647 156.563 212.55C157.155 211.453 158.621 207.721 156.043 206.254C153.465 204.787 152.788 204.14 152.438 202.606C152.087 201.072 151.885 198.938 149.439 199.223C146.993 199.508 144.354 200.592 142.455 199.511C140.557 198.431 137.904 196.638 137.904 196.638L136.281 202.561Z" fill="#EDC79F"/>
<path fill-rule="evenodd" clip-rule="evenodd" d="M161.499 203.561C161.499 203.561 152.483 205.705 149.746 207.262C147.01 208.819 142.787 211.222 142.897 213.389C143.007 215.557 141.81 214.647 141.217 213.55C140.625 212.453 139.159 208.721 141.737 207.254C144.315 205.787 144.992 205.14 145.342 203.606C145.693 202.072 145.895 199.938 148.341 200.223C150.787 200.508 153.426 201.592 155.325 200.511C157.223 199.431 159.895 198.309 159.895 198.309L161.499 203.561Z" fill="#F8D2AA"/>
<path fill-rule="evenodd" clip-rule="evenodd" d="M160.39 203.993C162.568 203.336 189.107 196.167 198.518 189.843C200.685 188.381 202.868 186.223 203.793 183.739C206.218 177.206 199.277 172.146 193.354 174.607C183.461 178.717 157.565 199.178 156.2 199.954L160.39 203.993Z" fill="#F8D2AA"/>
<path fill-rule="evenodd" clip-rule="evenodd" d="M139.39 203.341C137.213 202.685 110.641 196.167 101.23 189.843C99.0617 188.381 96.8794 186.223 95.9547 183.739C93.5285 177.206 100.47 172.146 106.393 174.607C116.286 178.717 138.736 197.488 140.1 198.265L139.39 203.341Z" fill="#EDC79F"/>
<path fill-rule="evenodd" clip-rule="evenodd" d="M56.8419 104.392C57.0944 104.269 57.3512 104.151 57.6123 104.037C58.8772 103.486 60.1744 103.129 61.5284 102.953C61.6927 102.931 61.8085 102.781 61.7871 102.617C61.7657 102.452 61.6151 102.336 61.4508 102.358C60.0413 102.542 58.6896 102.913 57.3726 103.487C57.1039 103.604 56.8396 103.726 56.5797 103.852C56.4307 103.925 56.3686 104.104 56.441 104.253C56.5134 104.402 56.6929 104.464 56.8419 104.392ZM52.6879 107.136C51.4417 108.235 50.3812 109.491 49.5133 110.886C49.4258 111.026 49.2408 111.069 49.1001 110.982C48.9594 110.894 48.9163 110.709 49.0039 110.569C49.9025 109.124 51.0009 107.824 52.291 106.686C52.4153 106.576 52.6049 106.588 52.7145 106.712C52.8241 106.837 52.8122 107.026 52.6879 107.136ZM46.7231 120.193C46.8128 118.498 47.0847 116.868 47.5369 115.33C47.5836 115.171 47.4927 115.005 47.3337 114.958C47.1747 114.911 47.008 115.002 46.9613 115.161C46.4956 116.745 46.2161 118.42 46.124 120.161C46.1152 120.327 46.2422 120.468 46.4077 120.477C46.5731 120.485 46.7144 120.358 46.7231 120.193ZM46.9634 125.183C47.1937 126.78 47.5682 128.395 48.0821 130.006C48.1324 130.164 48.0453 130.333 47.8874 130.383C47.7296 130.433 47.5608 130.346 47.5105 130.188C46.9867 128.546 46.6046 126.898 46.3695 125.268C46.3459 125.104 46.4596 124.952 46.6236 124.929C46.7876 124.905 46.9397 125.019 46.9634 125.183ZM52.4169 138.89C51.4832 137.501 50.6533 136.065 49.9345 134.598C49.8616 134.45 49.6819 134.388 49.5331 134.461C49.3843 134.534 49.3228 134.714 49.3957 134.862C50.1265 136.353 50.97 137.813 51.9189 139.225C52.0113 139.363 52.1977 139.399 52.3352 139.307C52.4727 139.214 52.5093 139.028 52.4169 138.89ZM124.601 142.613C122.993 142.791 121.344 143.136 119.652 143.649C119.494 143.698 119.404 143.865 119.452 144.024C119.501 144.182 119.668 144.272 119.827 144.224C121.484 143.721 123.097 143.383 124.666 143.21C124.831 143.192 124.95 143.043 124.932 142.879C124.913 142.714 124.765 142.595 124.601 142.613ZM129.668 142.629C131.361 142.838 133.001 143.257 134.587 143.886C134.741 143.947 134.816 144.122 134.755 144.276C134.694 144.43 134.519 144.505 134.365 144.444C132.827 143.833 131.237 143.427 129.594 143.224C129.43 143.204 129.313 143.054 129.333 142.89C129.353 142.725 129.503 142.609 129.668 142.629ZM139.041 146.308C140.365 147.236 141.645 148.333 142.881 149.597C142.997 149.715 142.994 149.905 142.876 150.021C142.757 150.137 142.567 150.135 142.452 150.016C141.242 148.778 139.99 147.706 138.697 146.799C138.561 146.704 138.528 146.517 138.623 146.382C138.718 146.246 138.905 146.213 139.041 146.308ZM110.444 147.85C111.953 146.95 113.434 146.162 114.886 145.488C115.036 145.418 115.215 145.484 115.284 145.634C115.354 145.784 115.289 145.962 115.139 146.032C113.706 146.698 112.243 147.475 110.751 148.365C110.609 148.45 110.425 148.404 110.34 148.261C110.255 148.119 110.302 147.935 110.444 147.85ZM106.137 150.46C104.959 150.992 103.337 151.565 101.461 152.101C101.302 152.146 101.209 152.312 101.255 152.472C101.3 152.631 101.466 152.723 101.626 152.678C103.528 152.134 105.177 151.552 106.384 151.006C106.535 150.938 106.602 150.76 106.533 150.609C106.465 150.458 106.287 150.391 106.137 150.46ZM91.7051 154.092C93.3686 153.874 95.0152 153.598 96.616 153.274C96.7784 153.241 96.9367 153.346 96.9696 153.508C97.0025 153.671 96.8975 153.829 96.7351 153.862C95.1208 154.189 93.4604 154.467 91.7829 154.687C91.6187 154.708 91.4681 154.592 91.4465 154.428C91.425 154.264 91.5408 154.113 91.7051 154.092ZM86.7537 154.56C85.0701 154.656 83.4077 154.686 81.7791 154.644C81.6135 154.639 81.4757 154.77 81.4715 154.936C81.4672 155.101 81.598 155.239 81.7636 155.243C83.4092 155.286 85.0882 155.256 86.7881 155.159C86.9535 155.149 87.0799 155.008 87.0704 154.842C87.0609 154.677 86.9191 154.55 86.7537 154.56ZM71.9242 153.358C73.4791 153.756 75.108 154.06 76.802 154.274C76.9664 154.295 77.0828 154.445 77.062 154.609C77.0412 154.774 76.8911 154.89 76.7267 154.869C75.0087 154.652 73.3554 154.343 71.7757 153.94C71.6152 153.899 71.5183 153.735 71.5593 153.575C71.6003 153.414 71.7636 153.317 71.9242 153.358ZM67.2274 151.773C65.7679 151.143 64.4065 150.408 63.1496 149.566C63.0527 149.501 62.9674 149.444 62.8809 149.385C62.744 149.291 62.5574 149.326 62.464 149.463C62.3706 149.6 62.4059 149.787 62.5428 149.88C62.6306 149.94 62.7172 149.999 62.8155 150.065C64.1037 150.928 65.4973 151.679 66.9896 152.324C67.1417 152.389 67.3183 152.319 67.3839 152.167C67.4496 152.015 67.3795 151.838 67.2274 151.773ZM55.4552 142.829C56.5416 144.064 57.7128 145.237 58.9619 146.339C59.0862 146.449 59.098 146.638 58.9884 146.763C58.8788 146.887 58.6892 146.899 58.565 146.789C57.2969 145.67 56.1078 144.479 55.0047 143.226C54.8953 143.101 54.9074 142.912 55.0318 142.802C55.1561 142.693 55.3457 142.705 55.4552 142.829ZM71.2643 104.175C69.5256 103.632 67.9397 103.253 66.4462 103.037C66.2822 103.013 66.1686 102.861 66.1924 102.697C66.2162 102.533 66.3684 102.419 66.5323 102.443C68.0597 102.664 69.676 103.05 71.4433 103.603C71.6015 103.652 71.6896 103.82 71.6402 103.979C71.5907 104.137 71.4224 104.225 71.2643 104.175ZM75.9625 105.876C77.2844 106.405 78.6693 106.99 80.5639 107.812C80.7159 107.878 80.8925 107.808 80.9585 107.656C81.0244 107.504 80.9547 107.328 80.8027 107.262C78.9034 106.438 77.5138 105.851 76.1855 105.319C76.0317 105.257 75.8571 105.332 75.7955 105.486C75.7339 105.639 75.8086 105.814 75.9625 105.876ZM89.7821 111.744C88.339 111.163 86.8711 110.547 85.1625 109.811C85.0104 109.746 84.9401 109.569 85.0057 109.417C85.0712 109.265 85.2477 109.195 85.3999 109.26C87.1044 109.994 88.568 110.608 90.0061 111.187C90.1598 111.249 90.2343 111.424 90.1724 111.577C90.1105 111.731 89.9358 111.805 89.7821 111.744ZM94.4449 113.52C96.054 114.095 97.6341 114.618 99.2085 115.091C99.3671 115.139 99.5344 115.049 99.5821 114.89C99.6298 114.731 99.5398 114.564 99.3812 114.516C97.817 114.046 96.2466 113.527 94.6468 112.955C94.4908 112.9 94.3191 112.981 94.2634 113.137C94.2076 113.293 94.2889 113.465 94.4449 113.52ZM108.996 117.392C107.349 117.116 105.712 116.785 104.076 116.399C103.915 116.361 103.815 116.199 103.853 116.038C103.891 115.877 104.052 115.777 104.214 115.815C105.837 116.198 107.462 116.527 109.095 116.8C109.258 116.828 109.368 116.982 109.341 117.146C109.314 117.309 109.159 117.419 108.996 117.392ZM113.97 118.049C115.628 118.209 117.297 118.313 118.982 118.356C119.147 118.361 119.285 118.23 119.289 118.064C119.294 117.899 119.163 117.761 118.997 117.756C117.327 117.713 115.672 117.611 114.028 117.452C113.863 117.436 113.716 117.557 113.7 117.722C113.684 117.886 113.805 118.033 113.97 118.049ZM129.025 117.921C127.34 118.109 125.673 118.238 124.02 118.311C123.855 118.318 123.715 118.189 123.707 118.024C123.7 117.858 123.828 117.718 123.994 117.711C125.633 117.639 127.287 117.511 128.959 117.325C129.123 117.306 129.272 117.425 129.29 117.59C129.308 117.754 129.19 117.903 129.025 117.921Z" fill="#094170"/>
<path fill-rule="evenodd" clip-rule="evenodd" d="M286.102 84.8623L262.82 99.9571L258.934 106.531L258.205 97.2677L286.102 84.8623Z" fill="#0062AD"/>
<path fill-rule="evenodd" clip-rule="evenodd" d="M286.102 84.8623L277.728 110.634L262.82 99.9571L286.102 84.8623Z" fill="#0289CE"/>
<path fill-rule="evenodd" clip-rule="evenodd" d="M286.102 84.8623L244.863 89.8818L258.205 97.2677L286.102 84.8623Z" fill="#0289CE"/>
<path fill-rule="evenodd" clip-rule="evenodd" d="M266.289 102.464L258.934 106.531L262.82 99.9571L266.289 102.464Z" fill="#59B9EA"/>
<path fill-rule="evenodd" clip-rule="evenodd" d="M259.013 106.284C258.167 106.177 257.319 106.31 256.474 106.681C256.322 106.748 256.253 106.925 256.32 107.076C256.387 107.228 256.564 107.297 256.715 107.231C257.463 106.902 258.202 106.786 258.938 106.879C259.102 106.9 259.252 106.783 259.273 106.619C259.293 106.455 259.177 106.305 259.013 106.284ZM249.911 114.371C250.803 112.676 251.692 111.247 252.581 110.084C252.681 109.952 252.869 109.927 253.001 110.028C253.133 110.128 253.158 110.316 253.057 110.448C252.191 111.582 251.319 112.983 250.442 114.65C250.365 114.797 250.184 114.853 250.037 114.776C249.89 114.699 249.834 114.518 249.911 114.371ZM247.789 118.853C247.036 120.394 246.044 121.694 244.846 122.748C244.722 122.858 244.71 123.047 244.819 123.172C244.929 123.296 245.118 123.308 245.242 123.199C246.5 122.092 247.54 120.729 248.328 119.116C248.401 118.967 248.339 118.788 248.191 118.715C248.042 118.642 247.862 118.704 247.789 118.853ZM235.757 125.928C237.413 125.948 239.062 125.698 240.598 125.179C240.755 125.125 240.925 125.21 240.979 125.366C241.032 125.523 240.948 125.694 240.791 125.747C239.189 126.289 237.472 126.549 235.75 126.528C235.584 126.526 235.452 126.391 235.454 126.225C235.455 126.059 235.591 125.927 235.757 125.928ZM235.613 119.382C236.856 120.519 237.854 121.882 238.473 123.328C238.538 123.48 238.714 123.551 238.866 123.486C239.019 123.421 239.089 123.245 239.024 123.092C238.371 121.564 237.321 120.132 236.017 118.94C235.895 118.828 235.705 118.836 235.594 118.958C235.482 119.081 235.49 119.271 235.613 119.382ZM236.812 132.375C237.523 131.629 238.1 130.74 238.544 129.704C238.78 129.148 238.941 128.622 239.045 128.086C239.076 127.924 239.234 127.817 239.397 127.849C239.559 127.88 239.666 128.038 239.634 128.2C239.522 128.778 239.348 129.344 239.096 129.94C238.624 131.041 238.008 131.99 237.246 132.789C237.132 132.909 236.942 132.913 236.822 132.799C236.702 132.685 236.698 132.495 236.812 132.375ZM232.642 134.784C231.231 135.179 229.604 135.35 227.759 135.295C227.594 135.29 227.455 135.421 227.451 135.586C227.446 135.752 227.576 135.89 227.742 135.895C229.644 135.951 231.331 135.774 232.804 135.362C232.963 135.317 233.057 135.152 233.012 134.992C232.967 134.833 232.802 134.74 232.642 134.784ZM222.841 134.717C221.333 134.428 219.724 134.033 218.014 133.531C217.855 133.484 217.688 133.575 217.641 133.734C217.595 133.893 217.686 134.06 217.845 134.106C219.573 134.614 221.201 135.014 222.729 135.306C222.891 135.338 223.048 135.231 223.08 135.068C223.111 134.906 223.004 134.748 222.841 134.717ZM231.415 116.912C229.525 116.359 227.971 116.674 227.107 117.855C227.009 117.989 226.822 118.018 226.688 117.92C226.554 117.822 226.525 117.634 226.623 117.501C227.657 116.087 229.473 115.719 231.584 116.336C231.743 116.383 231.834 116.549 231.787 116.708C231.741 116.867 231.574 116.959 231.415 116.912ZM231.027 125.091C229.257 124.442 227.867 123.468 227.088 122.32C226.994 122.183 226.808 122.148 226.671 122.241C226.534 122.334 226.498 122.521 226.591 122.658C227.449 123.919 228.941 124.965 230.821 125.654C230.976 125.711 231.148 125.631 231.205 125.476C231.263 125.32 231.183 125.148 231.027 125.091Z" fill="#094170"/>
<path fill-rule="evenodd" clip-rule="evenodd" d="M204.457 51.8752L206.438 57.9712L208.854 52.7424C208.854 52.7424 227.781 44.6738 227.25 44.4694C226.719 44.2651 204.457 51.8752 204.457 51.8752Z" fill="#CF2228"/>
<path fill-rule="evenodd" clip-rule="evenodd" d="M208.854 52.7424L213.548 54.1973L206.438 57.9712L208.854 52.7424Z" fill="#F05358"/>
<path fill-rule="evenodd" clip-rule="evenodd" d="M208.854 52.7423L218.349 55.8385L227.25 44.4694L208.854 52.7423Z" fill="#EC1C23"/>
<path fill-rule="evenodd" clip-rule="evenodd" d="M192.697 49.2559L204.457 51.8752L227.25 44.4695L192.697 49.2559Z" fill="#EC1C23"/>
<path fill-rule="evenodd" clip-rule="evenodd" d="M203.168 58.4408C201.574 59.5219 200.09 60.1862 198.719 60.4373C198.556 60.4672 198.448 60.6235 198.478 60.7865C198.508 60.9495 198.664 61.0574 198.827 61.0275C200.288 60.76 201.846 60.0621 203.505 58.9374C203.642 58.8444 203.678 58.6579 203.585 58.5208C203.492 58.3836 203.305 58.3478 203.168 58.4408ZM178.665 85.0378C179.835 83.7675 180.92 82.5102 181.921 81.2668C182.025 81.1377 182.214 81.1173 182.343 81.2212C182.472 81.3251 182.492 81.5139 182.388 81.643C181.379 82.8969 180.285 84.1643 179.107 85.4442C178.995 85.5661 178.805 85.574 178.683 85.4617C178.561 85.3495 178.553 85.1597 178.665 85.0378ZM175.18 88.6159C174.026 89.7393 172.809 90.8707 171.528 92.0094C171.404 92.1195 171.393 92.3091 171.503 92.433C171.613 92.5568 171.802 92.568 171.926 92.4579C173.214 91.3132 174.438 90.1756 175.599 89.0458C175.717 88.9302 175.72 88.7402 175.604 88.6215C175.489 88.5028 175.299 88.5003 175.18 88.6159ZM167.739 95.2435C166.486 96.2731 165.181 97.3076 163.826 98.3468C163.694 98.4476 163.669 98.6359 163.77 98.7674C163.871 98.8989 164.059 98.9238 164.191 98.823C165.552 97.7798 166.861 96.7411 168.12 95.7071C168.248 95.602 168.267 95.4129 168.161 95.2849C168.056 95.1569 167.867 95.1383 167.739 95.2435ZM187.452 73.027C186.713 74.4167 185.856 75.8344 184.879 77.2777C184.786 77.4149 184.822 77.6014 184.959 77.6943C185.097 77.7872 185.283 77.7513 185.376 77.6141C186.365 76.1534 187.233 74.7174 187.982 73.3086C188.059 73.1623 188.004 72.9807 187.858 72.9029C187.711 72.8251 187.53 72.8807 187.452 73.027ZM189.485 68.4857C190.083 66.8265 190.494 65.2289 190.724 63.7027C190.748 63.5388 190.901 63.426 191.065 63.4507C191.229 63.4753 191.342 63.6282 191.317 63.792C191.081 65.358 190.661 66.9937 190.05 68.6892C189.993 68.8451 189.822 68.9259 189.666 68.8697C189.51 68.8135 189.429 68.6416 189.485 68.4857ZM189.264 54.1497C190.044 55.4526 190.577 57.0156 190.81 58.7768C190.832 58.941 190.983 59.0565 191.147 59.0347C191.311 59.013 191.427 58.8622 191.405 58.6979C191.161 56.8571 190.601 55.2159 189.779 53.8416C189.694 53.6994 189.51 53.6532 189.367 53.7383C189.225 53.8233 189.179 54.0076 189.264 54.1497ZM185.765 50.9152C184.137 50.2185 182.5 50.3907 181.309 51.4072C181.183 51.5148 180.994 51.4997 180.886 51.3737C180.779 51.2477 180.794 51.0583 180.92 50.9508C182.293 49.7788 184.172 49.581 186.001 50.3636C186.153 50.4288 186.224 50.6051 186.158 50.7574C186.093 50.9097 185.917 50.9804 185.765 50.9152ZM184.149 58.1328C182.109 57.401 180.707 56.5646 180.066 55.6606C179.971 55.5254 179.783 55.4934 179.648 55.5892C179.513 55.6849 179.481 55.8722 179.577 56.0074C180.305 57.0359 181.8 57.9278 183.946 58.6976C184.102 58.7535 184.274 58.6724 184.33 58.5165C184.386 58.3605 184.305 58.1888 184.149 58.1328ZM188.957 59.4285C190.506 59.7455 192.173 60.012 193.869 60.2197C194.034 60.2398 194.151 60.3894 194.131 60.5539C194.111 60.7183 193.961 60.8353 193.796 60.8152C192.085 60.6057 190.403 60.3367 188.836 60.0163C188.674 59.9831 188.569 59.8246 188.603 59.6623C188.636 59.5 188.794 59.3953 188.957 59.4285Z" fill="#094170"/>
<path fill-rule="evenodd" clip-rule="evenodd" d="M31.5892 48.4887C32.1579 50.5116 32.8092 52.078 33.5479 53.1905C33.6396 53.3285 33.8258 53.3661 33.9638 53.2745C34.1018 53.1828 34.1394 52.9967 34.0478 52.8586C33.3485 51.8055 32.7199 50.2939 32.1668 48.3263C32.122 48.1668 31.9564 48.0739 31.7968 48.1187C31.6373 48.1636 31.5444 48.3292 31.5892 48.4887ZM42.4677 51.9506C41.8006 52.1617 41.1428 52.5768 40.4902 53.2132C39.7376 53.9564 39.0434 54.4826 38.3718 54.8177C38.2235 54.8916 38.0433 54.8314 37.9694 54.6831C37.8954 54.5349 37.9556 54.3547 38.1039 54.2808C38.713 53.9769 39.358 53.488 40.07 52.785C40.7879 52.0849 41.5252 51.6196 42.2866 51.3785C42.4445 51.3285 42.6131 51.416 42.6631 51.574C42.7131 51.732 42.6256 51.9005 42.4677 51.9506ZM46.8884 53.1283C47.9568 53.9214 49.0651 55.0218 50.4188 56.5771C50.5276 56.7021 50.7171 56.7152 50.8421 56.6064C50.967 56.4977 50.9802 56.3082 50.8714 56.1832C49.4917 54.598 48.3563 53.4707 47.246 52.6465C47.1129 52.5478 46.925 52.5756 46.8263 52.7086C46.7275 52.8417 46.7553 53.0296 46.8884 53.1283ZM57.224 63.9948C56.1803 63.2302 55.0978 62.1251 53.6382 60.4116C53.5308 60.2855 53.546 60.0962 53.6721 59.9887C53.7982 59.8813 53.9876 59.8964 54.095 60.0226C55.5263 61.7029 56.5823 62.7809 57.5786 63.5107C57.7122 63.6087 57.7412 63.7964 57.6433 63.93C57.5454 64.0637 57.3577 64.0927 57.224 63.9948ZM62.1234 65.6719C63.6726 65.8382 65.3993 65.8037 67.1936 65.5655C67.3579 65.5437 67.4733 65.3929 67.4515 65.2287C67.4297 65.0644 67.2789 64.9489 67.1147 64.9707C65.3664 65.2028 63.6875 65.2363 62.1875 65.0753C62.0227 65.0576 61.8749 65.1768 61.8572 65.3416C61.8395 65.5063 61.9587 65.6542 62.1234 65.6719ZM76.7555 62.4165C75.2785 63.2287 73.7196 63.9027 72.1181 64.4304C71.9608 64.4822 71.7912 64.3967 71.7393 64.2393C71.6875 64.082 71.773 63.9124 71.9304 63.8605C73.4973 63.3442 75.0222 62.6849 76.4664 61.8907C76.6116 61.8109 76.794 61.8638 76.8738 62.009C76.9537 62.1542 76.9007 62.3366 76.7555 62.4165ZM75.0899 59.6737C75.0412 59.5141 74.9939 59.3531 74.9479 59.1908C74.4862 57.5577 74.3112 56.0287 74.4064 54.6116C74.4175 54.4463 74.5605 54.3213 74.7258 54.3324C74.8911 54.3435 75.0161 54.4865 75.005 54.6518C74.9146 55.9983 75.0817 57.4588 75.5253 59.0275C75.5701 59.1858 75.6163 59.3429 75.6638 59.4986C75.7121 59.6571 75.6229 59.8247 75.4644 59.8731C75.3059 59.9215 75.1383 59.8322 75.0899 59.6737ZM77.1588 64.3849C78.0532 65.8692 79.1268 67.1819 80.3791 68.3224C80.5016 68.434 80.6913 68.4251 80.8029 68.3026C80.9145 68.1801 80.9056 67.9904 80.7831 67.8788C79.574 66.7777 78.5373 65.5101 77.6727 64.0753C77.5872 63.9334 77.4029 63.8876 77.2609 63.9732C77.119 64.0587 77.0733 64.243 77.1588 64.3849ZM89.3112 72.9175C87.5834 72.4752 85.9989 71.8927 84.558 71.1697C84.4099 71.0953 84.3501 70.9151 84.4244 70.767C84.4987 70.6189 84.679 70.5591 84.8271 70.6334C86.2286 71.3367 87.7728 71.9043 89.46 72.3362C89.6205 72.3773 89.7173 72.5407 89.6762 72.7012C89.6351 72.8617 89.4717 72.9585 89.3112 72.9175ZM99.3364 73.9588C97.5682 73.9848 95.8916 73.9216 94.3066 73.7692C94.1416 73.7533 94.0208 73.6068 94.0367 73.4418C94.0525 73.2769 94.1991 73.1561 94.364 73.1719C95.9264 73.3222 97.581 73.3845 99.3276 73.3589C99.4933 73.3564 99.6295 73.4888 99.632 73.6544C99.6344 73.8201 99.5021 73.9564 99.3364 73.9588ZM80.2192 46.6058C78.6 47.2115 77.1458 48.296 76.1043 49.7422C76.0074 49.8766 76.0379 50.0641 76.1724 50.1609C76.3068 50.2578 76.4943 50.2273 76.5911 50.0928C77.5619 48.7449 78.9191 47.7327 80.4294 47.1677C80.5846 47.1097 80.6633 46.9368 80.6053 46.7817C80.5472 46.6265 80.3744 46.5477 80.2192 46.6058ZM85.3823 46.6432C86.9714 47.5021 87.5625 49.2192 86.8769 51.4579C86.8284 51.6163 86.6606 51.7054 86.5022 51.6569C86.3438 51.6084 86.2547 51.4406 86.3032 51.2822C86.909 49.3041 86.4211 47.8867 85.097 47.171C84.9512 47.0922 84.8969 46.9102 84.9757 46.7644C85.0545 46.6187 85.2365 46.5644 85.3823 46.6432ZM80.9406 59.5423C82.2376 58.4406 83.4045 57.2124 84.4233 55.8628C84.5231 55.7305 84.4968 55.5424 84.3646 55.4426C84.2324 55.3428 84.0442 55.369 83.9444 55.5013C82.9526 56.8152 81.8161 58.0115 80.5522 59.085C80.4259 59.1923 80.4105 59.3816 80.5178 59.5079C80.625 59.6342 80.8144 59.6496 80.9406 59.5423Z" fill="#094170"/>
<path fill-rule="evenodd" clip-rule="evenodd" d="M35.582 49.8631L37.6618 44.9621L9.58618 44.2399L35.582 49.8631Z" fill="#29B24B"/>
<path fill-rule="evenodd" clip-rule="evenodd" d="M4.01788 44.4147L45.937 60.5254L40.7641 50.7967L10.3226 44.4103L37.6618 44.962L34.1384 38.3355L4.01788 44.4147Z" fill="#7CC245"/>
<path fill-rule="evenodd" clip-rule="evenodd" d="M245.352 240.885C243.339 238.594 242.921 193.07 245.352 186.05C247.783 179.03 251.579 173.987 252.784 191.149C253.989 208.31 247.365 243.177 245.352 240.885Z" fill="#10AA4C"/>
<path fill-rule="evenodd" clip-rule="evenodd" d="M250.826 211.737C259.145 199.672 268.707 194.181 277.111 192.134C285.515 190.086 278.079 212.294 275.501 209.158C272.924 206.022 271.721 203.793 271.721 207.034C271.721 210.275 273.64 213.876 270.728 213.067C267.817 212.259 265.73 208.219 265.73 211.737C265.73 215.254 268.041 216.392 264.147 216.392C260.252 216.392 250.366 238.332 249.305 240.742C248.243 243.152 242.506 223.801 250.826 211.737Z" fill="#7CC245"/>
<path fill-rule="evenodd" clip-rule="evenodd" d="M244.503 241.837C244.503 241.837 238.338 203.865 224.149 200.805C209.961 197.745 205.29 197.36 207.786 201.132C210.282 204.903 214.358 209.048 216.694 208.237C219.03 207.427 221.025 204.887 220.771 208.522C220.516 212.158 218.483 214.168 220.441 213.229C222.399 212.289 226.051 208.441 225.871 211.018C225.691 213.596 224.038 215.271 225.629 214.487C227.219 213.703 228.703 213.236 228.601 214.695C228.499 216.154 227.543 216.885 230.15 216.668C232.758 216.452 244.503 241.837 244.503 241.837Z" fill="#29B24B"/>
<path fill-rule="evenodd" clip-rule="evenodd" d="M239.973 240.506C239.973 240.506 232.68 205.305 235.62 198.227C238.561 191.149 238.808 189.599 235.62 189.599C232.433 189.599 231.949 187.559 233.006 187.559C234.062 187.559 234.457 184.608 231.984 184.608C229.511 184.608 230.391 173.692 233.006 170.965C235.62 168.238 238.245 171.189 240.963 177.898C243.681 184.608 250.711 199.871 248.955 204.65C247.198 209.428 247.328 240.885 245.352 240.885C243.376 240.885 239.973 240.506 239.973 240.506Z" fill="#7CC245"/>
<path fill-rule="evenodd" clip-rule="evenodd" d="M245.786 210.017C246.231 197.721 261.996 181.475 265.808 177.937C269.62 174.399 284.084 162.953 286.609 166.769C289.134 170.585 283.66 186.252 277.989 186.252C272.318 186.252 271.016 185.471 271.016 188.378C271.016 191.284 270.738 192.053 268.709 192.053C266.68 192.053 267.574 193.982 267.574 195.133C267.574 196.284 248.917 243.885 246.882 243.885C244.847 243.885 245.341 222.313 245.786 210.017Z" fill="#29B24B"/>
<path fill-rule="evenodd" clip-rule="evenodd" d="M230.56 243.695C230.56 254.308 229.235 262.798 245.352 263.464C261.469 264.13 261.726 253.54 260.727 242.98C260.385 239.365 260.106 225.293 258.56 223.447C256.765 221.303 256.765 223.447 245.352 223.447C242.656 223.447 235.546 222.123 234.33 222.626C231.642 223.737 230.56 239.294 230.56 243.695Z" fill="#0065B2"/>
<path fill-rule="evenodd" clip-rule="evenodd" d="M170.671 241.64C168.888 242.114 168.504 242.497 168.03 244.281C167.557 242.497 167.174 242.114 165.39 241.64C167.174 241.167 167.557 240.784 168.03 239C168.504 240.784 168.888 241.167 170.671 241.64" fill="white"/>
<path fill-rule="evenodd" clip-rule="evenodd" d="M125.671 211.64C123.888 212.114 123.504 212.497 123.03 214.281C122.557 212.497 122.174 212.114 120.39 211.64C122.174 211.167 122.557 210.784 123.03 209C123.504 210.784 123.888 211.167 125.671 211.64" fill="white"/>
<path fill-rule="evenodd" clip-rule="evenodd" d="M187.281 212.446C184.278 213.242 183.632 213.888 182.835 216.891C182.039 213.888 181.393 213.242 178.39 212.446C181.393 211.649 182.039 211.003 182.835 208C183.632 211.003 184.278 211.649 187.281 212.446" fill="white"/>
<path fill-rule="evenodd" clip-rule="evenodd" d="M190.548 202.019C189.184 202.381 188.891 202.674 188.529 204.037C188.167 202.674 187.874 202.381 186.51 202.019C187.874 201.657 188.167 201.363 188.529 200C188.891 201.363 189.184 201.657 190.548 202.019" fill="white"/>
<path fill-rule="evenodd" clip-rule="evenodd" d="M132.427 218.019C131.064 218.381 130.771 218.674 130.409 220.037C130.047 218.674 129.753 218.381 128.39 218.019C129.753 217.657 130.047 217.363 130.409 216C130.771 217.363 131.064 217.657 132.427 218.019" fill="white"/>
<path fill-rule="evenodd" clip-rule="evenodd" d="M57.4272 254.019C56.0639 254.381 55.7705 254.674 55.4088 256.037C55.0467 254.674 54.7534 254.381 53.39 254.019C54.7534 253.657 55.0467 253.363 55.4088 252C55.7705 253.363 56.0639 253.657 57.4272 254.019" fill="white"/>
</svg>
