<?xml version="1.0" encoding="utf-8"?>
<!-- Generator: Adobe Illustrator 16.0.0, SVG Export Plug-In . SVG Version: 6.00 Build 0)  -->
<!DOCTYPE svg PUBLIC "-//W3C//DTD SVG 1.1//EN" "http://www.w3.org/Graphics/SVG/1.1/DTD/svg11.dtd">
<svg version="1.1" id="Layer_1" xmlns="http://www.w3.org/2000/svg" xmlns:xlink="http://www.w3.org/1999/xlink" x="0px" y="0px"
	 width="187.578px" height="40px" viewBox="0 0 187.578 40" enable-background="new 0 0 187.578 40" xml:space="preserve">
<g id="Text_1_">
	<path fill="#15171D" d="M54.788,33h5.996V17.139c0-0.575,0.203-1.065,0.61-1.474c0.413-0.413,0.903-0.617,1.472-0.617h6.982V9.053
		h-7.586c-2.047,0-3.798,0.739-5.267,2.207c-1.468,1.468-2.208,3.219-2.208,5.267V33L54.788,33z"/>
	<g>
		<path fill="#15171D" d="M181.583,1.007v8.047h-10.478c-2.047,0-3.801,0.736-5.267,2.207c-1.473,1.467-2.207,3.219-2.207,5.267
			v8.982c0,2.057,0.736,3.822,2.207,5.301c1.468,1.459,3.22,2.189,5.267,2.189h16.472v-8.047V9.054V1.007H181.583z M181.583,24.953
			v2.051h-9.873c-0.567,0-1.06-0.203-1.471-0.609c-0.406-0.412-0.611-0.91-0.611-1.492v-7.771c0-0.567,0.203-1.06,0.611-1.473
			c0.411-0.406,0.899-0.61,1.471-0.61h9.873V24.953z"/>
		<polygon fill="#15171D" points="161.132,33 155.137,33 155.137,9.054 161.132,9.054 		"/>
		<circle fill="#ED1C24" cx="158.137" cy="3.331" r="3.331"/>
	</g>
	<path fill="#15171D" d="M140.811,1.006v8.047h-10.479c-2.047,0-3.8,0.736-5.267,2.207c-1.473,1.467-2.207,3.219-2.207,5.267v8.981
		c0,2.059,0.736,3.822,2.207,5.303c1.468,1.459,3.22,2.189,5.267,2.189h16.474v-8.047V9.054V1.006H140.811z M140.811,24.953v2.051
		h-9.873c-0.57,0-1.062-0.203-1.474-0.609c-0.405-0.412-0.608-0.91-0.608-1.492v-7.771c0-0.567,0.203-1.06,0.608-1.473
		c0.412-0.406,0.901-0.61,1.474-0.61h9.873V24.953z"/>
	<path fill="#15171D" d="M78.182,26.459c-0.365-0.359-0.545-0.783-0.545-1.262v-1.783h11.057c1.88,0,3.49-0.723,4.83-2.172
		c1.352-1.465,2.029-3.135,2.029-5.021c0-1.867-0.68-3.53-2.035-4.995c-1.342-1.448-2.949-2.172-4.836-2.172H79.12
		c-2.053,0-3.816,0.736-5.29,2.207c-1.46,1.467-2.188,3.22-2.188,5.265v8.981c0,2.035,0.729,3.802,2.195,5.304
		C75.339,32.27,77.11,33,79.145,33h14.953v-5.996H79.444C78.964,27.004,78.54,26.826,78.182,26.459z M77.637,16.832
		c0-0.479,0.178-0.89,0.545-1.238c0.356-0.365,0.775-0.545,1.256-0.545h8.371c0.521,0,0.944,0.167,1.27,0.497
		c0.316,0.335,0.479,0.766,0.479,1.287c0,0.526-0.162,0.962-0.479,1.298c-0.324,0.34-0.748,0.508-1.27,0.508H77.637V16.832z"/>
	<path fill="#15171D" d="M115.202,1.006v8.047l-10.477,0.001c-2.047,0-3.799,0.736-5.266,2.207c-1.473,1.467-2.209,3.22-2.209,5.265
		v8.981c0,2.06,0.736,3.822,2.209,5.304c1.466,1.459,3.219,2.189,5.266,2.189h16.471v-8.047V9.054V1.006H115.202z M115.202,24.953
		v2.049h-9.873c-0.568,0-1.061-0.203-1.473-0.609c-0.406-0.41-0.609-0.908-0.609-1.49v-7.771c0-0.567,0.202-1.06,0.609-1.473
		c0.414-0.406,0.904-0.61,1.473-0.61h9.873V24.953z"/>
</g>
<g>
	<path fill="#ED1C24" d="M33.871,34.227c-7.813,7.762-20.405,7.691-28.126-0.174c-7.722-7.854-7.641-20.511,0.173-28.272
		c9.499-9.443,24.826-6.798,31.175,4.165c1.95,3.375,2.873,7.239,2.666,11.136c-0.081,1.439-0.312,2.878-0.692,4.27
		c-0.428,1.566-1.051,3.074-1.848,4.49C36.308,31.453,35.176,32.916,33.871,34.227z"/>
	<path fill="#ED1C24" d="M33.871,34.227L33.871,34.227c-5.851,5.812-14.38,7.228-21.536,4.281l26.742-23.783
		c0.012,0.058,0.035,0.116,0.047,0.174c0.046,0.151,0.08,0.314,0.114,0.464c0.035,0.15,0.07,0.313,0.104,0.476
		c0.035,0.163,0.069,0.313,0.093,0.476c0.034,0.163,0.058,0.313,0.081,0.476c0.022,0.162,0.046,0.313,0.069,0.476
		c0.022,0.162,0.046,0.313,0.058,0.476c0.023,0.163,0.034,0.313,0.046,0.475c0.012,0.163,0.022,0.313,0.034,0.476
		c0.013,0.162,0.023,0.324,0.023,0.476c0.012,0.163,0.012,0.325,0.012,0.477c0,0.162,0,0.324,0,0.475c0,0.162,0,0.326-0.012,0.476
		c0,0.163-0.011,0.325-0.023,0.477c-0.012,0.162-0.022,0.324-0.034,0.475l0,0c-0.012,0.163-0.022,0.313-0.046,0.477
		c-0.012,0.162-0.035,0.313-0.058,0.476l0,0c-0.023,0.162-0.047,0.313-0.069,0.476l0,0c-0.023,0.162-0.047,0.313-0.081,0.476
		c-0.023,0.162-0.058,0.313-0.093,0.475c-0.034,0.164-0.069,0.314-0.104,0.477c-0.034,0.151-0.068,0.313-0.114,0.464
		c-0.035,0.151-0.081,0.313-0.128,0.464c-0.046,0.151-0.092,0.314-0.138,0.465l0,0c-0.046,0.15-0.092,0.313-0.15,0.464l0,0
		c-0.046,0.15-0.104,0.302-0.161,0.464c-0.058,0.151-0.116,0.302-0.173,0.453l0,0c-0.059,0.15-0.116,0.301-0.186,0.451l0,0
		c-0.058,0.151-0.127,0.303-0.185,0.454c-0.069,0.149-0.138,0.301-0.196,0.439C37.739,28.67,37.67,28.81,37.6,28.96
		c-0.068,0.15-0.148,0.29-0.218,0.44c-0.082,0.139-0.15,0.29-0.231,0.43c-0.08,0.139-0.162,0.29-0.242,0.43l0,0
		c-0.081,0.139-0.174,0.278-0.254,0.417c-0.093,0.14-0.175,0.278-0.266,0.418l0,0c-0.093,0.139-0.185,0.278-0.277,0.406l0,0
		c-0.092,0.139-0.196,0.266-0.289,0.406l0,0c-0.104,0.139-0.196,0.267-0.3,0.394l0,0c-0.104,0.128-0.208,0.267-0.312,0.395
		c-0.104,0.128-0.22,0.255-0.323,0.384l0,0c-0.115,0.127-0.22,0.254-0.335,0.382l0,0c-0.115,0.128-0.23,0.256-0.346,0.371l0,0
		C34.114,33.982,33.988,34.1,33.871,34.227z"/>
	<path fill="#F57E20" d="M33.871,34.227c-2.285,2.274-4.985,3.875-7.858,4.804L22.134,0.142
		c10.619,1.207,18.167,10.511,17.613,20.94c-0.08,1.439-0.312,2.878-0.693,4.27c-0.426,1.566-1.05,3.074-1.847,4.49
		C36.308,31.453,35.176,32.916,33.871,34.227z"/>
	
		<linearGradient id="SVGID_1_" gradientUnits="userSpaceOnUse" x1="172.0591" y1="-209.7251" x2="172.0591" y2="-234.9995" gradientTransform="matrix(1 0 0 -1 -146 -195)">
		<stop  offset="0" style="stop-color:#F05149"/>
		<stop  offset="1" style="stop-color:#F05149;stop-opacity:0"/>
	</linearGradient>
	<path fill="url(#SVGID_1_)" d="M33.871,34.227c-5.851,5.812-14.38,7.228-21.536,4.281l26.742-23.783
		c0.646,2.378,0.854,4.873,0.601,7.332c-0.161,1.602-0.52,3.18-1.05,4.688C37.612,29.563,35.995,32.104,33.871,34.227z"/>
	<path fill="#FFCB05" d="M33.871,34.227c-2.285,2.274-4.985,3.875-7.858,4.804l-1.166-11.671l14.22-12.657
		c0.646,2.378,0.854,4.872,0.601,7.332c-0.277,2.738-1.12,5.395-2.471,7.796C36.308,31.453,35.176,32.916,33.871,34.227z"/>
	<path fill="#1BB24B" d="M17.598,39.864c-4.339-0.498-8.541-2.435-11.853-5.812C-0.88,27.324-1.769,17.045,3.044,9.366
		L17.598,39.864z"/>
	<path fill="#7DC245" d="M17.598,39.864c-1.8-0.208-3.565-0.661-5.263-1.356l3.243-2.89L17.598,39.864z"/>
	<path fill="#C72026" d="M9.334,36.953c-1.281-0.8-2.481-1.774-3.589-2.9c-7.722-7.854-7.641-20.511,0.173-28.272
		c5.967-5.94,14.739-7.286,21.987-4.072L9.334,36.953z"/>
	<path fill="#0068B4" d="M0.112,17.812c0.484-4.397,2.412-8.667,5.794-12.031c5.979-5.94,14.751-7.286,21.999-4.072l-4.651,8.829
		L0.112,17.812z"/>
	<path fill="#0095D4" d="M22.134,0.142c1.975,0.221,3.925,0.743,5.771,1.566l-4.721,8.968L22.134,0.142z"/>
	<path fill="#00A64C" d="M9.334,36.953c-1.281-0.8-2.481-1.774-3.589-2.9C-0.88,27.324-1.769,17.045,3.044,9.366l9.892,20.743
		L9.334,36.953z"/>
	<path fill="#0C4D97" d="M0.112,17.812c0.323-2.959,1.293-5.848,2.932-8.446l3.116,6.543L0.112,17.812z"/>
</g>
</svg>
