<?xml version="1.0" encoding="utf-8"?>
<!-- Generator: Adobe Illustrator 25.3.1, SVG Export Plug-In . SVG Version: 6.00 Build 0)  -->
<svg version="1.1" id="Layer_1" xmlns="http://www.w3.org/2000/svg" xmlns:xlink="http://www.w3.org/1999/xlink" x="0px" y="0px"
	 viewBox="0 0 187.6 40" style="enable-background:new 0 0 187.6 40;" xml:space="preserve">
<style type="text/css">
	.st0{fill:#E31B23;}
	.st1{fill:#00AEEF;}
	.st2{fill:#008FC5;}
	.st3{fill:#FDBB30;}
	.st4{fill:#FFD200;}
	.st5{fill:#F04D3C;}
	.st6{fill:#3DAE2B;}
	.st7{fill:#8DC63F;}
	.st8{fill:#FFFFFF;}
</style>
<g>
	<g>
		<g>
			<path d="M64.2,28.2c0.4,0.7,0,1.1-0.7,1.1h-2.1c-0.7,0-0.9-0.3-1.3-1l-3.4-6.1h-3.1v6c0,0.7-0.4,1.1-1.1,1.1h-1.6
				c-0.7,0-1.1-0.4-1.1-1.1V12.1c0-0.7,0.4-1.1,1.1-1.1h6.5c4.6,0,7,2.2,7,5.7c0,2.6-1.5,4.3-3.8,5.1L64.2,28.2z M53.6,19.6h4
				c1.8,0,2.9-1,2.9-2.7c0-1.6-1.1-2.7-2.9-2.7h-4V19.6z"/>
			<path d="M73.7,26.9c1.1,0,2.3-0.3,3.6-1.3c0.5-0.4,0.9-0.5,1.4,0l0.7,0.7c0.5,0.5,0.3,1,0,1.3c-1.4,1.5-4,2.1-6,2.1
				c-4.2,0-7.7-2.9-7.7-7.4c0-4.3,3.1-7.4,7.4-7.4c2.1,0,4,0.8,5.2,2c1.3,1.3,2.1,3.2,2.1,5.1c0,0.8-0.3,1.2-1.2,1.2h-9.8
				C69.6,25.6,71.5,26.9,73.7,26.9z M69.4,20.8h7.2c-0.1-0.9-0.5-1.6-1-2.1c-0.6-0.7-1.5-1-2.6-1C71,17.7,69.7,18.9,69.4,20.8z"/>
			<path d="M96.8,10.3v18c0,0.7-0.4,1.1-1.1,1.1h-1.1c-0.7,0-1-0.4-1-1.1v-0.6c-1.1,1.2-2.7,2.1-4.7,2.1c-4.2,0-7.1-3.3-7.1-7.4
				c0-4.2,3-7.4,7.1-7.4c1.6,0,3.1,0.5,4.2,1.4v-5.6c0-0.6,0.4-0.9,1-1.1l1.6-0.3C96.4,9.1,96.8,9.6,96.8,10.3z M93.3,22.3
				c0-2.7-1.8-4.2-3.9-4.2c-2.4,0-3.9,1.9-3.9,4.2c0,2.3,1.6,4.1,3.9,4.1C91.5,26.5,93.3,25,93.3,22.3z"/>
			<path d="M113.5,10.3v18c0,0.7-0.4,1.1-1.1,1.1h-1.1c-0.7,0-1-0.4-1-1.1v-0.6c-1.1,1.2-2.7,2.1-4.7,2.1c-4.2,0-7.1-3.3-7.1-7.4
				c0-4.2,3-7.4,7.1-7.4c1.6,0,3.1,0.5,4.2,1.4v-5.6c0-0.6,0.4-0.9,1-1.1l1.6-0.3C113.1,9.1,113.5,9.6,113.5,10.3z M109.9,22.3
				c0-2.7-1.8-4.2-3.9-4.2c-2.4,0-3.9,1.9-3.9,4.2c0,2.3,1.6,4.1,3.9,4.1C108.2,26.5,109.9,25,109.9,22.3z"/>
			<path class="st0" d="M117,28.2V12.1c0-0.7,0.4-1.1,1.1-1.1h1.6c0.7,0,1.1,0.4,1.1,1.1v16.1c0,0.7-0.4,1.1-1.1,1.1h-1.6
				C117.4,29.4,117,28.9,117,28.2z"/>
			<path class="st0" d="M124.5,28.2V12.1c0-0.7,0.4-1.1,1.1-1.1h6.7c5.9,0,9.6,3.7,9.6,9.1c0,5.5-3.8,9.2-9.6,9.2h-6.7
				C124.9,29.4,124.5,28.9,124.5,28.2z M132.2,26.2c3.5,0,5.8-2.3,5.8-6c0-3.7-2.3-6-5.8-6h-3.9v12H132.2z"/>
		</g>
		<g>
			<path class="st1" d="M24.9,0.1C24.1,0.1,23.3,0,22.5,0C15.2,0,8.9,3.9,5.4,9.7l6.5,8L27.9,11L24.9,0.1z"/>
			<polygon class="st0" points="27.9,11 11.8,17.7 21.6,29.7 31.1,22.7 			"/>
			<path class="st2" d="M5.4,9.7c-1.8,3-2.9,6.5-2.9,10.3c0,0.5,0,1,0.1,1.5l9.3-3.8L5.4,9.7z"/>
			<path class="st3" d="M41.9,14.8C39.8,7,33.1,1.1,24.9,0.1l6.2,22.5L41.9,14.8z"/>
			<path class="st4" d="M31.1,22.7l3.6,13.1c4.7-3.7,7.8-9.4,7.8-15.8c0-1.8-0.2-3.5-0.7-5.2L31.1,22.7z"/>
			<path class="st5" d="M21.6,29.7l7.5,9.2c2.1-0.7,4-1.8,5.6-3.1l-3.6-13.1L21.6,29.7z"/>
			<path class="st6" d="M11.8,17.7l-9.3,3.8c0.5,6.5,4,12.1,9.2,15.4l9.8-7.2L11.8,17.7z"/>
			<path class="st7" d="M11.8,36.9c3.1,2,6.8,3.1,10.7,3.1c2.3,0,4.5-0.4,6.6-1.1l-7.5-9.2L11.8,36.9z"/>
		</g>
	</g>
	<path class="st6" d="M181.6,31.5h-32.4c-2,0-3.5-1.6-3.5-3.5V10.9c0-2,1.6-3.5,3.5-3.5h32.4c2,0,3.5,1.6,3.5,3.5V28
		C185.1,29.9,183.5,31.5,181.6,31.5z"/>
	<g>
		<g>
			<path class="st8" d="M149.6,16.5v-4.8c0-0.2,0.1-0.3,0.3-0.3h2c1.8,0,2.9,1.1,2.9,2.7c0,1.7-1.1,2.7-2.9,2.7h-2
				C149.7,16.8,149.6,16.7,149.6,16.5z M151.9,15.9c1,0,1.7-0.7,1.7-1.8c0-1.1-0.7-1.8-1.7-1.8h-1.2v3.6H151.9z"/>
			<path class="st8" d="M155.5,16.5v-4.8c0-0.2,0.1-0.3,0.3-0.3h3.2c0.2,0,0.3,0.1,0.3,0.3v0.3c0,0.2-0.1,0.3-0.3,0.3h-2.4v1.3h1.8
				c0.2,0,0.3,0.1,0.3,0.3v0.3c0,0.2-0.1,0.3-0.3,0.3h-1.8v1.4h2.5c0.2,0,0.3,0.1,0.3,0.3v0.3c0,0.2-0.1,0.3-0.3,0.3h-3.3
				C155.7,16.8,155.5,16.7,155.5,16.5z"/>
			<path class="st8" d="M160.2,16.5v-4.8c0-0.2,0.1-0.3,0.3-0.3h3.1c0.2,0,0.3,0.1,0.3,0.3v0.3c0,0.2-0.1,0.3-0.3,0.3h-2.3v1.4h1.7
				c0.2,0,0.3,0.1,0.3,0.3v0.3c0,0.2-0.1,0.3-0.3,0.3h-1.7v1.9c0,0.2-0.1,0.3-0.3,0.3h-0.5C160.3,16.8,160.2,16.7,160.2,16.5z"/>
			<path class="st8" d="M164.1,14.1c0-1.6,1.3-2.8,2.9-2.8c0.8,0,1.6,0.3,2.1,0.9c0.2,0.2,0.1,0.3,0,0.5l-0.3,0.3
				c-0.2,0.1-0.3,0.1-0.5,0c-0.3-0.3-0.8-0.5-1.3-0.5c-1,0-1.8,0.8-1.8,1.8s0.8,1.8,1.8,1.8c0.5,0,1-0.2,1.3-0.5
				c0.2-0.1,0.3-0.2,0.5,0l0.3,0.3c0.2,0.1,0.2,0.3,0,0.5c-0.5,0.5-1.3,0.9-2.1,0.9C165.4,16.9,164.1,15.7,164.1,14.1z"/>
			<path class="st8" d="M169.5,14.1c0-1.6,1.3-2.8,3-2.8c1.7,0,3,1.2,3,2.8c0,1.6-1.3,2.8-3,2.8C170.8,16.9,169.5,15.7,169.5,14.1z
				 M174.3,14.1c0-1.1-0.8-1.8-1.8-1.8s-1.8,0.8-1.8,1.8c0,1.1,0.8,1.8,1.8,1.8S174.3,15.1,174.3,14.1z"/>
			<path class="st8" d="M181,11.7v4.8c0,0.2-0.2,0.4-0.4,0.4h-0.1c-0.2,0-0.3-0.1-0.5-0.3l-2.7-3.2v3.2c0,0.2-0.1,0.3-0.3,0.3h-0.5
				c-0.2,0-0.3-0.1-0.3-0.3v-4.8c0-0.3,0.2-0.4,0.4-0.4h0.1c0.2,0,0.3,0.1,0.5,0.3l2.7,3.2v-3.2c0-0.2,0.1-0.3,0.3-0.3h0.5
				C180.9,11.3,181,11.4,181,11.7z"/>
		</g>
		<g>
			<path class="st8" d="M155.4,26v0.5c0,0.4-0.2,0.5-0.5,0.5h-4.5c-0.3,0-0.5-0.2-0.5-0.5V26c0-0.2,0-0.4,0.3-0.7
				c0.6-0.5,1.3-1.1,1.8-1.7c0.7-0.7,1.2-1.2,1.2-1.7c0-0.5-0.4-0.8-0.9-0.8c-0.5,0-1,0.3-1.5,0.7c-0.3,0.2-0.5,0.2-0.7-0.1
				l-0.3-0.4c-0.2-0.3-0.2-0.5,0.1-0.8c0.7-0.7,1.6-1,2.7-1c1.5,0,2.6,0.9,2.6,2.3c0,0.7-0.3,1.2-0.9,1.9c-0.4,0.5-1.1,1-1.8,1.7
				h2.4C155.2,25.4,155.4,25.6,155.4,26z"/>
			<path class="st8" d="M157.8,26.8c-0.2-0.2-0.4-0.5,0-0.8c0.4-0.4,0.4-0.5,1.5-1.5l-0.1,0c-0.2,0.1-0.4,0.2-0.7,0.2
				c-1.6,0-2.8-1-2.8-2.5c0-1.5,1.2-2.6,3-2.6c0.9,0,1.8,0.3,2.3,0.9c0.5,0.5,0.7,1.1,0.7,1.9c0,1.8-1.2,3.3-2.7,4.7
				c-0.3,0.3-0.6,0.4-1,0.1L157.8,26.8z M159.8,22.1c0-0.6-0.5-1.1-1.1-1.1c-0.6,0-1.1,0.5-1.1,1.1c0,0.6,0.5,1.1,1.1,1.1
				C159.4,23.2,159.8,22.7,159.8,22.1z"/>
			<path class="st8" d="M168.8,21.8l-2.5,1.6l2.5,1.6c0.2,0.1,0.3,0.3,0.3,0.5v0.7c0,0.4-0.3,0.5-0.6,0.3l-3.6-2.2
				c-0.4-0.3-0.6-0.5-0.6-0.9v-0.1c0-0.4,0.2-0.7,0.6-0.9l3.6-2.2c0.3-0.2,0.6,0,0.6,0.3v0.7C169.1,21.5,169,21.7,168.8,21.8z"/>
			<path class="st8" d="M169.7,27.1l4.2-7.7c0.2-0.3,0.4-0.5,0.7-0.5h0.9c0.3,0,0.5,0.2,0.3,0.5l-4.2,7.7c-0.2,0.3-0.4,0.5-0.7,0.5
				H170C169.7,27.6,169.5,27.4,169.7,27.1z"/>
			<path class="st8" d="M181.2,23.4L181.2,23.4c0,0.5-0.2,0.7-0.6,1l-3.6,2.2c-0.3,0.2-0.6,0-0.6-0.3v-0.7c0-0.2,0.1-0.4,0.3-0.5
				l2.5-1.6l-2.5-1.6c-0.2-0.1-0.3-0.3-0.3-0.5v-0.7c0-0.4,0.3-0.5,0.6-0.3l3.6,2.2C181,22.7,181.2,22.9,181.2,23.4z"/>
		</g>
	</g>
</g>
</svg>
