<svg width="107" height="108" viewBox="0 0 107 108" fill="none" xmlns="http://www.w3.org/2000/svg">
<path fill-rule="evenodd" clip-rule="evenodd" d="M90.9632 91.9158C69.9796 112.758 36.1641 112.571 15.4285 91.4485C-5.30706 70.3568 -5.09009 36.367 15.8935 15.5245C41.4023 -9.83538 82.5635 -2.73211 99.6107 26.7091C104.849 35.7751 107.328 46.1496 106.771 56.6176C106.554 60.4808 105.934 64.3439 104.911 68.0825C103.764 72.2884 102.09 76.3385 99.9517 80.1394C97.5031 84.4699 94.4656 88.3954 90.9632 91.9158Z" fill="#ED1C24"/>
<path fill-rule="evenodd" clip-rule="evenodd" d="M90.9632 91.9158V91.9158C75.2487 107.524 52.3435 111.325 33.1266 103.412L104.942 39.5448C104.973 39.7006 105.035 39.8563 105.066 40.0121C105.19 40.4171 105.283 40.8533 105.376 41.2583C105.469 41.6633 105.562 42.0995 105.655 42.5356C105.748 42.9718 105.841 43.3768 105.903 43.813C105.996 44.2492 106.058 44.6542 106.12 45.0903C106.182 45.5265 106.244 45.9315 106.306 46.3677C106.368 46.8038 106.43 47.2089 106.461 47.645C106.523 48.0812 106.554 48.4862 106.585 48.9224C106.616 49.3585 106.647 49.7635 106.678 50.1997C106.709 50.6359 106.74 51.072 106.74 51.477C106.771 51.9132 106.771 52.3494 106.771 52.7544C106.771 53.1906 106.771 53.6267 106.771 54.0317C106.771 54.4679 106.771 54.9041 106.74 55.3091C106.74 55.7452 106.709 56.1814 106.678 56.5864C106.647 57.0226 106.616 57.4587 106.585 57.8638V57.8638C106.554 58.2999 106.523 58.7049 106.461 59.1411C106.43 59.5773 106.368 59.9823 106.306 60.4184V60.4184C106.244 60.8546 106.182 61.2596 106.12 61.6958V61.6958C106.058 62.1319 105.996 62.537 105.903 62.9731C105.841 63.4093 105.748 63.8143 105.655 64.2505C105.562 64.6866 105.469 65.0916 105.376 65.5278C105.283 65.9328 105.19 66.369 105.066 66.774C104.973 67.179 104.849 67.6152 104.725 68.0202C104.601 68.4252 104.477 68.8614 104.353 69.2664V69.2664C104.229 69.6714 104.105 70.1075 103.95 70.5126V70.5126C103.826 70.9176 103.671 71.3226 103.516 71.7587C103.361 72.1638 103.206 72.5688 103.051 72.9738V72.9738C102.896 73.3788 102.741 73.7838 102.555 74.1888V74.1888C102.4 74.5938 102.214 74.9988 102.059 75.4038C101.873 75.8089 101.687 76.2139 101.532 76.5877C101.346 76.9927 101.16 77.3666 100.975 77.7716C100.789 78.1766 100.572 78.5505 100.386 78.9555C100.169 79.3293 99.9827 79.7343 99.7657 80.1082C99.5487 80.4821 99.3318 80.8871 99.1148 81.2609V81.2609C98.8979 81.6348 98.6499 82.0086 98.4329 82.3825C98.185 82.7564 97.968 83.1302 97.72 83.5041V83.5041C97.4721 83.8779 97.2241 84.2518 96.9762 84.5945V84.5945C96.7282 84.9683 96.4493 85.311 96.2013 85.6849V85.6849C95.9223 86.0587 95.6744 86.4015 95.3954 86.7442V86.7442C95.1165 87.0869 94.8375 87.4607 94.5586 87.8034C94.2796 88.1461 93.9697 88.4888 93.6907 88.8315V88.8315C93.3808 89.1742 93.1018 89.5169 92.7919 89.8596V89.8596C92.4819 90.2023 92.172 90.545 91.862 90.8566V90.8566C91.614 91.2616 91.2731 91.5731 90.9632 91.9158Z" fill="#ED1C24"/>
<path fill-rule="evenodd" clip-rule="evenodd" d="M90.9632 91.9158C84.8262 98.0222 77.5734 102.321 69.8556 104.814L59.4413 0.383362C87.9567 3.62345 108.227 28.6095 106.74 56.6176C106.523 60.4808 105.903 64.3439 104.88 68.0825C103.733 72.2884 102.059 76.3385 99.9207 80.1394C97.5031 84.4699 94.4656 88.3954 90.9632 91.9158Z" fill="#F57E20"/>
<path fill-rule="evenodd" clip-rule="evenodd" d="M90.9632 91.9158C75.2487 107.524 52.3435 111.325 33.1266 103.412L104.942 39.5448C106.678 45.9315 107.235 52.6298 106.554 59.2346C106.12 63.5339 105.159 67.7709 103.733 71.8211C101.006 79.3916 96.6662 86.2145 90.9632 91.9158Z" fill="url(#paint0_linear)"/>
<path fill-rule="evenodd" clip-rule="evenodd" d="M90.9632 91.9158C84.8262 98.0222 77.5734 102.322 69.8556 104.814L66.7251 73.4723L104.911 39.4825C106.647 45.8692 107.205 52.5675 106.523 59.1723C105.779 66.5248 103.516 73.6592 99.8897 80.1082C97.5031 84.4699 94.4656 88.3954 90.9632 91.9158Z" fill="#FFCB05"/>
<path fill-rule="evenodd" clip-rule="evenodd" d="M47.2603 107.057C35.6062 105.717 24.3241 100.515 15.4285 91.4485C-2.36255 73.3788 -4.74915 45.7757 8.17573 25.1513L47.2603 107.057Z" fill="#1BB24B"/>
<path fill-rule="evenodd" clip-rule="evenodd" d="M47.2603 107.057C42.4251 106.496 37.6829 105.281 33.1266 103.412L41.8362 95.6544L47.2603 107.057Z" fill="#7DC245"/>
<path fill-rule="evenodd" clip-rule="evenodd" d="M25.068 99.2372C21.6275 97.0875 18.4041 94.4705 15.4285 91.4485C-5.30706 70.3568 -5.09009 36.367 15.8935 15.5245C31.9178 -0.426661 55.474 -4.0406 74.9388 4.58924L25.068 99.2372Z" fill="#C72026"/>
<path fill-rule="evenodd" clip-rule="evenodd" d="M0.303017 47.832C1.6048 36.0243 6.78096 24.5594 15.8625 15.5245C31.9178 -0.426661 55.474 -4.0406 74.9388 4.58924L62.4478 28.298L0.303017 47.832Z" fill="#0068B4"/>
<path fill-rule="evenodd" clip-rule="evenodd" d="M59.4413 0.383362C64.7415 0.975301 69.9796 2.37726 74.9388 4.58924L62.2619 28.6718L59.4413 0.383362Z" fill="#0095D4"/>
<path fill-rule="evenodd" clip-rule="evenodd" d="M25.068 99.2372C21.6275 97.0875 18.4041 94.4705 15.4285 91.4485C-2.36255 73.3788 -4.74915 45.7757 8.17573 25.1513L34.7384 80.8559L25.068 99.2372Z" fill="#00A64C"/>
<path fill-rule="evenodd" clip-rule="evenodd" d="M0.303017 47.8319C1.17087 39.8875 3.77445 32.13 8.17573 25.1513L16.5444 42.7226L0.303017 47.8319Z" fill="#0C4D97"/>
<defs>
<linearGradient id="paint0_linear" x1="69.9814" y1="39.5448" x2="69.9814" y2="107.418" gradientUnits="userSpaceOnUse">
<stop stop-color="#F05149"/>
<stop offset="1" stop-color="#F05149" stop-opacity="0"/>
</linearGradient>
</defs>
</svg>
