<?xml version="1.0" encoding="utf-8"?>
<!-- Generator: Adobe Illustrator 16.0.0, SVG Export Plug-In . SVG Version: 6.00 Build 0)  -->
<!DOCTYPE svg PUBLIC "-//W3C//DTD SVG 1.1//EN" "http://www.w3.org/Graphics/SVG/1.1/DTD/svg11.dtd">
<svg version="1.1" id="Layer_1" xmlns="http://www.w3.org/2000/svg" xmlns:xlink="http://www.w3.org/1999/xlink" x="0px" y="0px"
	 width="32px" height="32px" viewBox="0 0 32 32" enable-background="new 0 0 32 32" xml:space="preserve">
<g>
	<polygon fill="#E71E25" points="9.581,31.5 0.5,22.421 0.5,9.58 9.581,0.5 22.422,0.5 31.5,9.58 31.5,22.421 22.422,31.5 	"/>
	<path d="M22.215,1L31,9.787v12.427L22.215,31H9.788L1,22.214V9.787L9.788,1H22.215 M22.629,0H9.374L0,9.373v13.255L9.374,32h13.255
		L32,22.628V9.373L22.629,0L22.629,0z"/>
</g>
<g>
	<path fill="#FFFFFF" d="M21.801,2L30,10.201V21.8L21.801,30H10.202L2,21.8V10.201L10.202,2H21.801 M22.215,1H9.788L1,9.787v12.427
		L9.788,31h12.427L31,22.214V9.787L22.215,1L22.215,1z"/>
</g>
</svg>
