<svg xmlns="http://www.w3.org/2000/svg" width="16" height="16" viewBox="0 0 16 16"><path d="M7.16 6.867c0 1.84-1.38 2.984-3.586 2.984H1.911v2.276H0V3.871h3.574c2.206 0 3.586 1.144 3.586 2.996zm-1.934 0c0-.908-.59-1.439-1.758-1.439H1.911v2.866h1.557c1.168 0 1.758-.53 1.758-1.427zM8.12 8c0-2.489 1.912-4.27 4.483-4.27 1.427 0 2.618.519 3.396 1.462l-1.226 1.132c-.556-.637-1.251-.967-2.077-.967-1.545 0-2.643 1.085-2.643 2.642 0 1.556 1.098 2.642 2.643 2.642.826 0 1.521-.331 2.077-.979L16 10.795c-.778.956-1.97 1.476-3.408 1.476-2.56 0-4.472-1.783-4.472-4.271z"/></svg>