<svg xmlns="http://www.w3.org/2000/svg" width="16" height="16" viewBox="0 69.41 16 16"><path d="M15.858 80.687c-.313.395-1.079.676-1.079.676l-5.696 2.046V81.9l4.192-1.494c.476-.17.549-.411.162-.538-.386-.127-1.085-.09-1.561.081l-2.793.983v-1.565l.161-.055s.807-.285 1.942-.411c1.135-.125 2.524.017 3.615.431 1.23.388 1.369.96 1.057 1.355zm-6.233-2.569v-3.859c0-.453-.083-.871-.509-.989-.326-.104-.528.198-.528.651v9.664l-2.606-.827V71.235c1.108.206 2.722.692 3.59.984 2.207.758 2.955 1.701 2.955 3.826.001 2.072-1.277 2.857-2.902 2.073zm-8.424 3.624c-1.262-.355-1.473-1.096-.897-1.522.532-.395 1.436-.69 1.436-.69l3.737-1.33v1.515l-2.689.963c-.475.17-.548.411-.162.538.386.126 1.085.091 1.562-.08l1.29-.469v1.355c-.082.015-.173.029-.257.043a8.46 8.46 0 0 1-4.02-.323z"/></svg>