<svg xmlns="http://www.w3.org/2000/svg" width="16" height="16.009" viewBox="178.184 178.282 16 16.009"><path d="M185.386 194.258a7.99 7.99 0 0 1-3.552-1.26c-.898-.587-1.1-.827-1.1-1.309 0-.965 1.061-2.657 2.877-4.585 1.032-1.095 2.47-2.378 2.625-2.343.302.067 2.717 2.423 3.622 3.533 1.43 1.754 2.088 3.19 1.754 3.83-.254.486-1.83 1.438-2.987 1.804-.954.3-2.207.428-3.239.33zm-5.866-3.573c-.747-1.145-1.124-2.272-1.306-3.902-.06-.538-.039-.846.137-1.95.218-1.378 1.002-2.972 1.945-3.952.401-.418.438-.428.927-.263.594.2 1.23.64 2.213 1.528l.574.52-.314.384c-1.455 1.788-2.992 4.322-3.57 5.89-.315.853-.442 1.708-.307 2.064.091.241.007.151-.299-.319zm13.101.196c.073-.36-.02-1.02-.238-1.688-.474-1.443-2.056-4.129-3.509-5.956l-.457-.575.495-.455c.646-.593 1.095-.948 1.578-1.25.382-.238.928-.449 1.163-.449.145 0 .653.528 1.064 1.105a8.39 8.39 0 0 1 1.343 3.104c.153.728.166 2.286.024 3.013a9.437 9.437 0 0 1-.6 1.895c-.18.393-.625 1.156-.82 1.404-.099.127-.099.127-.043-.148zm-7.103-10.645c-.67-.34-1.705-.706-2.276-.804a4.117 4.117 0 0 0-.759-.043c-.47.024-.45 0 .306-.358a7.759 7.759 0 0 1 1.865-.62c.801-.169 2.305-.17 3.093-.005.852.18 1.854.553 2.418.9l.168.104-.385-.02c-.766-.039-1.88.271-3.078.854-.36.175-.675.316-.698.312a15.672 15.672 0 0 1-.654-.32z"/></svg>