<svg xmlns="http://www.w3.org/2000/svg" width="16" height="16" viewBox="0 0 16 16"><path d="M2.375 4.184h.292c1.029 0 1.769.356 2.22 1.071.143.379.214.911.214 1.596v.701H2.94V6.325c0-.571-.065-.856-.195-.856a.15.15 0 0 0-.078-.02h-.175c-.208 0-.312.194-.312.584v3.992c0 .337.065.525.195.564.071.013.13.02.175.02h.058c.221 0 .331-.221.331-.662V8.76H5.1v.312c0 1.031-.123 1.674-.37 1.927-.503.585-1.191.877-2.064.877h-.213c-.935 0-1.623-.272-2.063-.818C.13 10.823 0 9.973 0 8.506v-.778c0-1.441.059-2.227.175-2.356.217-.457.613-.795 1.188-1.013a3.16 3.16 0 0 1 1.012-.175zM8.022 4.125h.156c1.097 0 1.843.422 2.239 1.266.104.198.155.847.155 1.947v1.324c0 1.269-.084 1.989-.253 2.161-.451.701-1.139 1.052-2.064 1.052h-.35c-.863 0-1.532-.312-2.006-.935-.208-.27-.312-.834-.312-1.694V6.909c0-.905.078-1.477.234-1.713.435-.714 1.169-1.071 2.201-1.071zM7.75 9.83c0 .507.058.76.175.76l.117.02h.078c.182 0 .273-.195.273-.584.012-.086.018-.287.018-.605V6.384c0-.61-.039-.915-.117-.915 0-.039-.071-.065-.214-.078-.22 0-.331.201-.331.604V9.83zM10.996 4.306h2.551c.013 0 .02.006.02.019.013 0 .02-.006.02-.019.847.052 1.333.129 1.46.233.302.094.549.289.74.584.142.191.213.763.213 1.713v2.668c0 .977-.098 1.535-.292 1.675-.23.351-.827.525-1.791.525h-2.921V4.306zm2.181 1.264v4.849h.117c.337 0 .506-.149.506-.447.026-.182.039-.474.039-.876V6.739c0-.688-.046-1.032-.137-1.032 0-.064-.175-.11-.525-.137z"/></svg>