<svg xmlns="http://www.w3.org/2000/svg" width="32" height="32" viewBox="0 0 32 32"><path d="M29.241 7.359L16.896.234a1.744 1.744 0 0 0-1.748 0L2.81 7.359c-.54.312-.873.89-.874 1.514v14.253c0 .625.333 1.201.874 1.515l12.343 7.125c.54.313 1.207.313 1.748 0l12.342-7.125c.541-.313.874-.891.875-1.515V8.873a1.754 1.754 0 0 0-.877-1.514zm-.418 15.032c0 .616-.328 1.187-.862 1.495l-11.07 6.392a1.726 1.726 0 0 1-1.728 0L4.092 23.886a1.731 1.731 0 0 1-.864-1.495V9.604a1.729 1.729 0 0 1 .864-1.493L15.161 1.72a1.728 1.728 0 0 1 1.729 0l11.068 6.391c.534.308.864.877.864 1.493v12.787z"/><path d="M9.538 8.836l-.813.815-.814-.814.813-.814.814.813zm1.205 1.205l-.814.814-.814-.814.814-.814.814.814zm1.204 1.205l-.814.814-.814-.814.814-.814.814.814zm-2.431.021l-.815.815-.814-.814.815-.815.814.814zm1.204 1.205l-.814.813-.814-.813.814-.814.814.814zm1.204 1.204l-.813.814-.814-.814.814-.814.813.814zM10.34 8.814l.814-.813.814.813-.814.814-.814-.814zm1.204 1.204l.814-.813.814.814-.814.813-.814-.814zm1.204 1.206l.814-.814.814.814-.814.814-.814-.814zM8.79 22.35l.814.813-.813.813-.814-.813.813-.813zm1.207-1.205l.813.814-.814.813-.814-.813.815-.814zm1.203-1.206l.815.815-.814.813-.815-.814.814-.814zm.022 2.432l.814.814-.815.815-.813-.814.814-.815zm1.205-1.203l.814.814-.814.813-.814-.814.814-.813zm1.203-1.205l.815.814-.814.814-.814-.814.813-.814zm-4.86 1.585l-.814-.813.814-.815.814.813-.814.815zm1.203-1.206l-.813-.815.814-.813.813.815-.814.813zm1.204-1.203l-.814-.813.814-.814.814.814-.814.813zm1.193-1.194l-.813-.814.813-.813.814.813-.814.814zm1.205-1.203l-.814-.815.814-.815.815.815-.815.815zm-2.425-.019l-.814-.813.813-.813.814.813-.813.813zm1.204-1.203l-.814-.814.813-.814.814.813-.813.815zm9.989 7.751l.815-.815.814.815-.814.814-.815-.814zm-1.202-1.203l.813-.815.814.813-.814.813-.813-.811zm-1.205-1.204l.813-.814.814.812-.813.815-.814-.813zm2.429-.023l.814-.813.813.813-.813.815-.814-.815zm-1.203-1.206l.814-.814.813.814-.815.814-.812-.814zm-1.204-1.203l.813-.814.814.814-.814.813-.813-.813zm1.584 4.861l-.815.814-.813-.813.815-.815.813.814zm-1.205-1.204l-.813.813-.813-.814.813-.813.813.814zm-1.204-1.205l-.813.814-.814-.814.813-.813.814.813zm-1.194-1.193l-.814.813-.814-.813.814-.814.814.814zm-1.203-1.205l-.813.814-.815-.813.813-.815.815.814zm-.018 2.426l-.814.814-.814-.814.814-.814.814.814zm-1.204-1.204l-.814.813-.814-.813.813-.815.815.815zm4.007-8.915l-.813-.814.813-.814.814.815-.814.813zm-1.203 1.205l-.813-.814.813-.814.814.814-.814.814zm-1.193 1.192l-.814-.814.815-.814.813.814-.814.814zm-1.205 1.205l-.813-.814.813-.813.814.813-.814.814zm-.016-2.425l-.814-.814.814-.813.814.813-.814.814zM14.7 13.173l-.814-.814.814-.813.813.813-.813.814zm8.48-2.76l.814.814-.814.814-.813-.814.813-.814zm-1.203 1.204l.813.815-.813.814-.814-.815.814-.814zm-1.206 1.205l.813.813-.813.815-.814-.814.814-.814zm-1.193 1.192l.814.814-.815.815-.813-.814.814-.815zm-1.205 1.206l.814.813-.813.814-.813-.814.812-.813zm2.427.016l.813.815-.813.814-.814-.815.814-.814zm-1.204 1.204l.815.815-.813.813-.815-.814.813-.814zm3.562-6.829l-.814-.813.814-.815.814.814-.814.814zm-1.206 1.205L21.141 10l.814-.814.813.815-.816.815zm-1.203 1.204l-.813-.814.813-.814.813.814-.813.814zm-.02-2.431l-.814-.814.814-.814.813.814-.813.814z"/></svg>