<svg xmlns="http://www.w3.org/2000/svg" width="32" height="32" viewBox="0 0 32 32"><path d="M24.014 3.591c-.623-1.387-1.533-2.365-2.717-2.778-3.148-1.098-7.285 2.139-10.337 7.624a34.612 34.612 0 0 1 1.832-.382c3.952-2.64 7.981-4.188 11.222-4.464zM7.986 28.409c.623 1.387 1.533 2.365 2.716 2.777 3.149 1.099 7.286-2.139 10.338-7.623-.606.144-1.218.271-1.832.381-3.951 2.642-7.981 4.19-11.222 4.465z"/><path d="M15.031 7.722c5.85-.685 11.183.104 14.556 1.873.132-1.308-.118-2.457-.798-3.348-2.215-2.905-8.288-2.124-14.43 1.561.224-.031.447-.059.672-.086zm1.938 16.555c-5.85.685-11.183-.104-14.556-1.872-.13 1.307.118 2.456.797 3.347 2.216 2.906 8.288 2.124 14.431-1.561-.223.032-.446.06-.672.086zm-5.126-7.65c-.82.284-1.238 1.372-.553 1.916s1.836.292 2.373-.245c.536-.536.859-1.852.859-1.852s-1.859-.102-2.679.181zm6.662-3.114c-.891.631-.977 1.939-.977 1.939s.969.087 2.262-.055 1.521-1.19 1.207-1.837c-.317-.646-1.601-.677-2.492-.047z"/><path d="M31.975 14.13c-.496-4.229-8.049-6.821-16.871-5.788C6.281 9.375-.469 13.641.025 17.87c.494 4.229 8.049 6.82 16.871 5.788 8.823-1.033 15.573-5.298 15.079-9.528zm-8.062.774c-.588 1.851-3.446 2.198-3.446 2.198-1.146.157-3.248.137-3.248.137-.147 1.303.661 1.492 2.092 1.514 1.43.021 3.205-.799 3.205-.799l-.44 2.271s-1.756.473-3.06.451c-1.304-.021-3.037.042-4.097-1.587-1.06 1.188-2.42 1.671-4.239 1.683-1.818.011-3.121-1.072-2.617-3.396s3.543-2.577 3.543-2.577c1.545-.21 3.289-.147 3.289-.147.222-1.419-1.125-1.503-2.5-1.493-1.377.01-2.797.778-2.797.778l.39-2.239s1.481-.347 3.375-.494c1.892-.147 3.301.578 3.753 1.608 1.113-1.22 3.163-1.966 4.992-1.619 1.828.349 2.394 1.86 1.805 3.711z"/></svg>