<svg xmlns="http://www.w3.org/2000/svg" width="32" height="32" viewBox="0 0 32 32"><path d="M30.17 8.538C24.984 4.193 18.581 1.99 17.378 1.603l-1.429-.434-1.34.422c-1.249.402-7.741 2.636-12.947 7.046L0 10.046l.355 2.017.045.255c.181.957.839 3.929 2.534 7.266 1.169 2.295 2.609 4.316 4.28 6.016a19.413 19.413 0 0 0 7.312 4.695l1.498.537 1.427-.553c2.727-.98 5.178-2.555 7.285-4.682 1.664-1.683 3.104-3.707 4.285-6.023 1.527-3 2.321-5.99 2.545-7.378l.011.002L32 9.844l-1.83-1.306zm-12.197 2.621c1.273-.008 2.424.293 3.266.802 0 0-.456-.146-.92-.208-.23.239-.432.339-.493.37a.22.22 0 0 0-.015.016c-1.352-.286-1.838-.98-1.838-.98zm9.92 1.001l-.029.079a50.682 50.682 0 0 1-.717 2.037 52.717 52.717 0 0 1-.471 1.921c-.432 1.662-1.746 3.459-2.41 4.295-.24.299-.397.48-.397.48-.298.004-.567-.009-.823-.025-.083-.006-.154-.016-.234-.025a6.245 6.245 0 0 1-.471-.059c-.084-.014-.16-.031-.238-.047a5.427 5.427 0 0 1-.361-.088c-.073-.021-.143-.043-.211-.064-.1-.033-.197-.07-.295-.111-.059-.025-.115-.051-.17-.076a3.362 3.362 0 0 1-.25-.137c-.041-.025-.086-.051-.125-.078a2.282 2.282 0 0 1-.229-.176c-.021-.02-.047-.037-.066-.055a2.153 2.153 0 0 1-.222-.236c-.024-.031-.044-.063-.065-.092a1.876 1.876 0 0 1-.106-.156c-.31-.523-.267-.99-.267-.99 0-.084 0-.168.016-.254 0 0 .012-.084.036-.199.096-.438.44-1.481 1.606-1.481.181-.008.357.03.514.11.012.004.023.007.035.013.771.417.271 1.194.271 1.194.964-.153 2.16-1.232 1.968-3.124a2.73 2.73 0 0 0-.102-.483c-.02-.063-.046-.119-.069-.179a2.453 2.453 0 0 0-.106-.253c-.027-.056-.06-.108-.09-.161v-.005c-.012-.02-.025-.036-.039-.055a2.926 2.926 0 0 0-.235-.34l-.046-.054c-.015-.018-.027-.039-.043-.056l-.001.004a4.087 4.087 0 0 0-.236-.256l-.054-.051a5.431 5.431 0 0 0-.29-.257l-.053-.041a5.77 5.77 0 0 0-.283-.211l-.051-.035a8.453 8.453 0 0 0-.254-.164l-.047-.028-.104-.062.002.004c-.204-.115-.347-.18-.347-.18l.006-.054.002-.012c.051-.374-.008-.513-.008-.513a16.81 16.81 0 0 0-.848-.481c-.095-.05-.187-.094-.279-.143-.183-.092-.36-.185-.537-.268-.115-.054-.229-.102-.342-.152a18.82 18.82 0 0 0-.44-.19c-.127-.052-.251-.099-.375-.146a13.903 13.903 0 0 0-1.489-.484l-.218-.057a14.621 14.621 0 0 0-.578-.133c-2.077-.431-3.403-.215-3.403-.215l.836.836.089.089c-.092-.007-.193-.007-.285-.007-.299.011-.59.046-.878.092-.07.011-.14.026-.209.039a7.373 7.373 0 0 0-.718.177c-.039.012-.078.021-.116.034-2.933.945-5.061 3.741-5.061 7.056 0 1.42.47 2.244.902 3.193a7.03 7.03 0 0 1-.278-.382 4.586 4.586 0 0 1-.152-.223c-.045-.066-.089-.129-.134-.197a53.808 53.808 0 0 1-.256-.397c-.008-.005-.014-.015-.02-.024-.091-.145-.18-.289-.265-.428-.365-.6-.647-1.105-.679-1.178-.734-1.619-1.54-3.701-1.871-5.577l-.212-.07.054-.046C8.614 8.157 14.485 6.113 15.705 5.72l.27-.085.154.046.116.039c1.219.395 7.09 2.438 11.735 6.373l.039.031-.126.036z"/></svg>