<svg xmlns="http://www.w3.org/2000/svg" width="32" height="32" viewBox="0 0 32 32"><path d="M30.773 16.947c-1.521-2.416-3.918-3.208-3.918-3.208s.091-.056.236-.162h-.013c.689-.5 2.761-2.221 2.761-4.923 0-3.241-3.14-7.373-8.078-7.373H7.889v9.054H0v3.867h7.889v5.051H0v3.857h7.889v7.607h12.845c6.069 0 11.267-3.313 11.267-9.332-.001-1.871-.542-3.322-1.228-4.438zM13.17 5.343h6.379c2.572 0 5.196 1.234 5.196 4.039 0 2.597-2.381 4-4.774 4.194H13.17V5.343zm7.248 20.52H13.17v-8.916h8.252c4.023.275 5.715 2.168 5.713 4.852.002 2.906-3.475 4.064-6.717 4.064z"/></svg>