<svg xmlns="http://www.w3.org/2000/svg" width="32" height="32" viewBox="0 0 32 32"><path d="M16.627 18.584c.496.077.965.287 1.356.549l4.487-4.49c-1.592-1.383-3.602-2.297-5.846-2.401v6.343h.003zm0 13.416a9.857 9.857 0 0 0 5.846-2.429l-4.463-4.463a3.341 3.341 0 0 1-1.383.548V32zm2.4-7.935l4.516 4.489a10.09 10.09 0 0 0 2.351-5.77h-6.396a3.6 3.6 0 0 1-.471 1.281zm6.84-2.61c-.158-2.244-1.07-4.254-2.402-5.847l-4.487 4.489c.286.392.469.861.547 1.356l6.342.002zm-19.76 0h6.342c.079-.496.288-.966.549-1.384l-6.892-6.89.001 8.274zm9.213 4.202a3.454 3.454 0 0 1-1.355-.548l-4.49 4.488c1.593 1.385 3.603 2.298 5.847 2.402l-.002-6.342zm-6.812 3.002l4.49-4.542c-.287-.365-.47-.835-.548-1.305H6.108a9.986 9.986 0 0 0 2.4 5.847zm6.787-10.049V8.221L6.107 0s0 10.805.025 11.118a2514.37 2514.37 0 0 0 7.936 7.988 3.556 3.556 0 0 1 1.227-.496z"/></svg>