<svg xmlns="http://www.w3.org/2000/svg" width="32" height="32" viewBox="0 0 32 32"><path d="M16 0C7.179 0 0 7.178 0 16c0 8.821 7.179 16 16 16 8.824 0 16-7.179 16-16 0-8.822-7.178-16-16-16zm0 29.491C8.562 29.491 2.51 23.439 2.51 16 2.51 8.562 8.562 2.51 16 2.51c7.439 0 13.492 6.052 13.492 13.49C29.49 23.439 23.439 29.491 16 29.491z"/><path d="M16 9.715c-3.959 0-7.182 3.222-7.182 7.183a7.17 7.17 0 0 0 2.439 5.387 9.733 9.733 0 0 1 2.357-.863 5.116 5.116 0 0 1-2.73-4.523 5.122 5.122 0 0 1 5.115-5.116 5.122 5.122 0 0 1 5.118 5.116 5.119 5.119 0 0 1-2.73 4.523c.82.186 1.611.475 2.357.863a7.161 7.161 0 0 0 2.438-5.387c0-3.961-3.221-7.183-7.182-7.183z"/><path d="M15.998 5.857c-6.482 0-11.756 5.274-11.756 11.756 0 3.355 1.416 6.385 3.678 8.529a7.347 7.347 0 0 1 1.477-1.852 9.375 9.375 0 0 1-2.793-6.678c0-5.181 4.215-9.396 9.396-9.396 5.181 0 9.396 4.215 9.396 9.396a9.368 9.368 0 0 1-2.794 6.678 7.341 7.341 0 0 1 1.479 1.852 11.725 11.725 0 0 0 3.678-8.529c-.003-6.482-5.279-11.756-11.761-11.756z"/></svg>