<svg xmlns="http://www.w3.org/2000/svg" width="32" height="32" viewBox="0 0 32 32"><path d="M17.833 21.876v-4.631a3.751 3.751 0 0 0 2.097-3.371 3.742 3.742 0 0 0-3.737-3.748 3.743 3.743 0 0 0-3.738 3.748c0 1.482.855 2.762 2.099 3.371v4.631h3.279z"/><path d="M27.635 12.5h4.122C30.166 5.347 23.802 0 16.192 0 7.384 0 .243 7.163.243 16c0 8.836 7.141 16 15.95 16 7.609 0 13.974-5.348 15.564-12.499h-4.122C26.137 24.415 21.575 28 16.192 28 9.596 28 4.23 22.617 4.23 16c0-6.616 5.367-11.999 11.962-11.999 5.383 0 9.947 3.584 11.443 8.499z"/></svg>