<svg xmlns="http://www.w3.org/2000/svg" width="32" height="32" viewBox="0 0 32 32"><path d="M32 13.658c0-5.531-4.482-10.017-10.016-10.017h-7.917l5.394 4.683h2.521a5.34 5.34 0 0 1 5.334 5.334 5.338 5.338 0 0 1-5.334 5.334h-7.917l10.79 9.365h7.143l-6.24-5.419A10.013 10.013 0 0 0 32 13.658z"/><path d="M10.017 23.676a5.34 5.34 0 0 1-5.334-5.334 5.339 5.339 0 0 1 5.334-5.334h7.917L7.144 3.642H.001l6.241 5.419A10.02 10.02 0 0 0 0 18.342c0 5.531 4.484 10.017 10.018 10.017h7.917l-5.395-4.683h-2.523z"/></svg>