<svg xmlns="http://www.w3.org/2000/svg" width="32" height="32" viewBox="0 0 32 32"><path d="M27.796 24.925l-3.882-14.908a.718.718 0 0 0-.132-.272L16.621.308a.78.78 0 0 0-1.239-.002L8.135 9.741a.789.789 0 0 0-.136.281L4.203 24.929a.772.772 0 0 0 .377.868l11.043 6.106a.787.787 0 0 0 .756 0l11.043-6.106a.774.774 0 0 0 .374-.872zm-2.763-4.435l-2.96-4.675.986-2.897 1.974 7.572zM16.778 3.088l5.513 7.264-1.287 3.774-4.226-6.676V3.088zM16 9.128l4.36 6.888-2.838 8.328H14.45L11.6 16.08 16 9.128zm-.778-6.062V7.45l-4.271 6.747-1.326-3.844 5.597-7.287zm-6.356 9.859l1.02 2.956-2.964 4.683 1.944-7.639zm1.668 4.838l2.27 6.581H6.368l4.166-6.581zm-2.571 8.133h5.375l1.267 3.672-6.642-3.672zm8.033 2.929l-1.011-2.93h2.009l-.998 2.93zm1.39.746l1.254-3.678h5.396l-6.65 3.678zm1.781-5.227l2.264-6.639 4.201 6.639h-6.465z"/></svg>