<svg xmlns="http://www.w3.org/2000/svg" width="32" height="32" viewBox="0 0 32 32"><path d="M11.864.553c-.678.203-.678.203-1.017.339-.61.203-.61.203-1.017.406-.542.203-.542.203-.813.339-.475.271-.475.271-.746.406-.475.272-.475.272-.678.407-.474.271-.474.271-.678.475-.542.339-.61.339-.813.542-.543.407-.543.407-.814.678C6.44 3.061 8.203 1.976 10.034 1.23a6.688 6.688 0 0 1 1.83-.677M2.847 6.924c-.135.136-.271.407-.406.542.135-.203.271-.406.406-.542m9.831 21.081c-.339.476-.678.949-.813 1.354.203-.405.474-.88.813-1.354m-12-8.067c-.068.34 0 .61.068.881-.068-.27-.136-.542-.068-.881m3.39 6.779c-.271-.339-.61-.678-.814-1.017.271.339.678.813.95 1.151 0-.067-.068-.134-.136-.134m7.796 4.405c-.204-.271-.271-.541-.204-.947-.067.339.001.679.204.947M.135 14.109c0-.136.068-.271.068-.407l.204-1.22v.135l-.136.543-.136.949"/><path d="M2.847 6.924c.204-.271.339-.542.61-.814l-.203.272c-.271.271-.542.745-.746 1.084.068-.203.204-.406.339-.542M22.236 9.364h-.203c0-.068.068-.136.068-.136h.066c.04.035.063.084.069.136M4.407 5.094c.203-.339.542-.61.881-.949.543-.475.543-.475.814-.678.474-.407.474-.407.746-.542.474-.339.474-.339.677-.475.475-.271.475-.271.678-.407.475-.271.475-.271.746-.407.543-.271.543-.271.814-.339.542-.203.61-.271 1.017-.406.678-.204.678-.204 1.017-.339 2.034-.542 3.322-.271 3.051.881-.068.407-.339.813-.747 1.22-.339.135-1.084 0-1.22-.136.339-.407.542-.746.61-1.017.271-1.152-1.423-1.22-3.864-.204-1.898.813-3.661 2.034-4.475 3.05-.271.274-.542.477-.745.748m0 0c-.271.271-.407.474-.475.745.068-.271.204-.474.475-.745"/><path d="M14.848.078c.407 0 .949-.067 1.355-.067 1.423 0 2.102.542 1.83 1.626-.34 1.288-2.169 3.118-4.542 4.745-.475.204-.949-.407-.813-.678 0-.068.068-.068.068-.068 2.102-1.423 3.661-2.982 4-4.135.271-1.084-.61-1.559-2.169-1.424l.271.001M2.508 7.466c-.067.136-.203.407-.339.543.068-.204.204-.407.339-.543M22.982 1.637c.813.407 1.152 1.084.881 2.102-.813 3.05-6.779 7.727-13.287 10.506-1.22.542-2.44.949-3.525 1.288-.611.067-.678-.746-.407-1.153.068-.136.136-.136.204-.204 1.017-.271 2.101-.678 3.254-1.152 6.169-2.644 11.796-7.118 12.542-9.964.271-1.017-.137-1.695-1.018-2.034.407.204.95.408 1.356.611m7.052 6.711l.202.339c.203.542.203.542.203.813v.068c-.203-.068-.609-.881-.678-1.22 0-.407-.068-.678-.271-.949l.544.949m1.423 3.592c.068.339.068.746-.066 1.22-.813 2.982-5.898 7.389-12.067 10.574-.679.271-1.087-.203-.95-.678a.699.699 0 0 1 .34-.408c6.237-3.252 11.458-7.727 12.271-10.776.135-.542.135-1.017 0-1.423.203.542.406 1.084.472 1.491m.475 2.847v.542c0 .271 0 .475-.066.813-.475 1.831-2.713 4.202-5.764 6.506-.475.341-.746-.135-.678-.475.067-.271.271-.475.34-.541 3.186-2.373 5.49-4.813 5.965-6.711.067-.339.137-.678.067-1.017l.136.883M3.864 6.856c-.068-.204-.136-.339-.068-.61-.067.271 0 .407.068.61m6.983-2.033c.068.068.136.271 0 .407-.678.406-1.423.813-2.237 1.084-2.373 1.017-4.271 1.152-4.746.475.272-.339.611-.679.882-1.018.406.542 1.897.407 3.796-.406.61-.271 1.221-.542 1.763-.881.203-.068.474.271.542.339M2.169 9.432c-.135-.203-.203-.474-.203-.813 0 .339 0 .542.203.813m5.492-.678c0 .339-.067.813-2.983 1.22-.813.135-1.966.067-2.508-.542.203-.407.406-.745.677-1.152.543.678 2.238.678 4.543-.068.271-.068.271.542.271.542M1.017 12.279c-.203-.271-.271-.61-.203-1.017-.068.407-.001.746.203 1.017"/><path d="M19.457.417c.271.068.477.136.609.136.883.339 1.222.949.949 1.897-.678 2.576-5.762 6.575-11.322 8.948-4.407 1.83-7.796 2.169-8.678.881l.407-1.22c.813 1.152 3.932.881 7.932-.813 5.084-2.237 9.763-5.897 10.374-8.202.203-.881-.067-1.423-.813-1.694.136-.069.136-.069.542.067M1.22 15.329c-.067.204-.135.475-.271.407-.678-.339-.949-.882-.881-1.694-.068.474.067.88.271 1.152.068-.407.136-.881.203-1.288.136.204.339.339.61.475.204.27.068.948.068.948"/><path d="M.068 17.499v-.476.476M25.221 2.925l.677.475c.543.475.746 1.152.543 2.033-.883 3.389-7.525 8.609-14.78 11.659C4.746 20.073-.271 19.94.068 17.026c-.068.473.067.947.271 1.287-.068-.406-.068-.881-.068-1.287 4.542 4.812 24.95-7.66 25.153-12.947.067-.949-.475-1.288-.744-1.491l.541.337M.746 20.818c-.068-.271-.136-.541-.068-.881-.068.34 0 .612.068.881"/><path d="M28.338 5.771c.407.475.477 1.085.271 1.898-.949 3.592-7.933 9.083-15.66 12.337C5.627 23.192.271 23.057.678 19.938c-.068.543.068 1.019.339 1.355-.136-.406-.271-.813-.339-1.287 1.221 1.693 5.831 1.287 11.729-1.221 7.526-3.186 14.372-8.608 15.321-12.133.203-.881.067-1.491-.406-1.966.338.34.678.747 1.016 1.085"/><path d="M26.576 14.651c.136.407 0 .678-.137.881-2.982 2.71-7.39 5.423-12 7.388-6.847 2.848-11.999 3.05-12.474.61-.068-.203 0-.067.068-.136 0 .067 0 .405.271.813-.068-.135-.136-.203-.204-.338-.067-.068-.067-.135-.135-.203-.136-.203-.204-.475-.339-.678 1.288 1.693 6.034 1.354 12.135-1.289 4.61-1.965 9.017-4.744 12-7.388.544-.269.747.137.815.34M9.424 27.057c.068.135.136.406-.136.475-2.44.406-4.203.203-5.017-.678-.271-.34-.678-.815-.949-1.154.746.948 2.576 1.221 5.22.813.475.001.814.408.882.544m7.457.27c.067.067.067.339-.339.542-4.678 1.829-8.339 2.236-9.83 1.22-.339-.271-.814-.608-1.153-.881 1.424 1.222 5.288.813 10.305-1.151.745-.203 1.017.27 1.017.27"/><path d="M31.932 17.499c-.066.406-.136.881-.136 1.219 0 .068 0 .138-.067.203-.813 2.915-6.576 7.457-12.881 10.168-4.136 1.765-7.458 2.236-9.084 1.627-.407-.202-.949-.405-1.288-.608C14.034 32.412 31.188 23.057 32 17.295l-.068.204"/><path d="M30.779 22.107c-2.373 4.879-13.355 10.304-17.695 9.625a9.423 9.423 0 0 1-1.492-.34c1.56.476 4.475-.067 8-1.559 5.695-2.439 10.916-6.507 11.729-9.15-.133.408-.339 1.017-.542 1.424"/><path d="M27.254 26.986c0 .068-.136.271-.406.477-1.492 1.221-3.524 2.439-5.627 3.321-1.764.746-3.322 1.151-4.476 1.221h-1.694c1.355.065 3.321-.405 5.695-1.356 2.372-1.017 4.678-2.371 6.372-3.795.067 0 .067-.068.136-.068 0 0 0 .068.066.068 0 0 0 .067-.066.132M3.864 6.856c-.068-.204-.136-.339-.068-.61 0-.068 0-.136.068-.203.204-.272.543-.543.882-.814-.068.204-.068.407.067.542-.338.339-.609.679-.949 1.085M2.169 9.432c-.135-.203-.203-.474-.203-.813 0-.068 0-.136.068-.271.203-.339.474-.678.678-1.017-.068.406-.068.678.135.881-.271.475-.474.813-.678 1.22m-1.152 2.847c-.203-.271-.271-.61-.203-1.017 0-.136 0-.203.067-.339.136-.407.271-.746.475-1.152-.136.475-.068.881.136 1.22-.204.474-.408.881-.475 1.288m-.61 2.982c-.204-.339-.339-.678-.271-1.152l.136-.881.136-.542c-.136.542-.068 1.017.203 1.288-.136.406-.204.88-.204 1.287m-.068 3.052c-.204-.203-.271-.476-.271-.813 0-.408-.068-1.019-.068-1.425 0 .406.135.677.271.948 0 .409.068.882.068 1.29m.678 2.981c-.136-.135-.203-.271-.271-.476-.136-.405-.271-1.016-.407-1.422.068.203.136.406.271.609.136.475.271.884.407 1.289"/><path d="M3.796 6.11c0-.067.068-.203.068-.271.136-.271.272-.474.475-.745.271-.203.542-.474.813-.678a2.27 2.27 0 0 0-.406.813c-.339.271-.678.542-.95.881M2.034 8.415c0-.135.067-.271.135-.406.068-.204.204-.339.339-.543.204-.339.475-.813.746-1.084l.204-.272c-.327.379-.58.816-.746 1.288-.204.339-.475.678-.678 1.017M.813 10.991c0-.068.067-.204.067-.271.136-.407.407-1.017.543-1.424 0 .203-.068.339-.136.542-.203.34-.338.746-.474 1.153"/></svg>