<svg xmlns="http://www.w3.org/2000/svg" width="32" height="32" viewBox="0 0 32 32"><path d="M16 0C7.165 0 0 7.164 0 16c0 8.837 7.164 16 16 16h16V16c0-8.836-7.164-16-16-16zm11.934 27.925h-2.951V23.68a11.863 11.863 0 0 1-9.03 4.17c-6.554 0-11.887-5.332-11.887-11.888 0-6.555 5.333-11.887 11.887-11.887 5.887 0 10.786 4.302 11.725 9.926h-3.006c-.896-3.988-4.465-6.976-8.719-6.976-4.928 0-8.937 4.009-8.937 8.937 0 4.929 4.009 8.938 8.937 8.938a8.938 8.938 0 0 0 7.731-4.463h-6.188v-2.949h10.438v10.437z"/></svg>