<svg xmlns="http://www.w3.org/2000/svg" width="32" height="32" viewBox="0 0 32 32"><path d="M27.557 5.307l-.813-.815c-2.509-1.049-5.015-2.101-7.522-3.148L17.154.478 16.578.24 16 0l-.579.24-.573.237-2.068.867c-2.508 1.048-5.015 2.099-7.522 3.148l-.815.816L0 16l4.443 10.691.815.815C8.838 29.006 12.415 30.514 16 32c3.585-1.486 7.162-2.994 10.742-4.492l.814-.814L32 16 27.557 5.307zm-4.859 17.391L16 25.473 9.302 22.7 6.527 16l2.774-6.698L16 6.527l6.698 2.774L25.473 16l-2.775 6.698z"/><path d="M16 9.302l-4.736 1.962L9.302 16l1.962 4.736L16 22.698l4.736-1.962L22.698 16l-1.962-4.736L16 9.302z"/></svg>