<svg xmlns="http://www.w3.org/2000/svg" width="32" height="32" viewBox="0 0 32 32"><path d="M20.271 6.659c.799-.356 1.037-1.529.449-2.17a40.9 40.9 0 0 0-3.24-3.074C16.843.779 16.108-.172 15.077.277c-.976.376-1.139 1.789-.342 2.439 1.284 1.131 2.467 2.374 3.703 3.559.47.466 1.22.719 1.833.384zM3.986 3.79c-.65.456-.82 1.534-.25 2.122C4.743 6.943 5.76 7.967 6.872 8.887c.634.513 1.136 1.45 2.083 1.304 1.131-.005 1.697-1.592.886-2.342-1.226-1.204-2.476-2.387-3.688-3.61-.538-.598-1.439-.889-2.167-.449z"/><circle cx="8.181" cy="1.498" r="1.388"/><circle cx="19.779" cy="26.815" r="1.388"/><circle cx="12.226" cy="5.189" r="1.388"/><path d="M29.686 14.425c-1.076.932-1.961 2.081-3.011 3.054-.634.687-1.639 1.351-1.462 2.422.137 1.035 1.553 1.539 2.309.822 1.037-.988 2.043-2.016 2.957-3.117.521-.639 1.465-1.141 1.34-2.092-.027-1.014-1.296-1.638-2.133-1.089z"/><circle cx="30.604" cy="23.43" r="1.388"/><path d="M14.398 30.486c.636.514 1.129 1.453 2.076 1.342 1.172-.012 1.735-1.617.903-2.408-1.265-1.16-2.484-2.369-3.702-3.578-.483-.512-1.272-.857-1.945-.492-.806.353-1.049 1.539-.452 2.178.991 1.035 2.015 2.042 3.12 2.958zM26.332 3.559c-1.534 1.294-2.771 2.894-4.175 4.321-.624.629-.401 1.872.427 2.214.573.265 1.287.133 1.691-.357 1.111-1.16 2.225-2.32 3.367-3.449.521-.493.998-1.226.701-1.966-.193-.834-1.312-1.139-2.011-.763z"/><circle cx="26.816" cy="12.221" r="1.388"/><path d="M8.873 25.139c.517-.639 1.461-1.146 1.311-2.104-.02-.99-1.257-1.57-2.073-1.082-1.207 1.053-2.226 2.309-3.398 3.406-.604.586-1.398 1.342-1.076 2.276.189.968 1.612 1.294 2.28.618 1.026-.998 2.043-2.011 2.956-3.114zm-7.441-7.362c.966.117 1.507-.801 2.088-1.398.983-1.11 2.156-2.054 3.056-3.229.762-1.061-.43-2.6-1.651-2.129-1.704 1.155-2.884 2.954-4.37 4.377-.822.763-.254 2.336.877 2.379z"/><circle cx="8.573" cy="30.611" r="1.388"/><circle cx="1.39" cy="8.581" r="1.388"/><circle cx="23.773" cy="30.611" r="1.388"/><circle cx="1.39" cy="23.774" r="1.388"/><circle cx="23.422" cy="1.388" r="1.388"/><circle cx="5.188" cy="19.74" r="1.388"/><path d="M28.434 27.709c.271-.5.234-1.197-.177-1.611-1.327-1.434-2.83-2.681-4.243-4.022-.381-.325-.953-.313-1.404-.158-.938.353-1.123 1.763-.338 2.372 1.297 1.212 2.535 2.488 3.822 3.704.638.635 1.955.613 2.34-.285z"/><circle cx="30.609" cy="8.232" r="1.388"/></svg>