<svg xmlns="http://www.w3.org/2000/svg" width="32" height="32" viewBox="0 0 32 32"><path d="M22.377 7.563S21.074-1.658 31.965.264c0 0 1.144 10.937-9.588 7.299z"/><path d="M27.777 11.156H22c-1.02-.124-2.619-.683-2.619-2.975v-5.4c0-.809-.656-1.464-1.465-1.464h-6.59c-.809 0-1.464.656-1.464 1.464v5.4c0 2.292-1.599 2.851-2.619 2.975H1.464C.656 11.156 0 11.812 0 12.62v6.612c0 .809.656 1.463 1.464 1.463h5.778c1.02.125 2.619.684 2.619 2.977v5.398c0 .809.656 1.465 1.464 1.465h6.59c.81 0 1.465-.656 1.465-1.465v-5.398c0-2.293 1.601-2.852 2.619-2.977h5.776c.81 0 1.466-.654 1.466-1.463V12.62a1.463 1.463 0 0 0-1.462-1.464h-.002z"/></svg>