<svg xmlns="http://www.w3.org/2000/svg" width="32" height="32" viewBox="0 0 32 32"><path d="M23.576 8.057c1.045 1.044 1.891 2.187 2.498 3.076h.169C29.418 11.132 32 8.706 32 5.7S29.432.268 26.243.268c-3.104 0-5.644 2.328-5.742 5.234.833.593 1.976 1.454 3.075 2.555zM9.834 30.771c1.044.396 2.131.678 3.259.834l-1.241-2.611-2.018 1.777zm7.605-21.642l-.848-7.817c-.45-.04-.902-.059-1.354-.056-5.319 0-9.99 2.723-12.727 6.843l2.398 4.995 12.531-3.965zm-5.39 18.878l6.801-6.011L17.51 9.75 5.178 13.658l6.871 14.349z"/><path d="M29.884 12.219c-.099-.311-.198-.635-.311-.945a6.843 6.843 0 0 1-1.481.606c.127.254.227.452.282.593a.404.404 0 0 1-.155.508l-1.016.706a.368.368 0 0 1-.24.071c-.027 0-.057 0-.1-.014a.5.5 0 0 1-.281-.198c-.479-.847-1.82-3.005-3.697-4.882a24.756 24.756 0 0 0-4.642-3.612.412.412 0 0 1-.183-.508l.381-1.03a.47.47 0 0 1 .238-.254.474.474 0 0 1 .34 0c.196.084.465.211.805.409a6.24 6.24 0 0 1 .746-1.453 15.648 15.648 0 0 0-3.357-.833L19.4 21.502l10.484-9.283zM12.317 28.57l1.496 3.119c.48.043.959.069 1.439.069 1.596 0 3.133-.239 4.586-.704l-.902-8.34-6.619 5.856zm7.154-6.334l.932 8.621c5.884-2.117 10.089-7.746 10.089-14.351 0-1.256-.155-2.483-.438-3.64l-10.583 9.37zM2.145 8.706a15.255 15.255 0 0 0-2.032 5.926l4.219-1.34-2.187-4.586zM4.6 13.841L.057 15.28c-.029.409-.057.819-.057 1.228 0 6.279 3.795 11.668 9.213 14.012l2.356-2.09L4.6 13.841z"/></svg>