<svg xmlns="http://www.w3.org/2000/svg" width="32" height="32" viewBox="0 0 32 32"><circle cx="10.421" cy="2.524" r="2.525"/><circle cx="21.62" cy="29.462" r="2.524"/><path d="M10.153 13.637c.48 0 .973-.155 1.382-.465l11.678-8.885c1-.761 1.197-2.2.438-3.215a2.307 2.307 0 0 0-3.217-.438L8.757 9.52c-.987.775-1.185 2.214-.423 3.215.433.567 1.105.9 1.819.902zm0 9.097c.48 0 .973-.156 1.382-.465l11.678-8.887c1-.761 1.197-2.2.438-3.215a2.31 2.31 0 0 0-3.217-.437L8.757 18.617a2.305 2.305 0 0 0-.437 3.215 2.348 2.348 0 0 0 1.833.902zm13.497-3.3a2.308 2.308 0 0 0-3.217-.436L8.757 27.883a2.305 2.305 0 0 0-.437 3.215 2.28 2.28 0 0 0 1.819.902c.48 0 .973-.154 1.382-.465l11.677-8.885c1.031-.777 1.229-2.214.452-3.216z"/></svg>