<svg xmlns="http://www.w3.org/2000/svg" width="32" height="32" viewBox="0 0 32 32"><path d="M26.598 10.727a11.522 11.522 0 0 0-11.019-.658 5.277 5.277 0 0 1-5.695-.883l-.214-.204-4.207-4.208a2.406 2.406 0 0 1-.598-1.877 2.373 2.373 0 0 0 0-.446A2.433 2.433 0 1 0 0 2.324v.092a2.434 2.434 0 0 0 2.889 2.41 2.413 2.413 0 0 1 1.885.588L9.01 9.652l.163.182a5.301 5.301 0 0 1 .882 5.709 11.51 11.51 0 0 0 2.261 13.041 11.79 11.79 0 0 0 7.206 3.389c.68.062 10.36 0 10.36 0a2.122 2.122 0 0 0 1.438-.629c.4-.398.644-.929.679-1.492v-9.379a11.945 11.945 0 0 0-.11-1.24 11.029 11.029 0 0 0-3.314-6.944 11.541 11.541 0 0 0-2.027-1.603l.05.041zm.152 7.544c.156.666.25 1.346.283 2.027v4.665a2.028 2.028 0 0 1-2.08 2.078h-4.531a9.16 9.16 0 0 1-2.129-.283 6.743 6.743 0 0 1-2.98-1.754 6.85 6.85 0 0 1 .146-9.68 6.84 6.84 0 0 1 9.533.005 6.098 6.098 0 0 1 1.766 2.98l-.008-.038z"/></svg>