<svg xmlns="http://www.w3.org/2000/svg" width="32" height="32" viewBox="0 0 32 32"><path d="M16 0C7.173.026 0 7.189 0 16s7.173 15.975 16 16c8.826-.016 16-7.189 16-16S24.827.026 16 0zm6.705 22.926c.3.705.84 1.277 1.52 1.629a1.28 1.28 0 0 0-.248-.024c-.608 0-1.139.352-1.395.862.127-.52.193-1.053.195-1.588 0-.297-.029-.598-.072-.879zm-.247-1.272c0 .037.008.072 0 .127a6.756 6.756 0 0 0-2.332-3.322 6.808 6.808 0 0 0 2.544.494c.528 0 1.034-.063 1.527-.178a3.255 3.255 0 0 0-1.739 2.879zm1.211 0c0-1.125.916-2.051 2.058-2.051a2.06 2.06 0 0 1 2.068 2.051 2.066 2.066 0 0 1-2.068 2.055 2.06 2.06 0 0 1-2.058-2.055zm3.727-2.799a3.235 3.235 0 0 0-1.67-.459c-.15 0-.291.018-.434.035a6.954 6.954 0 0 0 1.996-1.296 1.598 1.598 0 0 0 .108 1.72zm-4.716-1.119c-3.074 0-5.564-2.494-5.564-5.551 0-3.067 2.498-5.551 5.564-5.551 3.072 0 5.565 2.493 5.565 5.551 0 3.057-2.501 5.551-5.565 5.551zm-4.137-.203A6.76 6.76 0 0 0 16 17.039c-.902 0-1.759.188-2.545.494A6.744 6.744 0 0 0 16 13.286a6.717 6.717 0 0 0 2.543 4.247zm-4.284-9.974c.521.33 1.125.504 1.741.503.645 0 1.236-.185 1.741-.503A6.776 6.776 0 0 0 16 11.066a6.687 6.687 0 0 0-1.741-3.507zm4.339-.757c.457-.58.705-1.296.705-2.035 0-.036-.008-.071 0-.105a1.621 1.621 0 0 0 1.504 1.021c.024 0 .053-.008.088-.008-.85.229-1.62.616-2.297 1.127zm9.248 1.004a6.78 6.78 0 0 0-5.166-2.388c-.416 0-.832.044-1.229.115.564-.247.962-.811.962-1.472 0-.502-.24-.943-.601-1.242a14.588 14.588 0 0 1 6.034 4.987zm-6.244-3.735a.806.806 0 0 1-1.61 0c0-.441.363-.802.805-.802.439 0 .805.352.805.802zm-.655-1.604a.967.967 0 0 0-.161-.017c-.847 0-1.535.659-1.599 1.488a3.278 3.278 0 0 0-2.188-2.317c1.376.106 2.711.388 3.948.846zm-2.865 2.3a2.086 2.086 0 0 1-4.168 0c0-1.146.937-2.08 2.085-2.08 1.147 0 2.083.934 2.083 2.08zm-3.091-3.146a3.29 3.29 0 0 0-2.19 2.317 1.6 1.6 0 0 0-1.6-1.488.932.932 0 0 0-.159.017c1.271-.462 2.6-.747 3.949-.846zm-1.58 5.18a6.837 6.837 0 0 0-2.297-1.127c.026 0 .053.008.088.008.68 0 1.263-.422 1.501-1.021-.008.035-.008.071-.008.106 0 .766.265 1.47.716 2.034zm-2.21-3.533c.442 0 .804.361.804.802s-.362.802-.804.802a.802.802 0 1 1 0-1.604zm-1.015-.441a1.597 1.597 0 0 0 .362 2.714 6.762 6.762 0 0 0-6.397 2.274 14.483 14.483 0 0 1 6.035-4.988zM9.32 6.634c3.074 0 5.566 2.493 5.566 5.551 0 3.066-2.501 5.551-5.566 5.551-3.075 0-5.567-2.494-5.567-5.551 0-3.058 2.501-5.541 5.567-5.551zM7.793 18.768a6.834 6.834 0 0 0 1.528.174c.901 0 1.757-.174 2.544-.493a6.809 6.809 0 0 0-2.333 3.323c0-.035.009-.08.009-.116a3.268 3.268 0 0 0-1.748-2.888zm-3.094-1.632a6.622 6.622 0 0 0 1.997 1.296 2.73 2.73 0 0 0-.433-.035c-.61 0-1.184.168-1.67.459a1.54 1.54 0 0 0 .106-1.72zm1.564 2.468c1.131 0 2.059.918 2.059 2.052a2.057 2.057 0 1 1-4.117 0c0-1.135.927-2.06 2.058-2.052zm3.013 3.312c-.039.295-.06.592-.062.889 0 .547.07 1.076.194 1.588a1.566 1.566 0 0 0-1.396-.862c-.088 0-.168.016-.247.024a3.257 3.257 0 0 0 1.511-1.639zM1.581 16c0-2.167.477-4.229 1.343-6.071a6.851 6.851 0 0 0-.389 2.256c0 1.657.601 3.172 1.59 4.344a1.603 1.603 0 0 0-.83-.238 1.61 1.61 0 0 0-1.6 1.473A14.647 14.647 0 0 1 1.581 16zm2.518 1.912a.808.808 0 0 1-.804.801c-.442 0-.804-.361-.804-.801s.362-.801.804-.801c.441 0 .804.35.804.801zm-1.017 4.477a14.312 14.312 0 0 1-1.272-3.843 1.622 1.622 0 0 0 2.103.856 3.222 3.222 0 0 0-.919 2.253c0 .257.036.493.088.734zm3.357 3.709c0 .377.141.713.363.986a14.54 14.54 0 0 1-2.757-3.039 3.263 3.263 0 0 0 3.084.756c-.415.283-.69.76-.69 1.297zm1.573-.758c.416 0 .76.344.76.758s-.344.756-.76.756a.758.758 0 0 1 0-1.514zm-.67 2.166c.202.098.432.158.679.158.865 0 1.573-.703 1.573-1.566 0-.053-.018-.098-.018-.143a6.8 6.8 0 0 0 4.47 4.328 14.396 14.396 0 0 1-6.704-2.777zm3.1-3.701A5.557 5.557 0 0 1 16 18.256c3.066.008 5.559 2.494 5.559 5.549 0 3.06-2.492 5.543-5.559 5.553-3.067-.01-5.558-2.485-5.558-5.553zm7.518 6.478a6.804 6.804 0 0 0 4.472-4.328.862.862 0 0 0-.019.143 1.572 1.572 0 0 0 2.254 1.408 14.503 14.503 0 0 1-6.707 2.777zm6.024-3.429c-.414 0-.758-.342-.758-.756s.344-.758.758-.758c.416 0 .76.344.76.758s-.344.756-.76.756zm1.209.23c.223-.273.365-.609.365-.986 0-.537-.274-1.014-.689-1.297.273.072.566.117.865.117.857 0 1.636-.336 2.22-.873a14.48 14.48 0 0 1-2.761 3.039zm2.705-9.182a.804.804 0 0 1 1.608 0 .805.805 0 0 1-1.608 0zm1.02 4.487a3.41 3.41 0 0 0 .089-.733c0-.868-.354-1.663-.919-2.253a1.619 1.619 0 0 0 2.1-.855 14.752 14.752 0 0 1-1.27 3.841zm-.223-6.089a1.617 1.617 0 0 0-.832.238 6.716 6.716 0 0 0 1.203-6.6 14.091 14.091 0 0 1 1.342 6.071c0 .599-.045 1.181-.114 1.763a1.605 1.605 0 0 0-1.599-1.472z"/></svg>