<svg xmlns="http://www.w3.org/2000/svg" width="32" height="32" viewBox="0 0 32 32"><path d="M31.372 16.003c-.455-.272-1.067-.251-1.641.056-.095.051-13.155 7.323-13.666 7.634-.094.057-.141.086-.338-.022-.214-.116-13.309-7.432-13.592-7.587-.125-.069-.289-.191-.289-.461V13.44l13.062 7.326c.308.172.655.264 1.005.264.36 0 .726-.098 1.057-.281l14.217-7.884c.505-.28.814-.784.812-1.315-.004-.5-.283-.946-.749-1.194-.27-.144-7.66-4.244-14.485-8.034a1.75 1.75 0 0 0-.856-.23c-.27 0-.535.069-.771.201-4.814 2.7-9.632 5.396-14.444 8.1-.434.244-.693.69-.693 1.195v4.036c0 .886.455 1.645 1.248 2.081.277.151 13.375 7.47 13.598 7.591.936.51 1.703.27 2.183-.021.306-.183 10.734-6.01 13.124-7.332v2.024c0 .025 0 .101-.355.325-.464.286-13.008 7.34-13.601 7.662-.254.138-.284.12-.39.061-.451-.26-14.154-7.957-14.737-8.285l-.905 1.612c.144.08 14.278 8.021 14.723 8.275.373.215.723.293 1.037.293.465 0 .855-.17 1.152-.331.104-.057 13.188-7.396 13.704-7.723.334-.211 1.222-.771 1.222-1.89v-2.792c-.006-.507-.234-.932-.632-1.171zM15.923 3.968c2.908 1.614 11.237 6.237 13.743 7.624L16.073 19.13c-.099.056-.182.065-.261.021L2.331 11.59l13.592-7.622z"/></svg>