<svg xmlns="http://www.w3.org/2000/svg" width="32" height="32" viewBox="0 0 32 32"><circle cx="6.412" cy="12.212" r="1.391"/><path d="M32 15.884c0-1.043-1.275-6.339-7.422-6.339s-12.369 6.957-12.369 6.957L9.04 13.217s.31 1.082 2.513 3.479c0 0-3.788 4.213-6.996 4.213 0 0-3.518-.076-3.518-3.633 0-3.033 2.02-4.235 2.615-4.524-4.633 2.06-3.542 5.606-3.542 5.606s.657 3.711 4.677 3.711 7.846-4.213 7.846-4.213 1.701 4.6 10.668 4.6S32 16.927 32 15.884zm-8.775 5.257c-7.419 0-9.854-3.98-9.854-3.98s5.601-6.339 10.978-6.339c5.379 0 6.146 5.18 6.146 5.18s.151 5.139-7.27 5.139z"/></svg>