<svg xmlns="http://www.w3.org/2000/svg" width="32" height="32" viewBox="0 0 32 32"><path d="M18.176 14.576s8.646 7.16-5.563 8.922c0 0-8.207.055-12.613-4.461 0 0 3.47 6.279 15.862 5.453 0 0 7.105-1.213 7.656-6.059.002.001-.22-4.241-5.342-3.855z"/><path d="M13.549 16.559s.386 1.707-2.313 1.103c-2.699-.604-6.995-4.406-.826-8.647 0 0-4.351 1.267-4.461 4.847-.11 3.581 5.894 4.958 6.499 4.958.605-.004 2.643-.17 1.101-2.261zm3.525-3.03s-1.708-.771.494-1.818c2.203-1.046 9.805.826 9.971 6.279 0 0 .551 2.589-4.021 4.572 0 0 3.414-2.754 2.698-4.849-.716-2.093-2.532-4.461-6.334-5.232-3.799-.77-2.808 1.048-2.808 1.048z"/><path d="M12.778 15.402s-4.682-5.232 4.13-6.83C25.721 6.975 32 10.831 32 10.831s-6.279-5.838-19.332-2.203c0 0-3.746 1.873-3.58 3.965.165 2.093 2.037 2.919 3.69 2.809z"/></svg>