<svg xmlns="http://www.w3.org/2000/svg" width="32" height="32" viewBox="0 0 32 32"><path d="M26.273 8.837L18.45 1.013a3.486 3.486 0 0 0-4.916 0L5.727 8.821a1.161 1.161 0 0 0 0 1.637l2.369 2.368 1.577 1.459a1.21 1.21 0 0 0 1.65 0l3.152-2.917a2.252 2.252 0 0 1 3.064 0l3.153 2.917a1.209 1.209 0 0 0 1.649 0l1.576-1.458 2.354-2.353c.453-.45.453-1.186.002-1.637z"/><path d="M1.285 18.727l12.261 12.26a3.484 3.484 0 0 0 4.914 0l12.262-12.262c2.126-2.125.628-2.755-.932-4.231l-1.924-1.822a1.204 1.204 0 0 0-1.65 0l-3.152 2.917c-.864.802-2.2.802-3.064 0l-3.152-2.917a1.21 1.21 0 0 0-1.65 0l-3.152 2.917a2.253 2.253 0 0 1-3.065 0l-3.153-2.917a1.21 1.21 0 0 0-1.65 0l-1.767 1.634c-1.635 1.507-3.347 2.199-1.126 4.421z"/></svg>