<svg xmlns="http://www.w3.org/2000/svg" width="32" height="32" viewBox="0 0 32 32"><path d="M30.479 7.141C30.17-.485 28.918.017 28.918.017s-7.337-.578-12.883 5.026l-4.102 7.048S6.098 10.82 1.534 17.406c0 0-.173.303.448.246 0 0 2.715-1.417 6.499.647 0 0-1.329 1.415.058 2.585l.592.42s-2.889 3.234-2.686 6.586c.202 3.352 2.657 3.234 2.657 3.234s4.391-.348 6.615-5.084l1.156.578s.838.201 1.242-.061l.751-.664.173-.113s2.427 1.416 2.859 6.15c0 0 .146.186.271-.065 0 0 4.573-6.354 1.377-11.243 0 .003 7.24-5.855 6.933-13.481zm-8.936 5.855a3.158 3.158 0 0 1-.001-6.316h.001a3.157 3.157 0 0 1 0 6.316z"/></svg>