<svg xmlns="http://www.w3.org/2000/svg" width="32" height="32" viewBox="0 0 32 32"><path d="M11.923 6.879l2.835 2.57v.002c3.373-2.945 7.692-5.718 9.762-6.989A15.919 15.919 0 0 0 16 0C11.157 0 6.821 2.154 3.887 5.553l3.744 5.056c.879-1 3.227-3.566 4.292-3.73zm14.454-3.053l-4.572 3.657c.811.805 3.344 3.381 3.215 3.981-.149.698 1.209-.113-2.258 2.997 2.612 3.35 5.616 7.372 7.15 9.438A15.913 15.913 0 0 0 32 16c0-4.876-2.184-9.239-5.623-12.174zM24.968 21.35l-.008-.047c-.812.979-2.64 3.062-3.915 3.563 0 0-.357.61-1.121-.255 0 0-1.201-1.244-2.119-2.09-2.746 2.228-8.132 6.1-9.833 7.315A15.898 15.898 0 0 0 16 32c4.986 0 9.439-2.281 12.373-5.857-1.312-1.757-3.405-4.793-3.405-4.793zm-17.885-.815l2.792-3.107C8.439 16.07 3.586 9.564 2.269 7.787A15.916 15.916 0 0 0 0 16c0 5.029 2.322 9.514 5.951 12.447l4.79-3.784c-2.18-1.833-3.658-4.128-3.658-4.128z"/></svg>