<svg xmlns="http://www.w3.org/2000/svg" width="16" height="16" viewBox="0 0 16 16"><path d="M0 3.601C0 1.302 1.273 0 2.983 0c1.72 0 2.984 1.302 2.984 3.601 0 2.296-1.264 3.6-2.984 3.6C1.273 7.2 0 5.897 0 3.601zm4.346 0c0-1.582-.557-2.238-1.363-2.238-.795 0-1.352.656-1.352 2.238 0 1.581.557 2.236 1.352 2.236.806 0 1.363-.655 1.363-2.236zM10.034 12.4c0-2.298 1.272-3.601 2.981-3.601C14.736 8.8 16 10.103 16 12.4c0 2.297-1.264 3.6-2.984 3.6-1.709 0-2.982-1.303-2.982-3.6zm4.345 0c0-1.581-.557-2.238-1.363-2.238-.795 0-1.351.657-1.351 2.238 0 1.58.556 2.237 1.351 2.237.806.001 1.363-.657 1.363-2.237zM1.863 15.835a.32.32 0 0 1-.453 0L.165 14.59a.32.32 0 0 1 0-.452L14.138.165a.32.32 0 0 1 .452 0l1.245 1.245a.32.32 0 0 1 0 .452L1.863 15.835z"/></svg>