<svg xmlns="http://www.w3.org/2000/svg" width="16" height="16" viewBox="0 0 16 16"><path d="M5.8 1.079L4.922.201 4.72 0l-.202.201-2.235 2.235-.801-.8-.202-.202-.202.202-.877.878L0 2.715l.201.203 1.88 1.879.202.201.202-.201L5.8 1.483 6 1.28zM5.8 6.079l-.878-.877L4.72 5l-.202.202-2.235 2.234-.801-.8-.202-.202-.202.202-.877.878L0 7.715l.201.203 1.88 1.877.202.203.202-.203L5.8 6.483 6 6.28zM5.8 11.076l-.878-.876-.202-.199-.202.199-2.235 2.236-.801-.799-.202-.2-.202.2-.876.878-.202.2.202.202 1.879 1.878.202.202.202-.202L5.8 11.481l.2-.202zM16 3.7a.3.3 0 0 1-.301.3H7.3a.3.3 0 0 1-.3-.3V2.3a.3.3 0 0 1 .3-.3h8.399a.3.3 0 0 1 .301.3v1.4zM16 8.7c0 .165-.135.3-.301.3H7.3a.3.3 0 0 1-.3-.3V7.3a.3.3 0 0 1 .3-.3h8.399a.3.3 0 0 1 .301.3v1.4zM16 13.7c0 .165-.135.3-.301.3H7.3a.3.3 0 0 1-.3-.3v-1.4a.3.3 0 0 1 .3-.3h8.399c.166 0 .301.135.301.3v1.4z"/></svg>