<svg xmlns="http://www.w3.org/2000/svg" width="16" height="16" viewBox="0 0 16 16"><path d="M13.956 8.994a6.033 6.033 0 0 0 .001-1.981l1.741-1.242a.246.246 0 0 0 .088-.335l-.836-1.429-.051-.088-.836-1.429a.245.245 0 0 0-.335-.088l-1.931.905a6.037 6.037 0 0 0-1.673-.959L9.934.245A.246.246 0 0 0 9.688 0H6.276a.245.245 0 0 0-.245.245l-.193 2.117a6.007 6.007 0 0 0-1.635.945l-1.931-.905a.244.244 0 0 0-.335.088l-.835 1.428-.052.089-.836 1.429a.246.246 0 0 0 .088.335l1.741 1.242a6.033 6.033 0 0 0 .002 1.981L.302 10.167a.246.246 0 0 0-.088.336l.872 1.49.052.088.871 1.491a.246.246 0 0 0 .335.088l1.884-.946a6.039 6.039 0 0 0 1.596.919l.135 2.122c0 .136.11.245.246.245H9.76a.244.244 0 0 0 .245-.245l.135-2.107a6.045 6.045 0 0 0 1.633-.934l1.884.946a.246.246 0 0 0 .335-.088l.872-1.491.051-.088.872-1.49a.247.247 0 0 0-.088-.336l-1.743-1.173zM8 11a3 3 0 1 1 0-6 3 3 0 0 1 0 6z"/></svg>