<svg xmlns="http://www.w3.org/2000/svg" width="16" height="16" viewBox="0 0 16 16"><path opacity=".8" d="M4.326 6.572c.138 0 .271-.017.403-.041a3.712 3.712 0 0 1-.473-1.789c0-.981.388-1.868 1.009-2.536A2.263 2.263 0 0 0 4.328 2a2.288 2.288 0 0 0-.002 4.572zM2.262 9.959l.064-.074a7.75 7.75 0 0 1 3.445-2.15 4.684 4.684 0 0 1-.327-.27c-1.856-.378-3.855.177-5.231 1.67l-.039.047a.767.767 0 0 0 0 .973v.004l.017.017.022.023c.104.112.212.221.325.323.396.364.839.639 1.297.865-.054-.514.1-1.028.427-1.428zm9.48-5.214a3.667 3.667 0 0 1-.475 1.786c.131.023.265.041.4.041a2.285 2.285 0 0 0 2.287-2.283v-.002a2.283 2.283 0 0 0-3.222-2.083 3.7 3.7 0 0 1 1.01 2.541zm4.078 4.433a5.583 5.583 0 0 0-5.305-1.715c-.097.089-.182.189-.285.268a7.682 7.682 0 0 1 3.515 2.238c.346.409.476.924.424 1.424a5.553 5.553 0 0 0 1.615-1.197l.021-.021.019-.017v-.005a.751.751 0 0 0-.004-.975z"/><circle cx="8" cy="4.744" r="2.743"/><path d="M12.544 10.172a6.71 6.71 0 0 0-9.481.393l-.047.055v.001a.917.917 0 0 0 0 1.166v.003l.021.021.026.027a6.711 6.711 0 0 0 9.875-.001l.022-.026.021-.021v-.003a.906.906 0 0 0 0-1.169 5.935 5.935 0 0 0-.437-.446z"/></svg>