<svg width="44" height="44" viewBox="0 0 44 44" fill="none" xmlns="http://www.w3.org/2000/svg">
<mask id="mask0" mask-type="alpha" maskUnits="userSpaceOnUse" x="9" y="3" width="26" height="31">
<path d="M29.3337 31.167C29.3337 32.1795 28.5129 33.0003 27.5003 33.0003H16.5003C15.4878 33.0003 14.667 32.1795 14.667 31.167V26.6184C11.0485 23.9326 9.16699 20.5242 9.16699 16.5003C9.16699 9.34525 14.2143 3.66699 22.0003 3.66699C29.7863 3.66699 34.8337 9.34525 34.8337 16.5003C34.8337 20.5242 32.9522 23.9326 29.3337 26.6184V31.167Z" fill="#979797"/>
</mask>
<g mask="url(#mask0)">
<rect x="5.5" y="-9.9" width="29.7" height="39.6" fill="#F9C623"/>
<path d="M11 20.9L40.7 5.5V40.7H5.5L11 20.9Z" fill="#F57E20"/>
</g>
<path d="M16.5 36.667H27.5V39.3337C27.5 39.8859 27.0523 40.3337 26.5 40.3337H17.5C16.9477 40.3337 16.5 39.8859 16.5 39.3337V36.667Z" fill="#0047CC"/>
</svg>
