<svg width="44" height="44" viewBox="0 0 44 44" fill="none" xmlns="http://www.w3.org/2000/svg">
<mask id="mask0" mask-type="alpha" maskUnits="userSpaceOnUse" x="0" y="0" width="44" height="44">
<path fill-rule="evenodd" clip-rule="evenodd" d="M40.7893 18.6721L43.338 19.1626C43.7226 19.236 43.9996 19.5725 43.9996 19.9628V24.8516C43.9996 25.2533 43.7063 25.5956 43.3087 25.6558L40.6336 26.0673C39.1238 26.2995 37.8576 27.2741 37.2465 28.6747C36.6354 30.0762 36.782 31.6675 37.6392 32.9329L39.0945 35.0824C39.3136 35.4058 39.2721 35.8393 38.9959 36.1155L35.5395 39.5719C35.2559 39.8555 34.8069 39.8922 34.4818 39.6534L32.9467 38.5282C32.1759 37.9627 31.2764 37.6645 30.3426 37.6645C28.4449 37.6645 26.3256 38.9568 25.9459 41.4273L25.6567 43.3087C25.5956 43.7063 25.2541 43.9996 24.8516 43.9996H19.9628C19.5725 43.9996 19.236 43.7218 19.1626 43.3388L18.6721 40.7893C18.2712 38.7042 16.4347 37.1911 14.3056 37.1911C13.371 37.1911 12.4698 37.4901 11.7006 38.054L9.51777 39.6542C9.19266 39.893 8.74451 39.8563 8.46015 39.5728L5.00373 36.1163C4.72751 35.8401 4.68596 35.4058 4.90514 35.0832L6.36039 32.9337C7.21757 31.6683 7.36423 30.077 6.75313 28.6755C6.14283 27.2749 4.87581 26.3004 3.36597 26.0681L0.690957 25.6567C0.293331 25.5956 0 25.2533 0 24.8516V19.9628C0 19.5725 0.277035 19.236 0.659994 19.1635L3.20871 18.6729C4.70959 18.3845 5.93832 17.3627 6.49728 15.9409C7.05542 14.5182 6.84927 12.9334 5.94565 11.7015L4.34537 9.51858C4.10826 9.19347 4.14248 8.74451 4.42685 8.46015L7.88408 5.00373C8.1603 4.72751 8.59378 4.68677 8.91725 4.90514L11.6933 6.78572C12.4331 7.28764 13.2887 7.55245 14.1646 7.55245C16.2921 7.55245 18.1287 6.03935 18.5295 3.95426L19.1626 0.661624C19.236 0.277849 19.5725 0 19.9628 0H24.8516C25.2541 0 25.5964 0.293331 25.6558 0.690142L26.0673 3.36516C26.4038 5.54558 28.251 7.12712 30.4616 7.12712C31.3375 7.12712 32.1914 6.86149 32.9329 6.35957L35.0824 4.90433C35.4058 4.68514 35.8393 4.7267 36.1155 5.00292L39.5719 8.45933C39.8563 8.7437 39.8913 9.19347 39.6534 9.51695L38.0531 11.6998C37.1487 12.9326 36.9426 14.5174 37.5015 15.9393C38.0588 17.3627 39.2884 18.3837 40.7893 18.6721ZM22.408 29.3339C26.227 29.3339 29.3339 26.227 29.3339 22.408C29.3339 18.589 26.227 15.4822 22.408 15.4822C18.589 15.4822 15.4822 18.589 15.4822 22.408C15.4822 26.227 18.589 29.3339 22.408 29.3339Z" fill="#D1D7DD"/>
</mask>
<g mask="url(#mask0)">
<path d="M-15 13.5L50.5 3L53.5 55H10.5L-15 13.5Z" fill="#0047CC"/>
<path d="M-14.0945 6.93502L36.7021 -22.3924L63.4308 -18.5281L7.49047 44.3212L-0.0947268 34.8862L-10.3395 29.3862L-14.0945 6.93502Z" fill="#1BC773"/>
</g>
<path d="M22.4082 17.9268C19.9369 17.9268 17.9268 19.9377 17.9268 22.4082C17.9268 24.8787 19.9369 26.8896 22.4082 26.8896C24.8795 26.8896 26.8896 24.8787 26.8896 22.4082C26.8896 19.9377 24.8795 17.9268 22.4082 17.9268Z" fill="#F9C623"/>
</svg>
