<svg width="39" height="32" viewBox="0 0 39 32" fill="none" xmlns="http://www.w3.org/2000/svg">
<mask id="mask0" mask-type="alpha" maskUnits="userSpaceOnUse" x="0" y="6" width="37" height="26">
<path d="M0 28.4542C0 30.1371 1.3714 31.5014 3.06331 31.5014H35.1604C35.8391 31.5014 36.3894 30.9541 36.3894 30.279V23.1027H31.3773C28.885 23.1027 26.8053 21.134 26.7672 18.6551C26.7285 16.132 28.7806 14.067 31.3085 14.067H36.3894V8.44771C36.3894 7.77251 35.8391 7.22525 35.1604 7.22525H3.06314C1.89411 7.22525 0.823381 6.7987 0 6.09375V28.4542Z" fill="#D1D7DD"/>
</mask>
<g mask="url(#mask0)">
<path d="M-3 7H42.5422L67 35L-3 63V7Z" fill="#ED1C24"/>
<path d="M0 -11H26.6747L41 7.5L0 26V-11Z" fill="#F57E20"/>
</g>
<path fill-rule="evenodd" clip-rule="evenodd" d="M37.861 15.6968H31.2924C29.6916 15.6968 28.3892 16.9923 28.3892 18.5847C28.3892 20.1771 29.6916 21.4726 31.2924 21.4726H37.861C38.2297 21.4726 38.5296 21.1742 38.5296 20.8075V16.3619C38.5296 15.9951 38.2297 15.6968 37.861 15.6968Z" fill="#0047CC"/>
<path fill-rule="evenodd" clip-rule="evenodd" d="M0.000876129 3.12027C0.0403657 4.78371 1.4479 6.09385 3.12055 6.09385H33.0666V1.22245C33.0666 0.547252 32.5163 0 31.8376 0H3.06312C1.34958 0 -0.0399243 1.4068 0.000876129 3.12027Z" fill="#0047CC"/>
</svg>
