<svg xmlns="http://www.w3.org/2000/svg" width="16" height="16" viewBox="0 0 16 16"><path d="M8 3a5 5 0 0 0-5 5 5 5 0 0 0 5 5 5 5 0 0 0 5-5 5 5 0 0 0-5-5zm.704 7.977v.773H7.298V11c-.7-.091-1.345-.325-1.745-.636l.463-1.028c.496.364 1.236.615 1.944.615.808 0 1.138-.27 1.138-.631 0-1.103-3.427-.342-3.427-2.532 0-.811.539-1.504 1.627-1.741V4.25h1.406v.736c.556.065 1.083.23 1.493.489l-.418 1.037c-.55-.313-1.115-.464-1.635-.464-.808 0-1.12.303-1.12.672 0 1.086 3.428.337 3.428 2.499.001.823-.577 1.537-1.748 1.758z"/><path opacity=".8" d="M15.999 13.5l-2.505-2.469a.11.11 0 0 0-.155 0l-.878.865a.103.103 0 0 0 0 .151l.747.736H11v1.431h2.208l-.747.734a.106.106 0 0 0 0 .152l.877.864a.108.108 0 0 0 .154.002l.002-.002 2.505-2.464zM.001 2.501L2.506 4.97a.111.111 0 0 0 .155 0l.878-.865a.104.104 0 0 0 0-.152l-.747-.737H5v-1.43H2.792l.747-.734A.106.106 0 0 0 3.54.901L3.539.899 2.662.033a.109.109 0 0 0-.154-.002l-.002.002L.001 2.501z"/></svg>