<svg xmlns="http://www.w3.org/2000/svg" width="16" height="16" viewBox="0 0 16 16"><path d="M10.861 6.732l-3.875 3.869-1.593-1.59L4 10.407l2.987 2.985 5.267-5.267-1.393-1.393zM13 1.25a.75.75 0 0 1-1.5 0v-.5a.75.75 0 0 1 1.5 0v.5zM4.5 1.25a.75.75 0 0 1-1.5 0v-.5a.75.75 0 0 1 1.5 0v.5z"/><path d="M13.8 1.02v.23c0 .854-.694 1.55-1.55 1.55s-1.55-.696-1.55-1.55V1H5.3v.25c0 .854-.695 1.55-1.55 1.55S2.2 2.104 2.2 1.25v-.23A2.392 2.392 0 0 0 0 3.4v10.2A2.4 2.4 0 0 0 2.399 16H13.6a2.4 2.4 0 0 0 2.399-2.4V3.4A2.392 2.392 0 0 0 13.8 1.02zM14 7v5.324c0 .994-.807 1.801-1.801 1.801H3.8c-.994 0-1.8-.807-1.8-1.801V6h12v1z"/></svg>