<svg xmlns="http://www.w3.org/2000/svg" width="16" height="16" viewBox="0 0 16 16"><path d="M15.68 9h-4.36a.32.32 0 0 0-.32.32v5.36c0 .178.143.32.32.32h4.359c.178 0 .32-.143.32-.32V9.32A.32.32 0 0 0 15.68 9zM7.996 0l-.768 1.566-1.728.255 1.252 1.217-.291 1.721 1.544-.815 1.547.809-.3-1.72 1.248-1.22-1.729-.25zM11.962 8l1.543-.815 1.547.809-.3-1.72L16 5.054l-1.729-.249-.775-1.564-.767 1.566L11 5.063l1.252 1.216zM2.497 3.241l-.77 1.566L0 5.063l1.252 1.216L.961 8l1.544-.815 1.546.809-.299-1.72L5 5.054l-1.727-.249zM10.18 5.759H5.82a.32.32 0 0 0-.32.32V14.68c0 .177.143.32.32.32h4.36c.178 0 .32-.143.32-.32V6.079a.32.32 0 0 0-.32-.32zM4.68 9H.32a.32.32 0 0 0-.32.32v5.36c0 .177.143.32.32.32h4.36a.32.32 0 0 0 .32-.32V9.32A.32.32 0 0 0 4.68 9z"/></svg>