<svg xmlns="http://www.w3.org/2000/svg" width="16" height="16" viewBox="0 0 16 16"><path d="M15.999 8.001l-4.286-4.287a.188.188 0 0 0-.265 0L9.945 5.217a.19.19 0 0 0 0 .265l1.269 1.269H6v2.5h5.214L9.945 10.52a.19.19 0 0 0 0 .265l1.502 1.503a.19.19 0 0 0 .266 0l4.286-4.287z"/><path d="M12.41 13.004c-.119.115-.26.198-.41.256v.24a.5.5 0 0 1-.5.5h-9a.5.5 0 0 1-.5-.5v-11a.5.5 0 0 1 .5-.5h9a.5.5 0 0 1 .5.5v.242c.155.059.299.144.42.265L14 4.587V1a1 1 0 0 0-1-1H1a1 1 0 0 0-1 1v14a1 1 0 0 0 1 1h12a1 1 0 0 0 1-1v-3.586l-1.59 1.59z"/></svg>