<svg xmlns="http://www.w3.org/2000/svg" width="16" height="16" viewBox="0 0 16 16"><path d="M8 2c3.309 0 6 2.691 6 6s-2.691 6-6 6-6-2.691-6-6 2.691-6 6-6m0-2a8 8 0 1 0 0 16A8 8 0 0 0 8 0z"/><path d="M8.952 10.815a.924.924 0 0 0-.436-.237 1.968 1.968 0 0 0-.472-.058h-.106c-.158 0-.318.02-.477.059a.872.872 0 0 0-.657.676 2.287 2.287 0 0 0-.051.51c-.003.17.014.341.05.508.033.16.107.304.236.442a.972.972 0 0 0 .413.225c.145.039.317.061.535.061h.003L8.042 13c.152 0 .308-.021.479-.061a.98.98 0 0 0 .438-.239.88.88 0 0 0 .22-.424c.035-.157.056-.326.056-.507 0-.201-.02-.371-.053-.517a.973.973 0 0 0-.23-.437zM10.779 4.688a2.443 2.443 0 0 0-.546-.875 2.666 2.666 0 0 0-.938-.596c-.668-.257-1.665-.306-2.559-.038-.152.046-.301.1-.445.168a1.255 1.255 0 0 0-.32.204.58.58 0 0 0-.151.307 3.63 3.63 0 0 0-.004.722c.007.083.024.168.048.253.026.095.08.18.157.243a.411.411 0 0 0 .272.083.666.666 0 0 0 .272-.092c.085-.045.175-.086.268-.126.103-.044.225-.084.367-.12.15-.035.302-.053.454-.053h.076c.161 0 .319.027.469.08a.81.81 0 0 1 .507.526c.049.148.071.3.069.456 0 .148-.02.289-.061.422a.78.78 0 0 1-.454.508c-.144.059-.3.087-.457.084h-.105c-.095 0-.192.012-.284.036a.583.583 0 0 0-.304.193.666.666 0 0 0-.145.318c-.022.125-.03.25-.023.376l.056 1.454a.472.472 0 0 0 .116.28c.066.068.15.118.243.143.089.02.183.037.258.038.099.009.22.014.357.012l.072.002c.164 0 .33-.022.504-.068.317-.098.362-.319.366-.408l.04-.979c.229-.045.452-.116.664-.217a2.27 2.27 0 0 0 1.173-1.329c.107-.315.159-.649.159-.995 0-.34-.056-.68-.171-1.012z"/></svg>