<svg xmlns="http://www.w3.org/2000/svg" width="16" height="16" viewBox="0 0 16 16"><path d="M7.356 13.942a1.038 1.038 0 1 1 1.467-1.467c.006.007.008.015.014.021L16 5.333 10.666 0 3.502 7.165c.009.007.019.009.026.017.406.405.408 1.06.001 1.467s-1.061.405-1.466-.001c-.008-.008-.011-.018-.018-.026L0 10.666 5.333 16l2.044-2.044c-.007-.007-.015-.008-.021-.014zM3.825 10.41a1.036 1.036 0 1 1 1.466-1.465 1.037 1.037 0 1 1-1.466 1.465zm1.765 1.766a1.035 1.035 0 0 1-.001-1.468 1.035 1.035 0 0 1 1.467.002 1.036 1.036 0 1 1-1.466 1.466z"/></svg>