<svg xmlns="http://www.w3.org/2000/svg" width="16" height="16" viewBox="0 0 16 16"><path d="M8 0a8 8 0 1 0 0 16A8 8 0 0 0 8 0zm.001 2.289a2.4 2.4 0 1 1-.002 4.798A2.4 2.4 0 0 1 8 2.29zM13 11.211l-.001.008v.027a1 1 0 0 1-.317.691l-.02.017-.003.003c-.134.12-.861.754-1.661 1.072-.934.453-1.966.682-2.998.682s-2.064-.229-2.998-.682c-.8-.318-1.528-.952-1.662-1.072l-.003-.003-.019-.017A.988.988 0 0 1 3 11.246v-.027-.008-.008l.001-.027a.99.99 0 0 1 .318-.691s.006-.007.019-.017l.003-.002c.133-.121.862-.754 1.662-1.073A6.861 6.861 0 0 1 8 8.711c1.033 0 2.064.229 2.998.682.8.319 1.528.952 1.661 1.073a.008.008 0 0 0 .004.002.99.99 0 0 1 .336.708l.001.027v.008z"/></svg>