<svg xmlns="http://www.w3.org/2000/svg" width="16" height="16" viewBox="0 0 16 16"><path d="M8 0C4.268 0 1.104 2.264 0 5.4h1.359s.485-.979.7-1.194h1.334s-.324.968-.311 1.194h1.333s.162-.667.364-1.194H11.219c.202.527.364 1.194.364 1.194h1.333c.014-.227-.31-1.194-.31-1.194h1.334c.215.215.7 1.194.7 1.194H16C14.896 2.264 11.732 0 8 0zM3.892 3.014H3.11c.769-.654 1.321-.905 1.321-.905-.108.089-.539.905-.539.905zM8 3.025H5.36S6.397 1.179 8 1.179c1.603 0 2.64 1.846 2.64 1.846H8zm4.108-.011s-.432-.816-.538-.905c0 0 .552.251 1.319.905h-.781zM16 10.6h-1.359s-.485.981-.699 1.196h-1.336s.323-.969.311-1.196h-1.332s-.163.668-.365 1.196H4.781c-.202-.528-.364-1.196-.364-1.196H3.083c-.013.228.31 1.196.31 1.196H2.06c-.216-.215-.701-1.196-.701-1.196H0C1.104 13.735 4.268 16 8 16s6.896-2.265 8-5.4zM4.431 13.892s-.551-.252-1.32-.906h.781c0-.001.431.818.539.906zm6.209-.918S9.603 14.821 8 14.821c-1.604 0-2.64-1.847-2.64-1.847h5.28zm2.25.011c-.768.654-1.318.906-1.318.906.105-.088.537-.906.537-.906h.781zM4.469 6.4l-.564 1.624-.55-1.624H2.317l-.564 1.609L1.208 6.4H0l1.139 3.2h1.159l.515-1.433.494 1.433h1.161l1.138-3.2z"/><path d="M9.666 6.4l-.563 1.623-.55-1.623H7.514L6.95 8.009 6.407 6.4h-1.21l1.138 3.2h1.16l.514-1.432.495 1.432h1.16l1.139-3.2z"/><path d="M14.863 6.4l-.564 1.623-.526-1.554-.022-.069H12.71l-.562 1.608-.544-1.608h-1.209l1.139 3.2h1.158l.515-1.433.495 1.433h1.158L16 6.4z"/></svg>