<svg xmlns="http://www.w3.org/2000/svg" width="32" height="32" viewBox="0 0 32 32"><path d="M1.448.513s3.824.984 3.824 6.664v17.138c0 6.707-3.824 7.092-3.824 7.092v.57l6.25-.3V.298L1.448 0v.513zm23.88 7.128c.086 4.557-1.755 6.335-1.755 6.335s4.517-1.456 4.431-6.635c-.086-5.18-6.186-6.508-6.186-6.508s3.425 2.25 3.51 6.808zm-.417 8.026s2.703 2.405 2.834 7.528c.132 5.121-2.834 7.648-2.834 7.648s5.704-1.605 5.64-7.707c-.064-6.098-5.64-7.469-5.64-7.469z"/><path d="M23.103 16.78c-1.027-.855-3.938-1.84-3.938-1.84s1.926-.963 2.805-2.354c.877-1.392 1.563-3.938.92-6.613S19.894.621 17.155.237C14.413-.149 13.25.3 9.926.343V31.65s5.043.371 7.762.35c2.719-.021 6.893-1.883 7.662-6.957.77-5.074-1.221-7.406-2.247-8.263zM12.764 2.953c.492-.471 3.041-1.306 5.459.364 2.418 1.669 3.046 6.558 1.048 9.153-1.997 2.598-6.978 1.912-6.978 1.912s-.022-10.959.471-11.429zm9.959 22.234c-1.154 4.467-4.666 4.594-6.506 4.522-1.84-.072-3.61-.043-3.81-5.223-.2-5.18-.114-7.948-.114-7.948s5.479-.215 7.35.599c1.869.815 4.236 3.582 3.08 8.05z"/></svg>