<svg xmlns="http://www.w3.org/2000/svg" width="32" height="32" viewBox="0 0 32 32"><path d="M25.813 15.901c-1.03-.777-2.5-1.087-2.5-1.087s1.244-.721 1.752-1.44c.508-.72.763-1.836.805-2.415s.143-3.008-1.751-4.406c-1.464-1.082-3.142-1.511-5.396-1.651V0h-3.021v4.844h-2.301V0h-3.022v4.844H4.435v3.138h1.746c.478 0 1.324.053 1.684.456.361.402.424.614.424 1.397V22.34c0 .296-.058.664-.312.904s-.507.296-1.115.296H5.056l-.621 3.63h5.944V32h3.022v-4.83h2.302V32h3.021v-4.91c.781-.045 1.51-.104 1.936-.16.861-.113 2.811-.339 4.633-1.609 1.82-1.271 2.23-3.264 2.271-5.269.044-2.004-.719-3.375-1.751-4.151zm-12.412-7.64s.959-.085 1.906-.071c.946.014 1.779.042 3.022.424 1.241.381 1.976 1.313 2.005 2.415.027 1.102-.453 1.835-1.3 2.302-.847.466-2.019.72-3.121.762-1.101.042-2.515 0-2.515 0V8.261h.003zm6.764 14.447c-.691.381-2.076.72-3.417.819-1.343.099-3.347.057-3.347.057v-6.482s1.92-.099 3.416 0c1.498.1 2.754.48 3.318.764.564.281 1.555.904 1.555 2.387 0 1.479-.834 2.073-1.525 2.455z"/></svg>