<svg xmlns="http://www.w3.org/2000/svg" width="32" height="32" viewBox="0 0 32 32"><path d="M15.313 15.999l4.271 4.347a5.938 5.938 0 0 0 4.264 1.795c1.61 0 3.123-.637 4.262-1.795 2.355-2.396 2.355-6.295.002-8.692a5.94 5.94 0 0 0-4.264-1.796 5.941 5.941 0 0 0-4.264 1.796l-4.271 4.345zm8.535 8.294a8.03 8.03 0 0 1-5.771-2.432l-5.761-5.862 5.761-5.861a8.04 8.04 0 0 1 5.771-2.43c2.18 0 4.229.864 5.771 2.43 3.177 3.232 3.177 8.493 0 11.723a8.04 8.04 0 0 1-5.771 2.432z"/><path d="M8.154 24.293a8.032 8.032 0 0 1-5.771-2.432c-3.177-3.23-3.177-8.492 0-11.724a8.04 8.04 0 0 1 5.771-2.43c2.18 0 4.229.863 5.77 2.43l.272.278-1.508 1.515-.272-.277a5.941 5.941 0 0 0-4.263-1.796 5.941 5.941 0 0 0-4.263 1.796c-2.355 2.396-2.355 6.292 0 8.692a5.945 5.945 0 0 0 4.263 1.796 5.941 5.941 0 0 0 4.263-1.796l.272-.276 1.508 1.514-.272.279a8.04 8.04 0 0 1-5.77 2.431"/></svg>