<svg xmlns="http://www.w3.org/2000/svg" width="32" height="32" viewBox="0 0 32 32"><path d="M0 7.613v16.775h3.23v-13.5h4.354c3.366 0 4.847 1.211 7.136 6.145 2.313 4.986 4.893 7.355 9.471 7.355H32v-3.186h-7.809c-2.918 0-4.355-1.031-6.508-5.563C15.528 11.11 13.239 7.61 7.584 7.61H0v.003zm24.189 0c-3.229 0-5.461 1.178-7.311 3.621.668.99 1.26 2.072 1.807 3.184 1.656-2.896 3.061-3.62 5.504-3.62H32V7.613h-7.811zm-10.803 9.953c-1.645 2.783-3.129 3.547-5.802 3.547H4.667v3.275h2.917c3.601 0 5.837-1.42 7.542-3.619-.613-.937-1.176-1.984-1.709-3.135l-.031-.068z"/></svg>