<svg xmlns="http://www.w3.org/2000/svg" width="32" height="32" viewBox="0 0 32 32"><path d="M16 0a3.188 3.188 0 0 1 3.188 3.188v25.625a3.188 3.188 0 0 1-6.374 0V3.188A3.186 3.186 0 0 1 16 0zm0 1.02c-1.197 0-2.167.97-2.167 2.167v25.625a2.168 2.168 0 0 0 4.334 0V3.188c0-1.198-.97-2.168-2.167-2.168z"/><path d="M29.855 24a3.186 3.186 0 0 1-4.354 1.166L3.31 12.354a3.188 3.188 0 0 1 3.188-5.521l22.191 12.813A3.186 3.186 0 0 1 29.855 24zm-.882-.51a2.167 2.167 0 0 0-.791-2.961h-.002L5.987 7.717a2.166 2.166 0 0 0-2.96.793 2.169 2.169 0 0 0 .793 2.961l22.192 12.813a2.167 2.167 0 0 0 2.961-.794z"/><path d="M29.855 8a3.188 3.188 0 0 1-1.166 4.354L6.498 25.166a3.187 3.187 0 0 1-3.206-5.508l.02-.011L25.503 6.833A3.185 3.185 0 0 1 29.855 8zm-.882.51a2.164 2.164 0 0 0-2.958-.793h-.001L3.82 20.529a2.167 2.167 0 1 0 2.167 3.754L28.18 11.471a2.168 2.168 0 0 0 .793-2.961z"/></svg>