<svg xmlns="http://www.w3.org/2000/svg" width="32" height="32" viewBox="0 0 32 32"><path d="M1.673 9.53h8.396v3.223H1.673V9.53zm28.654 2.537V9.386H16.919v13.229h13.408v-7.866h-8.224v2.683h5.362v2.502H19.78v-7.865h10.547z"/><path d="M23.334 16.09H1.253V32h22.081c4.285 0 7.77-3.594 7.77-7.955.001-4.363-3.485-7.955-7.77-7.955zm-.432 12.514H5.008v-9.118h17.917c2.6 0 4.635 2.106 4.637 4.53.001 2.509-2.177 4.588-4.66 4.588zM11.445 0v5.362H.896v7.866h13.587V0h-3.038zm-.002 10.547H3.755V8.045h7.688v2.502z"/></svg>