<svg xmlns="http://www.w3.org/2000/svg" width="32" height="32" viewBox="0 0 32 32"><path d="M28.167 6.101L17.837.263C17.268.072 16.609.02 16 .028V.001c-.611-.009-1.268.044-1.837.234L3.833 6.073s-2.491 1.266-2.491 4.532v11.229s.408 3.021 3.348 4.45l8.778 5.063s.889.685 2.531.621v.027c1.644.063 2.53-.622 2.53-.622l8.779-5.063c2.938-1.429 3.349-4.449 3.349-4.449V10.632c.001-3.265-2.49-4.531-2.49-4.531zm.897 15.124s-.363 2.693-2.983 3.967l-7.824 4.514s-.793.609-2.257.554v-.022c-1.464.055-2.256-.555-2.256-.555l-7.825-4.514C3.298 23.895 2.935 21.2 2.935 21.2V11.192c0-2.911 2.22-4.04 2.22-4.04l9.208-5.205c.507-.169 1.093-.216 1.637-.208v.024c.544-.008 1.13.039 1.639.208l9.207 5.204s2.221 1.128 2.221 4.04l-.003 10.01z"/><path d="M19.675 16.22a3.53 3.53 0 0 0-3.123 1.886l-.001-.008s-.568.887-.976.277a3.527 3.527 0 0 0-3.25-2.155 3.532 3.532 0 0 0 0 7.064c.99 0 1.877-.413 2.516-1.07.312-.357.092-.568.092-.568l-.607-.606c-.307-.308-.647.129-.647.129v-.003a2.048 2.048 0 0 1-1.49.645 2.056 2.056 0 0 1-.004-4.111 2.055 2.055 0 0 1 1.624.793v-.002l2.718 3.103.646.647.063.063.017.017v-.002a3.508 3.508 0 0 0 2.423.968 3.533 3.533 0 1 0-.001-7.067zm.096 5.587c-.64 0-1.211-.291-1.588-.748l-1.244-1.307 1.244-1.309v.002a2.055 2.055 0 1 1 1.588 3.362z"/><path d="M18.572 9.584S16.685 7.24 16 6.399c-.686.841-2.572 3.185-2.572 3.185s-1.103 1.225-1.103 2.124c0 .898.531 1.674 1.756 1.674s1.429-.408 1.429-.408v1.045c-.015.006-.028.016-.042.023a.438.438 0 0 0-.215.129 1.255 1.255 0 0 0 .746 2.267c.696 0 1.259-.563 1.259-1.258v-.001c0-.414-.202-.778-.512-1.008a.445.445 0 0 0-.215-.129c-.015-.007-.028-.017-.042-.023v-1.045s.205.408 1.429.408 1.756-.776 1.756-1.674-1.102-2.124-1.102-2.124z"/></svg>