<svg xmlns="http://www.w3.org/2000/svg" width="32" height="32" viewBox="0 0 32 32"><path d="M29.523.003c-.3-.088-4.653 2.579-6.681 4.116-2.028 1.537-5.812 4.538-5.953 4.851-.143.313-.156.877-.326 2.299-.171 1.422-.762 2.041-.762 2.041s-.287-.217-.442-.68c-.156-.463-.259-1.755-.354-1.782-.096-.028-2.645 2.347-2.645 2.347s-.182 1.188-.57 3.547c-.391 2.358-.99 3.345-1.119 3.358s-.408-.912-.502-1.852c-.096-.938-.027-3.164-.129-3.23-.103-.068-1.443 1.343-1.443 1.343s.182 1.678.318 3.872c.135 2.195-.072 3.705-.298 3.847-.225.144-.563-.396-1.062-1.571-.497-1.177-.53-2.109-.762-2.191s-.715 1.068-.857 2.211c-.143 1.144-.034 2.879-.034 2.879s-.667-1.238-1.089-1.885c-.421-.646-1.4-1.938-1.523-1.844-.123.096.414 1.143.741 2.075s.763 2.313.763 2.313-1.137-1.109-1.654-1.477c-.518-.366-2.021-1.217-2.143-.952-.123.266.911 1.049 1.36 1.497.448.449 1.407 1.476 1.407 1.476s-.482.504-.604 1.19c-.123.688.177 1.334.177 1.334s.797-1.647 1.252-1.674.625.905.489 1.517c-.136.612-2.143 2.717-2.041 3 .103.283 2.66-2.406 2.901-2.918.508.616 3.211 1.668 3.365 1.614s-1.043-.88-1.516-1.325c-.472-.443-1.016-1.759-.824-1.932.19-.173.435.879 1.805 1.542 1.369.663 3.465.808 3.501.717s-1.604-.581-2.576-1.196c-.972-.617-1.46-1.896-1.46-1.896s1.406.281 4.926.473c3.52.19 5.732-1.008 5.732-1.008s-3.084-.037-5.088-.127c-2.004-.091-4.881-.345-4.881-.345s.761-1.13 2.783-1.538c2.023-.408 5.264-.186 5.555-.23.289-.047 4.942-6.613 4.942-6.613s-2.875.117-2.676-.373c.442-1.088 2.931-.843 3.302-.878.372-.037 1.533-1.742 2.896-3.339 1.358-1.596 5.079-5.724 5.27-8.391.192-2.669-1.171-4.123-1.471-4.212zM19.372 14.529c-2.285 2.702-7.529 7.928-7.529 7.928s3.502-4.771 6.115-7.836c2.611-3.066 7.873-8.836 7.873-8.836s-4.172 6.041-6.459 8.744z"/></svg>