<svg xmlns="http://www.w3.org/2000/svg" width="32" height="32" viewBox="0 0 32 32"><path d="M22.615 8.563c0-1.52-.524-2.916-1.396-4.014l3.512-3.512L23.693 0l-3.516 3.514a6.151 6.151 0 0 0-3.825-1.335c-3.453 0-6.262 2.864-6.262 6.383 0 3.267 2.42 5.967 5.529 6.338v4.377c-3.108.371-5.529 3.07-5.529 6.339 0 3.52 2.809 6.383 6.262 6.383 3.454 0 6.262-2.863 6.262-6.383 0-3.269-2.42-5.968-5.528-6.339V14.9c3.109-.371 5.529-3.07 5.529-6.337zm-11.056 0c0-2.711 2.151-4.917 4.795-4.917 2.645 0 4.794 2.206 4.794 4.917s-2.149 4.917-4.794 4.917c-2.645-.001-4.795-2.206-4.795-4.917zm9.589 17.054c0 2.711-2.15 4.916-4.795 4.916-2.644 0-4.795-2.205-4.795-4.916 0-2.712 2.151-4.918 4.795-4.918 2.645 0 4.795 2.206 4.795 4.918z"/></svg>