<svg xmlns="http://www.w3.org/2000/svg" width="32" height="32" viewBox="0 0 32 32"><path d="M19.462.376a16.105 16.105 0 0 0-6.924 0v5.83a10.386 10.386 0 0 1 6.924 0V.376zm1.784 24.587v6.156C27.506 28.947 32 22.998 32 15.999S27.506 3.052 21.246.88v6.156a10.379 10.379 0 0 1 5.141 8.963 10.38 10.38 0 0 1-5.141 8.964zM10.754 7.036V.881C4.493 3.052 0 9 0 16c0 6.999 4.494 12.947 10.754 15.119v-6.156a10.379 10.379 0 0 1-5.142-8.964 10.38 10.38 0 0 1 5.142-8.963zm1.783 4.02v20.566c2.28.504 4.644.504 6.924 0V11.056s-1.338-.813-3.462-.813-3.462.813-3.462.813z"/></svg>