<svg xmlns="http://www.w3.org/2000/svg" width="32" height="32" viewBox="0 0 32 32"><circle cx="18.523" cy="19.16" r=".85"/><circle cx="20.421" cy="17.394" r=".917"/><circle cx="22.039" cy="14.893" r="1.049"/><circle cx="23.088" cy="11.5" r="1.505"/><circle cx="23.668" cy="7.378" r="1.629"/><circle cx="23.213" cy="2.592" r="2.015"/><ellipse cx="20.568" cy="20.92" rx=".729" ry=".729"/><ellipse cx="22.5" cy="19.824" rx=".785" ry=".785"/><ellipse cx="24.346" cy="18.061" rx=".899" ry=".899"/><ellipse cx="25.895" cy="15.441" rx="1.289" ry="1.289"/><ellipse cx="27.197" cy="12.121" rx="1.396" ry="1.396"/><ellipse cx="27.768" cy="8.041" rx="1.727" ry="1.727"/><ellipse cx="22.311" cy="22.736" rx=".616" ry=".616"/><ellipse cx="24.102" cy="22.174" rx=".663" ry=".663"/><ellipse cx="25.938" cy="21.046" rx=".76" ry=".76"/><ellipse cx="27.682" cy="19.157" rx="1.089" ry="1.089"/><ellipse cx="29.346" cy="16.644" rx="1.18" ry="1.18"/><ellipse cx="30.541" cy="13.375" rx="1.459" ry="1.459"/><ellipse cx="18.708" cy="13.027" rx=".85" ry=".85"/><ellipse cx="16.229" cy="12.268" rx=".916" ry=".916"/><ellipse cx="13.254" cy="12.117" rx="1.049" ry="1.049"/><ellipse cx="9.792" cy="12.905" rx="1.505" ry="1.505"/><ellipse cx="5.932" cy="14.463" rx="1.63" ry="1.63"/><ellipse cx="2.015" cy="17.251" rx="2.015" ry="2.015"/><ellipse cx="19.211" cy="10.377" rx=".729" ry=".729"/><ellipse cx="17.296" cy="9.251" rx=".785" ry=".785"/><ellipse cx="14.846" cy="8.534" rx=".899" ry=".899"/><ellipse cx="11.803" cy="8.503" rx="1.29" ry="1.29"/><ellipse cx="8.276" cy="9.035" rx="1.397" ry="1.397"/><ellipse cx="4.457" cy="10.581" rx="1.727" ry="1.727"/><ellipse cx="19.913" cy="7.963" rx=".615" ry=".615"/><ellipse cx="18.529" cy="6.693" rx=".663" ry=".663"/><ellipse cx="16.633" cy="5.666" rx=".759" ry=".759"/><ellipse cx="14.125" cy="5.101" rx="1.089" ry="1.089"/><ellipse cx="11.117" cy="4.915" rx="1.18" ry="1.18"/><ellipse cx="7.689" cy="5.514" rx="1.459" ry="1.459"/><ellipse cx="13.335" cy="16.131" rx=".85" ry=".85"/><ellipse cx="13.917" cy="18.657" rx=".916" ry=".916"/><ellipse cx="15.273" cy="21.309" rx="1.049" ry="1.049"/><ellipse cx="17.688" cy="23.914" rx="1.505" ry="1.505"/><ellipse cx="20.966" cy="26.478" rx="1.63" ry="1.63"/><ellipse cx="25.339" cy="28.476" rx="2.015" ry="2.015"/><ellipse cx="10.787" cy="17.021" rx=".728" ry=".728"/><ellipse cx="10.77" cy="19.243" rx=".785" ry=".785"/><ellipse cx="11.374" cy="21.723" rx=".899" ry=".899"/><ellipse cx="12.868" cy="24.374" rx="1.29" ry="1.29"/><ellipse cx="15.093" cy="27.162" rx="1.396" ry="1.396"/><ellipse cx="18.341" cy="29.697" rx="1.727" ry="1.727"/><ellipse cx="8.346" cy="17.621" rx=".616" ry=".616"/><ellipse cx="7.938" cy="19.453" rx=".663" ry=".663"/><ellipse cx="7.997" cy="21.608" rx=".759" ry=".759"/><ellipse cx="8.762" cy="24.063" rx="1.09" ry="1.09"/><ellipse cx="10.104" cy="26.76" rx="1.18" ry="1.18"/><ellipse cx="12.338" cy="29.43" rx="1.459" ry="1.459"/></svg>