<svg xmlns="http://www.w3.org/2000/svg" width="32" height="32" viewBox="0 0 32 32"><path d="M2.184 24.096L15.846 32V16.084L2.184 8.289v15.807zM16 15.687l13.588-7.753L16.054 0 16 .032 15.946 0 2.412 7.934 16 15.687zm7.354 1.001c-2.056 1.582-1.422 3.457-1.422 3.457l2.768-1.61c.288-2.506-1.346-1.847-1.346-1.847zm-.185 4.482s-.526.29-.553.922c0 0 .026.371.368.396v1.344s.475.08.58-.236v-1.397s.422-.185.289-.737c.001-.002-.104-.45-.684-.292z"/><path d="M16.154 16.084V32l13.661-7.904V8.289l-13.661 7.795zm10.179 6.641s-.079.422-.501.713c-.422.289-5.08 3.084-5.08 3.084s-.693.158-.72-.396c-.027-.554 0-4.376 0-4.376s.132-.659.765-1.027c0 0-.605-3.455 2.662-5.353 0 0 2.77-1.028 2.241 2.676 0 0 .579-.171.633.118v4.561z"/></svg>