<svg xmlns="http://www.w3.org/2000/svg" width="32" height="32" viewBox="0 0 32 32"><path d="M29.443 9.574L16.839.324A1.122 1.122 0 0 0 16 .001a1.125 1.125 0 0 0-.839.323L2.556 9.574s-.575.291-.575 1.146v10.562c0 .854.575 1.146.575 1.146l12.605 9.25c.282.261.577.334.839.322.262.012.557-.062.839-.322l12.604-9.25s.576-.291.576-1.146V10.72c.001-.856-.576-1.146-.576-1.146zm-1.457.5l.727 1.339h-.727l-.727-1.339h.727zM25.68 8.756h.656V10.8h-.656V8.756zm1.42 4.569v.605h-2.861v-.605H27.1zm-1.42-1.492h.656v.634h-.656v-.634zm-1.785.064l-.537-2.033-.387.016-.574 2.017-.637.064.79-2.71h1.179l.791 2.582-.625.064zm.343 5.195v2.323h-.688v-2.323h.688zm-14.046-3.668l-1.025.086-1.557-1.065 1.557-1.021h1.025l-1.517 1.021 1.517.979zm.371 3.474h-.677l-.629-2.065h-.323l-.597 2.065h-.565l.718-2.629h1.282l.791 2.629zm-.403 1.163v.612H7.288v-.612h2.872zm1.678 3.871l.564.387-1.535 1h2.331v.613H9.515v-.613l2.323-1.387zm-.936-7.22v-.669h1.646v.669h-1.646zm.936 5.751v.646h-.597v-.646h.597zm.564-3.565v2.709h-.564v-3.883h.564l1.678 2.642v.983l-1.678-2.451zm0-3.686v-.662h2.855v.662h-2.855zm1.92 8.235h.559v2.484h-.559v-2.484zm.404-3.549v-1.613h.637v1.613h-.637zm-.259-3.186v-.669h3.104v2.783h-1.184v-.605h.541v-1.509h-2.461zm1.476-1.5v-.662h.629v.662h-.629zm2.219 4.38v.613h-.592v-.613h.592zm-.592-4.878v-2.119h.592v2.119h-.592zm-2.032 7.475l2.511-1.404.5.396-1.46 1.008h2.144v.597h-3.694v-.597zm3.196-2.484v-.71h.646v.71h-.646zm.325-1.98h-.121v-2.699h1.183v.597h-.593v1.5h2.522v.601l-2.991.001zm.716-4.237V10.8h.688v.688h-.688zm1 5.604h1.968v.613h-1.968v-.613zm1.275-3.162v-.605h.693v.605h-.693zm-.943-6.701h3.131v.688h-3.131v-.688zm-.332-.548h-.625v-.603h.625v.603zM18.71 4.454h1.774v.603H18.71v-.603zm-1.226 1.119h.678l1.613 2.662v.871L18.162 6.86v2.391h-.678V5.573zm-2.936-3.334h2.733v2.354h-.561V2.819h-1.58v.506h-.592V2.239zm1.839 3.839h-.554l-.807-1.323h.68l.681 1.323zm-1.839.452h.667v.624h-.667V6.53zm.99 4.066V8.1h.591v3.066h-2.764v-1.14H14v.57h1.538zM12.87 3.417h.656v2.845h-.656V3.417zm-1.484 3.812l1.016 1.527 1.033-1.527v1.038l-1.033 1.511-1.016-1.576v-.973zm-.258 3.915h-.635V9.633h.635v1.511zM8.982 6.842l.016-.581h1.903v.715L8.869 8.235l-.516-.468 1.355-.925h-.726zm-.908 2.753h.688v.667h-.688v-.667zm-3.345-.021h2.882v.688H4.729v-.688zm-1.7 2.398h3.216v.578l-1.452.96-.538-.441.86-.519H3.029v-.578zm1.565 3.753v.561h-.677v-.561h.677zm1.484 5.287H3.013v-2.807H4.11v.645h-.5v1.502h2.468v.66zm0-5.888h.629v2.065h-.629v-2.065zm2.259 8.985H6.595v-.661h1.742v.661zm-.871-3.323v-.952l1.024 1.469 1.024-1.469v.952L8.45 22.367l-.984-1.581zm2.306 4.985h-.516v-.629h.516v.629zm.721.292h2.539v.646h-2.539v-.646zm3.071 2.984l-.758-1.308h.702l.702 1.308h-.646zm2.872 1.531h-.898v-1.451h.898v1.451zm.306-5.435v2.403h-1.204v-.612h.591v-1.518h-2.447v-.549h3.06v.276zm0-1.695L16 22.125h.742l.643 1.259-.643.064zm1.081 5.679h-.574v-.678h.574v.678zm1.066-7.195h1.193l.758 2.629-.595.065-.583-2.081-.43.016-.49 2.065h-.693l.84-2.694zm1.595 5.002v.612h-1.937v-.612l2.372-1.518.516.355-1.728 1.16h.776v.003zm.071-7.752v.652h-.617v-1.307h2.736v2.484h-.624v-1.83h-1.495zm3.786 4.597l-1.063 1.637-1.049-1.549v-1.08l1.057 1.58 1.057-1.532-.002.944zm1.339-.815h-.484v-.646h.484v.646zm2.452-2.282H24.52v-.492l2.301-1.517.517.397-1.606 1.119h2.402l-.002.493zm.839-5.042v2.774h-.516v-2.689h-1.581v.432h-.538v-1.033h2.635v.516z"/></svg>