<svg xmlns="http://www.w3.org/2000/svg" width="32" height="32" viewBox="0 0 32 32"><path d="M10.042 30.834l-.02.008c1.9.767 3.93 1.16 5.978 1.158 8.837 0 16-7.163 16-16 0-1.034-.102-2.044-.289-3.023-1.09 3.205-5.746 13.457-21.669 17.857zm9.583-19.865c-5.375 0-11.469 5.281-11.469 5.281s.156.428.156.688a1.562 1.562 0 0 1-2.385 1.328c-.731.771-3.776 4.234-2.725 7.34.106.141.215.276.325.414 1.185 1.281 3.004 1.264 3.004 1.264 11.438-.875 16.219-10 16.657-11.031.436-1.032 1.812-5.284-3.563-5.284z"/><path d="M16 0C7.164 0 0 7.164 0 16c0 2.82.732 5.468 2.014 7.77.354-1.069 1.297-3.17 3.704-5.66a1.564 1.564 0 0 1 1.033-2.735c.398 0 .76.151 1.035.396C20.952 5.237 28.072 7.416 30.113 8.462 27.418 3.427 22.109 0 16 0z"/></svg>