<svg xmlns="http://www.w3.org/2000/svg" width="32" height="32" viewBox="0 0 32 32"><path d="M4.757 17.96h-3.51a1.249 1.249 0 1 0 .001 2.495h3.51a1.248 1.248 0 1 0-.001-2.495zm10.216 0h-2.235l-7.773-5.355H1.664a1.248 1.248 0 0 0 0 2.496h2.573l7.487 5.354h3.25c.689.02 1.263-.523 1.282-1.213a1.247 1.247 0 0 0-1.283-1.282zm10.711 0h-2.235l-7.772-5.355h-3.302a1.248 1.248 0 0 0 0 2.496h2.573l7.487 5.354h3.25a1.25 1.25 0 0 0 1.213-1.283 1.251 1.251 0 0 0-1.214-1.212zm5.068-5.355H22.85a1.248 1.248 0 0 0 0 2.496h6.655v1.612a1.25 1.25 0 0 0 1.283 1.213A1.25 1.25 0 0 0 32 16.713v-2.86c0-.689-.559-1.248-1.248-1.248z"/></svg>