<svg xmlns="http://www.w3.org/2000/svg" width="32" height="32" viewBox="0 0 32 32"><path d="M14.687 9.154c-1.022-.286-5.901-1.469-6.866-1.716-1.032-.265-3.76-.695-4.455.878a326.367 326.367 0 0 0-3.167 7.57c-.633 1.604.368 2.443 1.308 2.688.94.244 7.234 1.9 8.358 2.146 1.124.246 2.861.104 3.556-1.45.695-1.554 2.575-5.946 3.126-7.458.551-1.514-.839-2.372-1.86-2.658zm-2.825 3.545c-.271.742-1.26 3.029-1.601 3.792-.341.762-.875.808-1.426.687a179.377 179.377 0 0 1-3.389-.809c-.461-.121-.937-.416-.626-1.203.311-.786 1.284-3.06 1.625-3.831.341-.772 1.133-.687 1.639-.557.474.121 2.726.669 3.228.81.499.141.82.37.55 1.111zm14.544 4.108L32 13.442l-4.75-1.203-7.143 4.567 2.467-5.718-3.984-1.011-4.858 11.556 4.015 1.042 1.81-4.367s3.465.903 4.047 1.071c.582.17.475.66.352 1.043-.121.384-1.408 3.418-1.408 3.418l3.938.979s1.55-3.709 1.964-4.813c.413-1.104.229-1.502-.14-2.054-.369-.55-1.904-1.145-1.904-1.145z"/></svg>