<svg xmlns="http://www.w3.org/2000/svg" width="32" height="32" viewBox="0 0 32 32"><path d="M6.548 1.42H1.444v5.115A17.486 17.486 0 0 1 6.548 1.42zm24.008 4.978V1.42h-5.015c1.993 1.3 3.7 2.994 5.015 4.978zm-4.941 24.133h4.94v-4.93a17.453 17.453 0 0 1-4.94 4.93zM1.444 25.465v5.066h5.031a17.509 17.509 0 0 1-5.031-5.066z"/><path d="M32 16c0-8.822-7.179-16-16-16C7.178 0 0 7.178 0 16s7.178 16 16 16 16-7.178 16-16zM16 27.667C9.565 27.667 4.332 22.434 4.332 16S9.565 4.333 16 4.333c6.432 0 11.666 5.234 11.666 11.667 0 6.434-5.234 11.667-11.666 11.667z"/></svg>