<svg xmlns="http://www.w3.org/2000/svg" width="32" height="32" viewBox="0 0 32 32"><path d="M28.97 23.18L16.694 1.182a.796.796 0 1 0-1.391 0L3.03 23.18a.797.797 0 0 0 .273 1.063l12.274 7.637c.257.16.583.16.841 0l12.275-7.637a.794.794 0 0 0 .277-1.063zm-9.186-6.388c.271.415.453 1.187.612 1.869.153.661.301 1.284.556 1.747.352.636.86 1.17 1.479 1.55.025.015.052.026.076.039l3.924 1.78-9.473 5.895v-3.363l-.002-.048c-.012-.269.047-.628.104-.71.098-.087.477-.322.78-.511.881-.547 2.088-1.297 2.851-2.165.112-.128.212-.264.312-.4a5.472 5.472 0 0 1-1.164-1.453c-.031-.055-.055-.115-.082-.172a3.25 3.25 0 0 1-.5.766c-.574.654-1.644 1.318-2.424 1.804-.479.297-.824.513-1.045.711-.754.675-.753 1.896-.74 2.202v3.344l-9.477-5.896 3.048-1.385c.013-.004.024-.01.035-.016.121-.061.513-.216.856-.216.31 0 1.205.407 1.853.912.979.765 1.849 1.3 2.626 1.625.167-.529.456-1.077.949-1.519.042-.037.088-.074.133-.109-.514-.159-1.32-.559-2.533-1.504-.582-.454-1.966-1.315-3.027-1.315-.813 0-1.537.333-1.695.411l-2.084.945 9.316-16.695v6.582c.013.269-.047.629-.104.71-.098.087-.477.322-.779.511-.882.548-2.09 1.298-2.852 2.166-.992 1.129-1.336 2.417-1.43 4.12.66.072 1.322.32 1.888.601.048-1.793.315-2.709.978-3.46.574-.655 1.644-1.319 2.422-1.803.479-.297.826-.513 1.047-.711.752-.674.75-1.895.738-2.203V4.913l9.315 16.694-2.917-1.323a2.382 2.382 0 0 1-.729-.798c-.129-.232-.257-.778-.369-1.262-.195-.836-.418-1.784-.877-2.481-.608-.925-1.582-2.099-3.361-2.698-.167.533-.455 1.086-.952 1.531-.052.047-.11.091-.167.137 1.54.342 2.323 1.226 2.885 2.079z"/></svg>