<svg xmlns="http://www.w3.org/2000/svg" width="32" height="32" viewBox="0 0 32 32"><path opacity=".9" d="M31.131 28.443s2.52-12.354-8.203-17.542C12.206 5.712 4.992 12.68 3.411 14.211c0 0 5.534-9.932 18.282-6.177 12.748 3.756 10.525 19.273 9.438 20.409z"/><path d="M0 8.611s7.462-4.48 14.874 1.746c7.411 6.226 4.101 13.836 4.101 13.836s8.353-8.748-1.186-18.135c0 .001-9.143-7.79-17.789 2.553z"/><path d="M13.688 1.809s10.128 3.558 10.328 14.527c.197 10.971-8.055 13.885-8.055 13.885s13.786-.198 14.033-15.021c0 0-.051-14.132-16.306-13.391z"/></svg>