<svg xmlns="http://www.w3.org/2000/svg" width="32" height="32" viewBox="0 0 32 32"><path d="M5.229 3.464C4.905 3.309.897 6.624.897 9.066c0 3.331 4.685 10.894 5.475 13.814.677 2.513-1.157 5.519-.649 5.659.465.296 4.84-4.135 5.009-6.025.226-3.006-5.108-11.783-5.531-14.04-.508-2.64.382-4.953.028-5.01zM15.248.007c-.409-.198-5.531 4.021-5.531 7.14 0 4.262 5.969 13.899 6.984 17.625.861 3.203-1.467 7.041-.832 7.211.593.381 6.167-5.264 6.378-7.676.282-3.839-6.519-15.015-7.055-17.908-.621-3.358.508-6.308.056-6.392zm10.343 3.457c-.31-.155-4.331 3.16-4.331 5.602 0 3.331 4.686 10.894 5.475 13.814.678 2.513-1.156 5.519-.648 5.659.466.296 4.841-4.135 5.012-6.025.225-3.006-5.109-11.783-5.533-14.04-.498-2.64.377-4.953.025-5.01z"/></svg>