<svg xmlns="http://www.w3.org/2000/svg" width="32" height="32" viewBox="0 0 32 32"><path d="M16 8.033a7.966 7.966 0 1 0-.005 15.933H16a7.966 7.966 0 1 0 0-15.933zm0 14.28a6.314 6.314 0 1 1-.158-12.626h.159A6.313 6.313 0 0 1 16 22.313z"/><path d="M18.797 16h-2.503v-2.874a.6.6 0 0 0-1.198 0v3.548h.008a.594.594 0 0 0 .591.521h3.102a.599.599 0 1 0 0-1.195z"/><path d="M29.91 5.138H2.09A2.09 2.09 0 0 0 0 7.228v17.545a2.09 2.09 0 0 0 2.09 2.09h27.82a2.09 2.09 0 0 0 2.09-2.09V7.228a2.09 2.09 0 0 0-2.09-2.09zM1.11 7.902c0-.866.702-1.567 1.567-1.567h1.74s-.302 2.612-3.308 3.266l.001-1.699zm0 16.155v-1.703c.339.055 2.599.52 3.213 3.27H2.678a1.569 1.569 0 0 1-1.568-1.567zm28.169 1.565H6.026c-.037-.373-.524-4.243-4.916-5.009v-9.315s4.265-.305 5.049-4.963h19.728c.047.441.57 4.268 4.959 5.006V9.6s-2.586-.3-3.255-3.265h1.688c.865 0 1.566.702 1.566 1.567v12.717c-.437.045-4.269.568-5.007 4.96h1.741s.3-2.586 3.266-3.256v1.731a1.565 1.565 0 0 1-1.564 1.567l-.002.001z"/></svg>