<svg xmlns="http://www.w3.org/2000/svg" width="32" height="32" viewBox="0 0 32 32"><path d="M15.701 18.182c-.97-1.016-2.89-1.553-5.552-1.553-3.741 0-6.233-.678-7.618-2.073-.917-.924-1.166-1.972-1.232-2.797C.467 13.061 0 14.494 0 16.001c0 1.913.752 3.704 2.057 5.262 1.859 1.762 4.648 3.076 8.264 3.076 5.788 0 6.118-3.854 6.121-3.895.017-.434.064-1.419-.741-2.262z"/><path d="M27.471 23.484c-2.827-3.586-7.342-9.197-8.674-10.46-3.297-3.123-6.524-4.64-9.869-4.64-4.25 0-5.373 1.563-5.373 2.388-.006.823-.01 1.568.593 2.178.635.638 2.19 1.398 6.002 1.398 3.349 0 5.771.76 7.2 2.259.979 1.027 1.443 2.316 1.371 3.836 0 1.189-1.152 5.178-6.375 6.014 1.175.186 2.394.293 3.654.293 4.502-.002 8.564-1.254 11.471-3.266z"/><path d="M28.111 20.621V8.99C25.176 6.705 20.844 5.25 16 5.25c-2.266 0-4.416.322-6.369.891 3.696.194 7.217 1.895 10.734 5.229 1.352 1.28 5.295 6.169 7.746 9.251zm2.28-9.292v9.345c1.021-1.416 1.607-2.998 1.609-4.672 0-1.677-.589-3.259-1.609-4.673z"/></svg>