<svg xmlns="http://www.w3.org/2000/svg" width="32" height="32" viewBox="0 0 32 32"><path d="M0 10.59h2.718v2.718H0V10.59zm4.095 0h2.718v2.718H4.095V10.59zm3.957 0h2.718v2.718H8.052V10.59zm0 4.112h2.718v2.718H8.052v-2.718zm0 3.989h2.718v2.72H8.052v-2.72zm-3.957-3.989h2.718v2.718H4.095v-2.718zm12.662-4.112h-4.714v10.821h5.092s4.336-.481 4.336-5.41c0 0-.069-5.411-4.714-5.411zm-2.305 8.567v-6.365s4.403-.792 4.403 3.27c0 4.059-4.403 3.095-4.403 3.095zM31.2 10.59v9.467l-.06-.076-7.502-9.391h-.688v10.821h.792v-9.462l7.501 9.462H32V10.59h-.8z"/></svg>